<svg id="lead-icon-1" viewBox="0 0 75 95" fill="none" xmlns="http://www.w3.org/2000/svg" preserveAspectRatio="xMidYMid meet">
<path d="M30.0359 82.1371C29.9355 82.7081 30.2412 83.2656 30.556 83.7557C31.1263 84.6324 31.7879 85.4731 32.6411 86.0846C34.2837 87.2625 36.5787 87.4604 38.4311 86.6376C40.2836 85.8148 41.6478 84.0344 42.0128 82.0652" fill="white"/>
<path d="M29.1644 82.1371C29.0732 83.0768 29.5933 83.904 30.118 84.6459C30.5834 85.3068 31.1035 85.9452 31.7332 86.4667C32.9879 87.5053 34.6031 88.0493 36.2456 87.9954C39.5125 87.883 42.2364 85.4237 42.8615 82.2945C43.0759 81.2109 41.3923 80.7479 41.1779 81.8359C40.7216 84.1243 38.8737 86.1116 36.4236 86.2644C35.2464 86.3409 34.0419 86.0486 33.0928 85.3428C32.5727 84.9561 32.121 84.4525 31.7423 83.931C31.3636 83.4095 30.8526 82.8115 30.921 82.1371C30.9667 81.674 30.4876 81.2739 30.045 81.2739C29.534 81.2739 29.2192 81.6695 29.169 82.1371H29.1644Z" fill="#EE725E"/>
<path d="M56.2118 53.6641C57.6536 52.077 60.4414 51.5644 61.7828 53.3943C62.6862 54.6262 63.293 56.0649 63.544 57.5621C63.7037 58.5242 63.6854 59.6122 63.0284 60.3406C62.782 60.6104 62.4672 60.8127 62.1387 60.9745C60.6147 61.7388 58.7395 61.7838 57.1791 61.0914" fill="white"/>
<path d="M56.8278 54.2755C57.4391 53.6236 58.3197 53.1515 59.1273 53.1066C59.2414 53.1021 59.3509 53.0976 59.465 53.0976C59.506 53.0976 59.8072 53.1246 59.7022 53.1111C59.8893 53.1381 60.1904 53.228 60.2543 53.2549C60.7242 53.4618 60.9706 53.7405 61.2535 54.1676C61.9881 55.2602 62.49 56.5011 62.6953 57.7959C62.7729 58.3084 62.8048 58.8839 62.6086 59.374C62.4124 59.864 61.9744 60.1113 61.5181 60.3181C60.3136 60.8532 58.8262 60.8711 57.6125 60.3496C57.1791 60.1653 56.6726 60.2237 56.4171 60.6598C56.2027 61.024 56.2939 61.6489 56.7319 61.8378C58.2832 62.5077 60.0399 62.6561 61.6596 62.103C62.4946 61.8198 63.3204 61.4017 63.8542 60.6868C64.3196 60.0619 64.4976 59.2751 64.4976 58.5108C64.4976 56.8697 63.8862 55.1523 63.0512 53.7495C62.6542 53.0796 62.2025 52.4457 61.5455 52.0006C60.9889 51.6184 60.3227 51.4386 59.652 51.3846C58.1509 51.2677 56.5951 51.9826 55.5867 53.0571C54.8248 53.8709 56.0612 55.0938 56.8232 54.2755H56.8278Z" fill="#EE725E"/>
<path d="M10.5215 59.1761C10.0698 59.2885 9.65455 59.5178 9.24848 59.7426C7.42342 60.7497 5.47973 61.8827 4.66758 63.78C4.02425 65.2817 4.26607 67.1206 5.30635 68.3839C6.34663 69.6473 8.15344 70.2588 9.75037 69.8451C10.234 69.7192 11.6393 69.2022 11.7807 68.7256" fill="white"/>
<path d="M10.2888 58.3444C9.49941 58.5692 8.78764 58.9963 8.08499 59.401C7.38235 59.8056 6.72076 60.2282 6.09112 60.7138C4.86833 61.6624 3.83717 62.9438 3.54516 64.4814C2.93833 67.7185 5.37478 70.8927 8.80589 70.8297C9.59067 70.8163 10.3116 70.596 11.0233 70.2947C11.7351 69.9935 12.3283 69.6518 12.6203 68.9504C12.8028 68.5188 12.4241 68.0018 12.0089 67.8894C11.507 67.7545 11.1146 68.0602 10.9321 68.4918C11.0553 68.1996 10.996 68.3525 10.85 68.4514C10.7405 68.5233 10.6218 68.5818 10.5078 68.6402C10.2705 68.7571 10.0241 68.8515 9.76861 68.9369C9.16634 69.1303 8.54582 69.1662 7.9253 69.0224C6.48807 68.6807 5.42953 67.5477 5.21509 66.1C5.00065 64.6523 5.71698 63.317 6.81202 62.3458C7.37778 61.8468 8.01655 61.4376 8.66901 61.0555C9.32147 60.6733 10.0104 60.2147 10.745 60.0034C11.8218 59.6977 11.3655 58.0342 10.2796 58.3444H10.2888Z" fill="#EE725E"/>
<path d="M17.0049 37.0154C17.297 30.2535 18.3737 14.5175 18.6657 7.75555C19.9798 9.12233 21.1615 10.606 22.4527 11.9908C23.6345 13.2541 24.9074 14.4366 26.1804 15.61C30.2047 19.3372 36.962 26.4094 40.9862 30.1366" fill="white"/>
<path d="M17.8764 37.0154C18.2186 29.1205 18.7981 21.2345 19.2452 13.3441C19.3502 11.4827 19.4551 9.62141 19.5372 7.76008L18.0453 8.36703C19.7791 10.1834 21.3258 12.1527 23.1189 13.9151C24.5653 15.3358 26.0801 16.6891 27.5356 18.1008C30.4009 20.8839 33.1978 23.7343 36.0312 26.5488C37.4593 27.965 38.8874 29.3768 40.3657 30.7435C41.1824 31.5034 42.4235 30.285 41.6022 29.5251C38.8281 26.9534 36.1863 24.2513 33.5172 21.5762C30.7385 18.7932 27.9006 16.0866 25.058 13.3711C23.0003 11.4063 21.2437 9.19879 19.2863 7.14413C18.7433 6.57763 17.8262 7.03622 17.7943 7.75108C17.4521 15.646 16.8727 23.532 16.4255 31.4224C16.3206 33.2838 16.2156 35.1451 16.1335 37.0064C16.0833 38.117 17.8354 38.1125 17.881 37.0064L17.8764 37.0154Z" fill="#EE725E"/>
<path d="M24.5972 41.2371C22.69 41.7407 20.7418 42.2622 19.0947 43.3367C18.0726 44.0022 17.1966 44.8609 16.3479 45.7331C15.0065 47.0999 13.6879 48.5206 12.7024 50.1572C11.7169 51.7937 11.1876 53.4662 11.1739 55.3095C11.1648 56.9056 10.8226 58.5242 10.7998 60.1517C10.745 63.6991 11.4842 67.2509 12.9032 70.506C14.9427 75.2043 20.2216 80.3027 25.3911 81.2469C31.2724 82.3214 37.4502 82.6002 43.1444 80.8018C48.8385 79.0034 54.0035 74.8806 55.8741 69.2786C56.376 67.7724 56.6407 66.1943 56.8277 64.6207C57.5988 58.2409 55.6825 51.5509 52.7305 45.8905" fill="white"/>
<path d="M24.3645 40.4054C22.4573 40.9089 20.4999 41.435 18.8163 42.487C17.1327 43.5391 15.7411 45.0407 14.4225 46.4885C13.1039 47.9362 11.8993 49.5098 11.1328 51.3171C10.7496 52.2253 10.4986 53.1605 10.3709 54.1406C10.2431 55.1207 10.2705 56.1773 10.1655 57.1934C9.94654 59.2705 9.83703 61.2937 10.0834 63.3754C10.3298 65.457 10.7906 67.4352 11.5024 69.3775C12.7434 72.745 14.8194 75.7033 17.5479 78.0727C18.8756 79.2282 20.3402 80.2533 21.9417 81.0041C23.5432 81.7549 25.3181 82.1371 27.1295 82.4069C31.2952 83.0228 35.5247 83.2027 39.6904 82.5103C46.4796 81.3818 53.2552 77.4478 56.1068 71.0365C57.6809 67.4937 58.0916 63.3349 57.7722 59.5043C57.4437 55.5658 56.3349 51.7443 54.7517 48.125C54.3593 47.2213 53.9304 46.3311 53.4742 45.4589C52.9632 44.4698 51.4529 45.342 51.9639 46.3266C55.354 52.8683 57.1699 60.3855 55.4179 67.66C53.9122 73.905 48.4689 78.3515 42.3961 80.1274C38.6501 81.2244 34.7126 81.4132 30.8343 81.112C28.9363 80.9637 26.9926 80.7478 25.1356 80.3162C23.6162 79.9655 22.2109 79.2911 20.9106 78.4549C18.1547 76.6835 15.8004 74.1567 14.2445 71.2973C12.4834 68.0647 11.6621 64.2116 11.6575 60.5654C11.6575 59.5763 11.7579 58.5961 11.8674 57.6115C11.9769 56.6269 11.9906 55.6872 12.059 54.7206C12.1822 52.9492 12.9259 51.2992 13.9297 49.8425C14.9335 48.3858 16.2841 46.9785 17.6027 45.6927C18.9213 44.4068 20.3859 43.4447 22.1607 42.8377C23.0368 42.541 23.931 42.3027 24.8253 42.0644C25.9112 41.7767 25.4504 40.1131 24.3599 40.4054H24.3645Z" fill="#EE725E"/>
<path d="M8.14433 65.5649C8.13977 65.6234 8.10783 65.7672 8.14433 65.6279C8.15346 65.5964 8.15802 65.5649 8.16714 65.5334C8.17627 65.4975 8.19908 65.457 8.20364 65.421C8.20364 65.448 8.11695 65.6009 8.17171 65.493C8.20364 65.43 8.24015 65.3671 8.27665 65.3042C8.2949 65.2772 8.31315 65.2502 8.3314 65.2232C8.39071 65.1378 8.19908 65.3716 8.29946 65.2637C8.34965 65.2097 8.39984 65.1558 8.45459 65.1063C8.4774 65.0839 8.50478 65.0614 8.52759 65.0434C8.6371 64.9535 8.54584 65.0434 8.48653 65.0704C8.61884 65.0074 8.73747 64.913 8.87435 64.8456C8.98386 64.7916 8.82873 64.8725 8.80135 64.877C8.83785 64.8725 8.87892 64.8501 8.91542 64.8366C9.00211 64.8096 9.0888 64.7826 9.17549 64.7601C9.26218 64.7377 9.35343 64.7242 9.44012 64.7062C9.64088 64.6702 9.29868 64.7152 9.41731 64.7062C9.45837 64.7062 9.49943 64.6972 9.53594 64.6972C9.91007 64.6702 10.2888 64.6882 10.6629 64.7152C11.1192 64.7512 11.5572 64.2926 11.5389 63.852C11.5161 63.3529 11.1557 63.0292 10.6629 62.9887C9.72301 62.9123 8.75572 62.9573 7.90251 63.3934C7.52381 63.5867 7.19074 63.8699 6.93067 64.1981C6.61128 64.6028 6.45159 65.0434 6.39227 65.5514C6.36946 65.7583 6.50634 66.019 6.64778 66.1584C6.79835 66.3068 7.0493 66.4192 7.26374 66.4102C7.47818 66.4012 7.72457 66.3292 7.8797 66.1584C8.04851 65.9786 8.10783 65.7897 8.1352 65.5514L8.14433 65.5649Z" fill="#EE725E"/>
<path d="M57.1836 56.9731C57.3342 56.9057 57.0285 57.0226 57.1198 57.0001C57.1563 56.9911 57.1928 56.9731 57.2247 56.9641C57.2977 56.9416 57.3707 56.9191 57.4437 56.9057C57.4893 56.8967 57.5304 56.8877 57.576 56.8787C57.722 56.8517 57.3935 56.8922 57.4985 56.8877C57.5715 56.8877 57.649 56.8742 57.7266 56.8742C57.8042 56.8742 57.8772 56.8742 57.9547 56.8787C57.9912 56.8787 58.0323 56.8832 58.0688 56.8877C58.233 56.9012 57.9 56.8562 57.9958 56.8787C58.1509 56.9147 58.3061 56.9416 58.4612 56.9911C58.4977 57.0046 58.5342 57.0181 58.5661 57.0315C58.6391 57.0585 58.6939 57.1215 58.5068 57.0046C58.5707 57.045 58.6437 57.0675 58.7121 57.1035C58.7806 57.1395 58.8444 57.1799 58.9083 57.2204C58.9403 57.2429 58.9722 57.2608 58.9996 57.2833C59.1182 57.3642 58.9813 57.2833 58.9494 57.2429C59.0452 57.3598 59.1866 57.4542 59.287 57.5711C59.3372 57.625 59.3555 57.7059 59.2505 57.5171C59.2688 57.5486 59.2961 57.5801 59.3144 57.607C59.36 57.6745 59.4011 57.7464 59.4421 57.8183C59.6612 58.214 60.2497 58.3713 60.6376 58.1286C61.0482 57.8678 61.1851 57.3732 60.9524 56.9506C60.5235 56.1683 59.7707 55.6153 58.9266 55.3321C58.0825 55.0488 57.1289 55.1208 56.303 55.4894C56.116 55.5748 55.9517 55.8176 55.9015 56.002C55.8422 56.2088 55.8696 56.483 55.9882 56.6674C56.2665 57.0945 56.7365 57.1754 57.1836 56.9776V56.9731Z" fill="#EE725E"/>
<path d="M21.2756 31.6877C20.6642 30.0646 19.2361 28.7113 17.5114 28.3696C15.7867 28.0279 13.843 28.8102 13.0126 30.3389C12.1822 31.8675 12.6933 34.0166 14.2126 34.8888C10.8271 33.7693 7.20895 33.3287 3.64553 33.612C2.52768 33.7019 1.31402 33.9132 0.588557 34.7539C-0.305722 35.7925 -0.0867147 37.3931 0.565743 38.5935C1.44177 40.2031 3.00676 41.4305 4.79531 41.907C2.44555 42.3162 0.0136634 44.218 0.36955 46.5424C0.538368 47.6349 1.29577 48.5656 2.19461 49.222C4.06529 50.5933 6.64775 50.9485 8.82869 50.1392C7.9116 50.8136 6.97626 51.5105 6.33293 52.4411C5.68959 53.3718 5.37477 54.6037 5.81278 55.6468C6.22342 56.6224 7.23633 57.2698 8.29486 57.4586C9.3534 57.6475 10.4439 57.4317 11.4522 57.072C13.77 56.2537 15.8004 54.6666 17.1418 52.6345C17.338 54.244 18.2277 55.9075 19.7745 56.456C21.3851 57.027 23.2421 56.1953 24.3234 54.8869C25.4048 53.5786 25.8747 51.8881 26.2534 50.2426C26.7006 51.3351 27.2344 52.531 28.3203 53.0211C29.2328 53.4347 30.337 53.2279 31.1856 52.7019C32.0343 52.1759 32.6639 51.3711 33.2069 50.5393C34.5985 48.3992 35.5384 45.9759 35.9399 43.4671C36.6198 47.1673 39.3573 50.4359 42.9208 51.7937C44.1481 52.2613 45.7359 52.4321 46.6119 51.4655C47.0454 50.9844 47.2005 50.319 47.2325 49.6761C47.3055 48.2958 46.8857 46.8931 46.0553 45.7736C47.1138 47.6034 49.4271 48.3003 51.5487 48.5611C53.5745 48.8129 55.6323 48.8174 57.6627 48.5791C58.3014 48.5026 58.9676 48.3902 59.474 47.9991C60.4505 47.2438 60.4231 45.6972 59.7524 44.6676C59.0817 43.638 57.9592 42.9996 56.8733 42.4016C59.0223 41.7632 61.0071 40.5807 62.5812 39.0026C63.2839 38.2968 63.9226 37.483 64.1736 36.5209C64.4245 35.5587 64.2009 34.4347 63.4253 33.8098C62.9736 33.4456 62.3941 33.2837 61.8192 33.1803C59.5334 32.7622 57.106 33.1579 55.0802 34.2819C56.0931 33.1174 57.3296 32.1193 58.0961 30.784C58.8627 29.4487 59.0315 27.5963 57.941 26.5038C56.6817 25.2359 54.5327 25.6181 52.8582 26.2745C50.221 27.3086 47.7709 28.7923 45.6447 30.6446C46.2378 29.0216 46.7762 27.0253 45.6447 25.7125C44.8873 24.8358 43.6143 24.5885 42.4508 24.6425C39.9094 24.7639 37.587 26.0272 35.4335 27.3625C33.3164 28.6709 31.2587 30.0781 29.2739 31.5708C29.3469 30.6176 29.4153 29.669 29.4883 28.7158C29.5112 28.3876 29.534 28.0459 29.4062 27.7447C29.096 27.0253 28.1104 26.886 27.3393 27.0433C24.7021 27.5738 23.0048 30.0376 21.5904 32.2946L21.2801 31.6967L21.2756 31.6877Z" fill="#F3BFB6"/>
<path d="M35.2008 60.3946C35.9126 59.5988 37.2996 60.0439 38.0752 60.5115C39.1566 61.1634 39.6676 62.2334 39.8821 63.4338C39.9916 64.0363 40.0782 64.7017 39.8501 65.2907C39.6722 65.7538 39.3072 66.1584 38.9011 66.4461C37.7696 67.2509 36.2821 67.233 34.959 67.0846C34.489 67.0306 34.0829 67.5162 34.0829 67.9478C34.0829 68.4559 34.4844 68.7571 34.959 68.811C36.4236 68.9774 37.9429 68.901 39.2798 68.2356C40.3976 67.6781 41.3832 66.6215 41.6387 65.3896C41.9307 64.0048 41.5794 62.3098 40.9223 61.069C40.3155 59.9225 39.2478 59.0637 38.0387 58.5962C36.7293 58.0926 34.959 58.0656 33.9597 59.1851C33.2206 60.0124 34.4525 61.2353 35.1962 60.4036L35.2008 60.3946Z" fill="#EE725E"/>
<path d="M21.4901 65.8707C22.0239 68.3075 23.3973 70.578 25.341 72.174C26.4679 73.0957 27.7318 73.7431 29.0732 74.3096C30.4146 74.8761 31.7743 75.4561 33.1887 75.8428C38.2669 77.223 43.7558 75.6314 47.707 72.3179C50.1846 70.2408 51.8271 67.5297 52.1054 64.3061C52.2012 63.2 50.4538 63.209 50.3579 64.3061C49.9427 69.1078 45.5398 72.6461 41.1231 73.9904C38.997 74.6378 36.7111 74.8357 34.521 74.3861C33.207 74.1163 31.9431 73.6442 30.7066 73.1362C29.4701 72.6281 28.3112 72.1515 27.239 71.4412C25.1402 70.0519 23.7075 67.8354 23.1783 65.4166C22.941 64.333 21.2574 64.7916 21.4946 65.8752L21.4901 65.8707Z" fill="#EE725E"/>
<path d="M43.8926 73.905C46.6941 78.7022 50.6636 82.834 55.3722 85.8508C56.6042 86.6421 57.8817 87.3525 59.1638 88.0583C61.3356 89.2498 67.3401 92.4419 67.6868 92.8016C69.0009 94.1549 71.4692 94.002 72.7879 92.6577C74.1065 91.3089 74.257 89.0879 73.3582 87.4334C73.0981 86.9523 72.7468 86.5027 72.2723 86.2195C71.7384 85.9048 67.6959 84.2278 66.2815 83.5174C65.4237 83.0858 64.5158 82.7576 63.6443 82.3574C60.8474 81.0761 58.4657 79.0709 56.1342 77.0792C53.5472 74.8626 50.9556 72.6056 48.9298 69.8766C47.6249 71.6345 45.9549 73.1227 43.8881 73.9005" fill="white"/>
<path d="M43.1353 74.3366C45.9823 79.1788 49.9564 83.3466 54.6924 86.4398C58.3562 88.8316 62.3622 90.693 66.1538 92.869C66.3956 93.0084 66.642 93.1478 66.8793 93.2962C66.9659 93.3501 67.0481 93.4086 67.1348 93.4625C67.2443 93.53 67.0344 93.3816 67.0344 93.3861C67.1165 93.467 67.1986 93.5434 67.2808 93.6154C68.2024 94.4067 69.4435 94.7169 70.6434 94.5685C73.2943 94.2448 74.9962 91.8485 74.7726 89.2813C74.6631 88.0224 74.1704 86.6781 73.1803 85.8283C72.6054 85.3338 71.8434 85.0685 71.1545 84.7673C69.2336 83.922 67.3355 83.0004 65.4055 82.1866C63.8405 81.5257 62.3668 80.7838 60.9661 79.8262C59.5653 78.8686 58.3152 77.812 57.0513 76.7375C54.4232 74.494 51.7541 72.219 49.6781 69.4495C49.2674 68.901 48.5785 68.901 48.1678 69.4495C47.0044 71.0006 45.4896 72.3629 43.6463 73.0777C43.2083 73.2486 42.898 73.6532 43.0349 74.1388C43.1535 74.5479 43.6691 74.9121 44.1117 74.7412C46.4158 73.8465 48.2135 72.264 49.6781 70.3172H48.1678C49.929 72.6686 52.0507 74.6918 54.2681 76.6251C56.4856 78.5583 58.6209 80.4511 61.0847 81.9663C62.3029 82.7171 63.5896 83.2656 64.8991 83.8321C65.766 84.2098 66.6101 84.6414 67.4724 85.0236C68.4032 85.4372 69.3385 85.8418 70.2693 86.251C70.8123 86.4892 71.4601 86.6916 71.9438 87.0423C72.8472 87.7032 73.1392 89.1194 73.0206 90.158C72.9019 91.1965 72.3362 92.1497 71.3735 92.5993C70.5476 92.9859 69.4754 93.0084 68.6952 92.5139C68.2526 92.2351 67.8785 91.8754 67.4176 91.6057C64.1006 89.6544 60.6239 87.9684 57.3023 86.0217C52.0643 82.9509 47.6979 78.6707 44.6409 73.4689C44.0752 72.5112 42.5649 73.3745 43.1307 74.3366H43.1353Z" fill="#EE725E"/>
<path d="M72.3453 85.3697C71.2776 84.9786 70.0457 85.1494 69.0738 85.7069C68.102 86.2644 67.4176 87.1951 67.0024 88.2157C66.1492 90.3198 66.61 92.9859 68.686 94.2088C69.6533 94.7798 70.5339 93.2916 69.5666 92.7206C66.9978 91.201 68.8001 85.9002 71.8799 87.0287C72.3224 87.1906 72.838 86.8489 72.9567 86.4263C73.089 85.9452 72.7924 85.5316 72.3453 85.3652V85.3697Z" fill="#EE725E"/>
<path d="M62.5128 82.0022C62.3074 82.4698 61.8557 82.7845 61.4132 83.0498C59.2687 84.3267 56.7365 84.9696 54.2316 84.8707C55.8376 85.8238 57.4026 86.8444 58.9174 87.9279C59.1182 88.0718 59.3235 88.2202 59.5607 88.2921C59.7706 88.3596 59.9942 88.3641 60.2132 88.3641C60.966 88.3551 61.7371 88.2427 62.4124 87.9145C62.7591 87.7481 63.074 87.5233 63.3888 87.303C63.9728 86.8849 64.5568 86.4533 65.0222 85.9092C65.4876 85.3652 65.8252 84.6908 65.8435 83.976C65.8435 83.895 65.8435 83.8096 65.8024 83.7422C65.7614 83.6702 65.6838 83.6253 65.6062 83.5803C64.6572 83.0363 63.7082 82.4878 62.7546 81.9438" fill="#EE725E"/>
<path d="M48.2089 79.0349C50.1982 78.1896 53.0134 75.7663 53.132 75.2223C54.1905 76.5576 55.4088 77.7355 56.7411 78.7067C56.2209 79.426 52.005 81.9618 51.2294 82.3799C50.9739 82.5193 50.8461 82.4024 49.8971 81.6426C49.8058 81.5706 49.7374 81.4717 49.6735 81.3728C49.1214 80.4916 48.5739 79.6149 48.0219 78.7337" fill="#EE725E"/>
<path d="M43.9383 74.3006L44.6546 75.6135C44.7003 75.6989 44.755 75.7888 44.8463 75.8293C44.9193 75.8607 45.006 75.8517 45.0881 75.8383C46.32 75.6629 47.5428 75.4156 48.7473 75.1009C49.5047 74.9031 50.2804 74.6648 50.8826 74.1703C51.0195 74.0579 51.1518 73.923 51.1792 73.7476C51.1975 73.6038 51.1381 73.4599 51.0743 73.3295C50.837 72.8394 50.5268 72.3898 50.2211 71.9357C49.8971 71.4592 49.5732 70.9826 49.2492 70.5105C49.2264 70.4746 49.199 70.4386 49.1671 70.4161C49.0485 70.3397 48.9024 70.4521 48.8021 70.551C47.5063 71.8683 46.0097 72.9923 44.3763 73.869" fill="#EE725E"/>
<path d="M23.744 13.1597C22.2155 16.1091 20.7737 19.1034 19.4232 22.1382C18.9943 23.1048 18.57 24.085 18.3829 25.1235C18.2369 25.9373 18.2369 26.7736 18.2369 27.6008C18.2369 28.4865 18.2369 29.3678 18.2369 30.2535C18.2369 30.9683 18.3646 31.863 19.0582 32.0743C19.7791 32.2946 20.4133 31.5573 20.7281 30.8829C22.106 27.8931 21.7182 24.3547 22.9866 21.3154C23.7212 19.562 24.9622 18.0738 26.0025 16.4778C26.1074 16.3114 26.2169 16.1271 26.1759 15.9337C26.1439 15.7944 26.0436 15.6865 25.9432 15.5831C25.3409 14.9626 24.7341 14.3422 24.1318 13.7217" fill="#EE725E"/>
<path d="M29.1142 18.4425C27.6496 21.8595 26.3766 25.3573 25.2999 28.9136C25.2451 29.089 25.1995 29.2913 25.2999 29.4442C25.3957 29.588 25.5873 29.633 25.7561 29.6645C26.5957 29.8218 27.4397 29.9837 28.2793 30.1411C29.7256 27.8841 29.8214 24.9932 31.2222 22.7092C31.4868 22.2731 31.8153 21.7695 31.6146 21.2975C31.5461 21.1401 31.4275 21.0097 31.3134 20.8838C30.661 20.1825 30.0039 19.4766 29.3515 18.7752" fill="#EE725E"/>
<path d="M19.8886 6.3753C17.5662 3.92499 13.4233 3.63725 10.7678 5.71439C8.95647 7.13062 10.4256 9.30219 12.31 9.65737C14.3586 10.044 16.0605 8.88406 18.0224 8.6098L17.5571 6.95079C15.6727 7.59371 13.6058 8.38051 12.6203 10.2284C11.7807 11.7975 12.0499 13.942 13.7016 14.8997C15.5267 15.9607 17.4977 14.6524 18.6065 13.2092C19.8612 11.5727 20.5456 9.58993 20.6733 7.54875C20.7235 6.72149 19.4049 6.33484 19.0445 7.11264C18.5015 8.2771 19.3182 9.57644 20.646 9.56745C22.0832 9.55396 22.763 8.23214 23.2421 7.10815C23.7851 5.83129 24.2733 4.52295 24.474 3.14718C24.6246 2.11311 24.4832 0.849736 23.4794 0.260762C22.3615 -0.395651 21.0749 0.238283 20.4087 1.19593C19.7426 2.15357 19.2681 3.5743 19.0764 4.74775C18.8848 5.92121 19.008 7.21155 19.7517 8.23214C20.4087 9.14033 21.4672 9.79225 22.6307 9.68434C24.0223 9.55846 25.1949 8.53787 26.1211 7.58022C27.0474 6.62258 27.8458 5.35471 27.8002 3.92948C27.7637 2.82347 26.0162 2.81898 26.0527 3.92948C26.0801 4.83318 25.6147 5.58401 25.0124 6.23143C24.4101 6.87885 23.6345 7.69262 22.7585 7.92192C21.9874 8.12424 21.3532 7.6117 21.011 6.96877C20.5547 6.11453 20.7327 5.10294 20.9973 4.22172C21.1479 3.72717 21.3304 3.23261 21.5402 2.76053C21.6954 2.41434 21.8961 1.91528 22.2885 1.76242C22.9547 1.50165 22.795 2.71107 22.7357 3.04378C22.544 4.15428 22.1562 5.22882 21.7273 6.2629C21.5539 6.68103 21.3897 7.17559 21.1022 7.53526C20.9608 7.71061 20.8193 7.73309 20.6551 7.84549C20.4908 7.95789 20.7281 7.62518 20.5638 7.98486L18.935 7.54875C18.8483 8.96948 18.4057 10.3497 17.6483 11.5637C17.1236 12.4044 15.9008 14.032 14.6917 13.4655C13.6058 12.9574 13.802 11.5277 14.3723 10.7319C15.2164 9.54947 16.7175 9.0639 18.0407 8.6143C19.1266 8.24113 18.6703 6.80242 17.5753 6.95528C16.1655 7.1531 14.8742 7.97137 13.4507 8.02982C12.9077 8.0523 12.2644 7.98936 11.8674 7.57573C11.6712 7.37341 11.6393 7.31046 11.7807 7.13062C11.9404 6.9328 12.2644 6.77095 12.4834 6.64955C14.4636 5.55253 17.1282 5.96167 18.6749 7.58922C19.446 8.40299 20.6779 7.18008 19.9114 6.3708L19.8886 6.3753Z" fill="#EE725E"/>
<path d="M29.0777 55.1073C28.5485 55.1747 28.1561 55.6243 27.9051 56.0874C27.6314 56.5864 27.458 57.1394 27.3941 57.7014C27.3029 58.5197 27.4717 59.4099 28.0511 59.9989C28.6306 60.5879 29.6846 60.7542 30.3051 60.2057C30.5834 59.9584 30.7476 59.6122 30.8617 59.2615C31.172 58.3309 31.213 57.3148 30.9712 56.3616C30.8708 55.9705 30.7203 55.5793 30.4237 55.3051C30.1271 55.0308 29.6526 54.9094 29.3013 55.1118" fill="#EE725E"/>
<path d="M42.063 54.3205C41.5565 54.37 41.2052 54.86 41.0775 55.3456C40.8904 56.029 41.0045 56.7708 41.2965 57.4137C41.5885 58.0567 42.0584 58.6142 42.5831 59.0997C42.8888 59.383 43.2903 59.6617 43.6964 59.5583C44.1116 59.4549 44.3306 59.0143 44.4903 58.6232C44.5861 58.3894 44.6819 58.1511 44.7321 57.9038C44.9283 56.9192 44.3717 55.9525 43.8059 55.1163C43.6143 54.8285 43.409 54.5363 43.1124 54.361C42.8158 54.1856 42.3961 54.1586 42.1406 54.3924" fill="#EE725E"/>
</svg>
