<svg id="lead-icon-2" viewBox="0 0 80 76" fill="none" xmlns="http://www.w3.org/2000/svg" preserveAspectRatio="xMidYMid meet">
<path d="M9.04279 29.5368C9.24648 31.0995 10.1785 37.2822 10.3822 38.8511C10.4131 39.0991 10.4563 39.3658 10.6476 39.527C10.8143 39.6697 11.055 39.6883 11.2711 39.6945C29.1283 40.4324 47.0287 39.8371 64.8612 41.0029C65.0463 41.0153 65.25 41.0216 65.4043 40.9161C65.5648 40.8045 65.6266 40.5999 65.6759 40.4138C66.1944 38.51 67.7376 30.2065 68.1388 28.2779" fill="#EE725E"/>
<path d="M8.05518 29.5368C8.28973 31.3041 8.55515 33.0715 8.8144 34.8389C8.95637 35.8001 9.09834 36.7613 9.23413 37.7225C9.28351 38.0635 9.33289 38.4046 9.38227 38.7457C9.38845 38.8139 9.40079 38.8759 9.40696 38.9441C9.36993 38.6589 9.42548 39.093 9.43165 39.1116C9.49338 39.4712 9.59831 39.7999 9.83287 40.0852C10.2835 40.6247 10.9254 40.6619 11.5797 40.6929C12.4439 40.7301 13.3142 40.7611 14.1845 40.7921C15.8696 40.8479 17.5547 40.8975 19.2398 40.9347C22.6594 41.0154 26.079 41.0588 29.5048 41.096C36.2946 41.1704 43.0906 41.2014 49.8804 41.3626C53.3 41.4433 56.7196 41.5549 60.133 41.7223C60.9478 41.7595 61.7625 41.8029 62.5773 41.8525C63.3921 41.9021 64.2439 42.0386 65.0587 42.0014C66.2191 41.9456 66.5586 41.034 66.7932 40.0604C67.6882 36.2466 68.3116 32.377 69.1017 28.5446C69.3548 27.2981 67.4536 26.7648 67.2006 28.0175C66.5216 31.3289 65.9352 34.6528 65.2377 37.9581C65.1081 38.5721 64.8612 39.248 64.8118 39.8743C64.8118 39.9177 64.7192 40.1286 64.7377 40.1534L65.0648 40.0232H64.8735C64.7686 39.9611 64.3488 39.9797 64.2624 39.9797C63.4476 39.9301 62.6329 39.8805 61.8181 39.8371C58.6577 39.6635 55.4974 39.5395 52.3309 39.4526C39.5167 39.0868 26.6963 39.2542 13.8882 38.8077C13.4315 38.7891 12.9685 38.7767 12.5118 38.7581C12.2649 38.7457 11.4439 38.8573 11.2896 38.7085C11.4933 38.9007 11.339 38.4976 11.3205 38.3798C11.2958 38.2186 11.2772 38.0511 11.2526 37.8899C11.1229 36.9535 10.981 36.0109 10.8452 35.0745C10.6847 33.9893 10.5242 32.8979 10.3699 31.8126C10.302 31.3351 10.2341 30.8638 10.1662 30.3863C10.1415 30.2127 10.1168 30.0453 10.0921 29.8716C10.0798 29.8034 10.018 29.3259 10.0489 29.5492C9.97484 29.0159 9.64769 28.5632 9.0613 28.557C8.57984 28.557 8.0058 29.0159 8.07369 29.5492L8.05518 29.5368Z" fill="#EE725E"/>
<path d="M71.0581 34.9256C69.3915 34.5474 67.7187 34.1939 66.0398 33.8714C56.7192 32.0607 47.2444 31.056 37.751 30.8576C29.4921 30.684 21.1036 30.9382 12.9991 32.6684C11.2522 33.0405 9.51774 33.4869 7.80177 33.9955C6.20926 34.473 4.73402 35.0435 3.03657 34.7458C1.62922 34.4978 0.246572 33.4931 0.0243605 32.0731C-0.185506 30.7336 0.684823 29.4313 1.78354 28.6499C2.88225 27.8686 4.197 27.4717 5.43152 26.926C15.6718 22.43 19.0667 8.87402 28.7205 3.23704C34.5474 -0.161268 42.257 0.00616705 47.9234 3.65873C56.4291 9.14067 59.6265 20.9665 68.6878 25.4563C71.3173 26.7585 74.2678 27.3353 76.8171 28.7802C77.8355 29.3631 78.8417 30.1693 79.1256 31.3103C79.5515 33.0467 78.0392 34.7768 76.3294 35.2543C74.6196 35.7318 72.7926 35.3101 71.0581 34.9194V34.9256Z" fill="#F3BFB6"/>
<path d="M14.9314 45.778C27.7394 47.8058 40.5598 49.7282 53.3926 51.539C57.0344 52.0537 60.67 52.556 64.3118 53.0521C64.8426 53.1265 65.3673 52.9219 65.5278 52.3576C65.6574 51.8987 65.3673 51.2103 64.8365 51.1359C51.9914 49.3809 39.1587 47.5267 26.3444 45.5609C22.715 45.0028 19.0794 44.4385 15.4499 43.8618C14.2092 43.6633 13.6722 45.5733 14.9252 45.7718L14.9314 45.778Z" fill="#EE725E"/>
<path d="M44.1769 49.077C43.1955 51.1793 43.4609 53.821 44.8497 55.6814C45.6213 56.717 46.7077 57.5108 47.9237 57.9263C49.9174 58.6084 52.2445 58.2239 53.9172 56.9403C55.59 55.6566 56.5591 53.4986 56.4233 51.3839C56.4233 51.3281 56.4171 51.2723 56.3862 51.2289C56.343 51.1669 56.2628 51.1483 56.1887 51.1297C51.9852 50.1871 47.7262 49.4739 43.4486 49.0026" fill="#EE725E"/>
<path d="M47.2262 67.5507C47.7323 67.5507 48.5841 67.0174 48.5224 66.4345C48.4483 65.6593 47.4052 65.7647 46.8373 65.7151C46.4237 65.6779 46.004 65.6345 45.609 65.4981C44.6646 65.1694 43.9485 64.326 42.9918 64.0532C42.319 63.8609 41.603 63.9726 40.924 64.1276C39.6586 64.4191 38.3686 65.25 37.1958 64.9834C36.1279 64.7415 35.2082 64.0408 34.0539 63.8671C32.8997 63.6935 31.8071 63.7493 30.7208 64.0036C30.3628 64.0904 27.9555 65.312 27.8814 65.2748C29.3258 66.0438 30.8504 66.6515 32.4244 67.0856C30.7763 67.3833 29.1344 67.6871 27.4864 67.9848C26.795 68.1088 26.0852 68.2453 25.4803 68.5987C24.9926 68.884 24.5853 69.2995 24.0791 69.5475C23.0977 70.0312 21.9372 69.808 20.8694 69.5785C22.4681 71.073 24.1347 72.5428 26.1222 73.4605C28.1098 74.3783 30.4739 74.6698 32.4614 73.7706C34.2021 72.983 35.4366 71.4079 36.6032 69.8886C37.1279 70.5645 37.3501 71.4699 37.2081 72.3133C36.7637 71.8482 37.5044 71.0482 38.1278 71.2157C38.7513 71.3831 39.0908 72.0342 39.3623 72.6234C39.3068 72.2203 39.2574 71.811 39.2019 71.4079C41.2573 73.3923 43.6461 75.3333 46.4855 75.5752C49.9236 75.8666 53.016 73.6218 55.627 71.3583C54.8863 71.2033 54.1333 71.5071 53.374 71.5133C51.8926 71.5319 50.6643 70.4529 49.5162 69.5103C48.3681 68.5677 46.9175 67.6623 45.4979 68.0902C45.9485 67.6747 46.6274 67.6685 47.2262 67.5569V67.5507Z" fill="#EE725E"/>
<path d="M44.4671 9.99653C44.0658 9.35159 43.4116 8.9113 42.7634 8.51442C41.9116 7.99351 41.0043 7.4912 40.0043 7.42919C39.6031 7.40439 39.2019 7.4602 38.8007 7.53461C38.1402 7.65864 37.4983 7.85708 36.881 8.12374C36.1341 8.44 35.4119 8.86789 34.9058 9.50662C34.3996 10.1454 34.1466 11.0197 34.3935 11.7949C34.6218 12.508 35.2268 13.029 35.8255 13.4817C36.1712 13.7421 36.5353 14.0026 36.9489 14.139C36.9427 14.6723 36.8563 15.2366 36.8748 15.7637C36.8872 16.08 36.8563 15.9808 37.1032 16.0242C37.3193 16.0676 37.5723 16.0614 37.8007 16.0738C37.8501 16.0738 37.9056 16.0738 37.9427 16.0428C37.9735 16.0118 37.9859 15.9684 37.9921 15.925C38.0908 15.342 38.1834 14.7653 38.2822 14.1824C38.3748 14.1018 38.5352 14.139 38.6155 14.2382C38.6957 14.3312 38.7266 14.4615 38.7513 14.5855C38.8439 15.063 38.9365 15.5405 39.029 16.018C39.313 16.0862 39.6031 16.1296 39.8932 16.1544C39.9981 15.5963 40.1031 15.032 40.208 14.4739C40.3685 14.3684 40.5475 14.5917 40.603 14.7777C40.7512 15.28 40.8253 15.8009 40.8129 16.328H41.7882C41.8314 15.9374 41.8684 15.5467 41.9116 15.156C41.9116 15.1002 41.924 15.0382 41.9548 14.9948C41.998 14.9266 42.0721 14.8955 42.1462 14.8645C42.5104 14.7219 42.8807 14.5731 43.2449 14.4305C43.4548 14.3498 43.6646 14.263 43.8436 14.1204C43.998 13.9964 44.1214 13.8289 44.2325 13.6553C44.9238 12.5701 45.1522 11.088 44.4732 9.99032L44.4671 9.99653ZM38.6217 12.5267C38.5661 12.7375 38.4365 12.9359 38.2328 13.0228C38.1402 13.06 38.0353 13.0786 37.9365 13.0724C37.5168 13.0724 37.1032 12.8305 36.8933 12.4646C36.6835 12.0988 36.6773 11.6213 36.8933 11.2554C36.9366 11.1748 36.9921 11.1004 37.06 11.0383C37.4674 10.6415 38.2451 10.8151 38.5538 11.2678C38.671 11.4414 38.671 11.6647 38.6772 11.8755C38.6772 12.0926 38.6772 12.3158 38.6278 12.5267H38.6217ZM42.319 12.3406C42.2696 12.5081 42.1709 12.6569 42.0598 12.7933C41.9672 12.9049 41.8622 13.0228 41.7265 13.0724C41.6524 13.0972 41.5783 13.1096 41.5042 13.1096C41.2759 13.1158 41.0536 13.0786 40.8438 12.9918C40.7512 12.9545 40.6586 12.9049 40.5845 12.8305C40.4302 12.6693 40.4117 12.4212 40.4364 12.198C40.5413 11.3794 41.603 10.8337 42.1832 11.6337C42.3314 11.8321 42.3869 12.105 42.319 12.3406Z" fill="white"/>
<path d="M32.7515 13.7669C33.1157 13.6677 33.4799 13.5933 33.8564 13.5499C33.9675 14.1638 34.1219 14.7777 34.3009 15.373C34.3873 15.6521 34.486 15.9436 34.6774 16.1668C34.8564 16.3777 35.1095 16.5203 35.3502 16.6567C36.381 17.2334 37.4118 17.804 38.4426 18.3807C38.813 18.5853 39.2019 18.7962 39.6216 18.79C40.1524 18.7838 40.6154 18.4365 41.0475 18.1202C41.961 17.4505 42.9239 16.8552 43.93 16.3404C44.0905 16.2598 44.2572 16.173 44.3868 16.0428C44.5535 15.8691 44.6337 15.6335 44.714 15.4041C44.8251 15.0692 44.9362 14.7405 45.0473 14.4056C45.0843 14.294 45.1275 14.17 45.2263 14.1018C45.3189 14.0398 45.43 14.0398 45.5411 14.0398C45.862 14.0398 46.1768 14.0398 46.4978 14.0398C46.2694 14.9762 45.9855 15.894 45.6584 16.7993C46.6274 16.9048 47.5965 17.066 48.5471 17.2892C48.3804 17.8846 48.1829 18.4675 47.9484 19.038C47.3249 18.7776 46.6953 18.5357 46.0534 18.3125C45.8559 18.2442 45.6522 18.176 45.4485 18.1884C45.2078 18.2008 44.9855 18.3125 44.7695 18.4179C43.8004 18.9078 42.8375 19.3977 41.8684 19.8876C42.4486 20.2101 43.0288 20.5387 43.6091 20.8612C43.8868 21.0162 44.1769 21.1775 44.4917 21.2271C44.7448 21.2705 45.0041 21.2395 45.2571 21.2085C46.0781 21.1092 46.899 21.0162 47.7138 20.917C47.7508 21.1713 47.7817 21.4193 47.8187 21.6736C47.8311 21.7604 47.8434 21.8534 47.7941 21.9278C47.757 21.9898 47.6829 22.027 47.615 22.058C47.0163 22.3309 46.3991 22.5665 45.7633 22.7526C45.8929 23.5277 45.9732 24.3153 46.0102 25.1029C45.6213 25.1029 45.2386 25.1649 44.8683 25.2827C44.7263 24.6688 44.5905 24.0611 44.4485 23.4471C44.3992 23.2425 44.3498 23.0254 44.214 22.858C44.109 22.734 43.9732 22.6472 43.8313 22.5603C42.7202 21.8906 41.603 21.2147 40.4549 20.6131C40.0784 20.4147 39.6586 20.2225 39.2451 20.3217C39.0476 20.3713 38.8685 20.4829 38.6957 20.5945C37.4612 21.3821 36.2205 22.1697 34.986 22.951C34.8317 23.627 34.591 24.2843 34.2638 24.892C33.7453 24.7122 33.196 24.613 32.6466 24.6006C32.7207 24.0176 32.912 23.4533 33.2083 22.951C33.2639 22.8518 33.3318 22.734 33.2824 22.6348C33.2454 22.5541 33.1528 22.5107 33.0663 22.4797C32.4923 22.2689 31.9183 22.058 31.338 21.8472C31.4491 21.5495 31.5602 21.2457 31.6775 20.948C31.8195 20.5697 31.8318 20.5511 32.2331 20.6131C32.8935 20.7186 33.554 20.8364 34.2206 20.948C34.3379 20.9666 34.4613 20.9914 34.5848 20.9728C34.7761 20.948 34.949 20.8426 35.1156 20.7372C35.9242 20.2225 36.7328 19.714 37.5414 19.1992C36.7822 18.6411 35.986 18.0644 35.0663 17.8722C34.412 17.7357 33.733 17.804 33.0725 17.8908C32.5108 17.9652 31.9553 18.0582 31.3998 18.1636C31.3442 17.7047 31.2887 17.2458 31.2269 16.7931C31.9491 16.7497 32.7392 16.7311 33.4429 16.5575C33.2947 16.1792 33.2762 15.8567 33.196 15.4599C33.0725 14.8893 32.8935 14.325 32.7454 13.7607L32.7515 13.7669Z" fill="white"/>
</svg>
