<svg id="girl-cover" viewBox="0 0 284 499" fill="none" xmlns="http://www.w3.org/2000/svg">
<path d="M71.0385 209.492C63.0277 205.14 52.0622 206.331 44.7782 211.618C37.4943 216.905 33.9234 225.708 34.6976 234.085C35.4718 242.463 40.2751 250.301 47.0219 256.113C53.7687 261.925 62.3641 265.837 71.3229 268.275" fill="white"/>
<path d="M73.0293 206.43C66.2352 202.872 57.6714 202.348 50.3242 204.828C42.977 207.309 36.8623 212.539 33.6548 219.145C26.7816 233.32 32.8332 249.323 45.2049 259.402C52.3624 265.242 61.1158 269.14 70.2959 271.677C75.1624 273.024 77.248 266.177 72.3973 264.845C59.2356 261.216 46.4373 254.015 40.9546 242.193C36.2145 231.973 38.6319 218.323 50.182 212.624C55.9807 209.761 63.2963 209.534 69.0634 212.554C73.4559 214.864 77.4376 208.741 73.0451 206.43H73.0293Z" fill="#FADCDC"/>
<path d="M129.136 416.12C109.955 426.44 82.3515 433.839 59.9623 433.541C49.3445 433.4 38.3316 429.133 32.8331 420.968C27.3346 412.817 29.0094 400.74 37.8734 395.481C23.5583 395 9.81197 387.189 3.20742 375.778C0.552955 371.2 -0.995481 365.785 0.72676 360.866C2.4806 355.848 7.41032 352.134 12.8298 350.136C18.2494 348.137 24.1745 347.584 30.0048 347.06C24.3641 342.836 18.597 338.484 15.0893 332.701C11.5816 326.917 10.7916 319.305 15.1209 313.99C17.4752 311.098 21.0144 309.198 24.6011 307.639C33.8443 303.614 43.925 301.317 53.0734 297.121C62.2218 292.926 70.754 286.221 72.9977 277.22C74.6093 270.784 72.7923 264.065 73.3295 257.488C73.3927 256.638 73.5349 255.73 74.1669 255.078C75.1149 254.129 76.7581 254.143 78.1644 254.256C102.971 256.227 127.035 265.157 146.138 279.488C151.383 283.428 156.281 287.78 160.168 292.826C168.211 303.302 171.434 316.201 172.445 328.887C173.788 345.6 171.56 362.695 164.434 378.188C157.308 393.681 145.126 407.488 129.121 416.106L129.136 416.12Z" fill="#FADCDC"/>
<path d="M360.343 285.881C368.386 290.544 377.739 293.493 384.802 299.304C391.865 305.116 395.863 315.464 390.048 322.296C406.781 323.714 421.838 335.252 426.057 349.838C427.463 354.686 427.669 360.073 425.014 364.481C422.36 368.889 416.213 371.824 410.983 370.08C419.942 371.342 427.258 377.735 430.939 385.176C434.621 392.618 435.19 400.982 434.937 409.132C434.858 411.599 434.7 414.108 433.799 416.446C430.592 424.866 419.516 428.268 409.767 429.913C396.463 432.166 382.938 433.272 369.397 433.23C362.682 433.215 355.777 432.861 349.662 430.366C343.137 427.701 338.112 422.825 333.451 417.949C311.741 395.255 293.666 369.584 282.1 341.546C270.534 313.508 265.604 283.06 269.87 253.406C271.119 244.759 273.22 235.985 278.371 228.586C283.522 221.186 292.18 215.304 301.898 214.907C309.909 214.581 322.012 218.961 327.226 224.546C336.959 234.964 331.95 245.27 336.343 257.446C340.498 268.956 348.967 279.289 360.327 285.881H360.343Z" fill="#FADCDC"/>
<path d="M78.0064 494.891C77.4692 480.064 80.2659 465.279 85.006 451.118C89.1457 438.744 91.1681 426.071 95.5922 413.654C104.899 387.544 119.309 362.893 138.048 341.22L286.081 319.589C300.112 335.196 325.203 374.035 331.271 385.843C348.003 418.332 362.966 451.544 376.096 485.337" fill="white"/>
<path d="M81.9565 494.891C81.5931 483.848 83.0151 472.877 85.8118 462.132C87.2022 456.76 89.0983 451.515 90.6309 446.171C92.1635 440.827 93.5066 435.2 94.9128 429.714C100.111 409.501 108.722 390.166 120.004 372.079C126.166 362.199 133.118 352.687 140.844 343.729L139.106 344.636C143.989 343.927 148.871 343.204 153.769 342.496L189.178 337.322L231.855 331.085C244.211 329.285 256.566 327.47 268.922 325.67L281.089 323.898C283 323.615 285.007 323.459 286.887 323.047C286.966 323.033 287.061 323.019 287.156 323.005L283.316 322.098C284.549 323.473 285.497 324.593 286.935 326.364C288.373 328.136 289.905 330.092 291.343 331.992C294.551 336.216 297.647 340.497 300.681 344.82C306.922 353.708 312.911 362.752 318.646 371.909C331.776 392.888 341.983 415.341 351.985 437.638C359.19 453.712 365.968 469.929 372.336 486.286C373.031 488.087 375.038 489.292 377.202 488.767C379.161 488.285 380.663 486.23 379.967 484.401C368.512 454.946 355.682 425.929 341.525 397.438C337.085 388.508 332.535 379.733 327.257 371.172C321.648 362.085 315.77 353.127 309.656 344.296C303.209 334.969 296.605 325.642 288.926 317.08C288.009 316.045 286.398 315.974 285.086 316.173C275.4 317.59 265.699 319.008 256.013 320.425C235.994 323.345 215.991 326.279 195.972 329.199L145.743 336.542C142.914 336.953 139.833 337.123 137.052 337.818C135.172 338.286 134.098 340.114 132.992 341.432C131.585 343.091 130.211 344.764 128.868 346.45C126.04 349.994 123.306 353.609 120.699 357.294C115.738 364.311 111.187 371.554 107.063 378.996C98.4521 394.574 91.6895 410.904 87.3286 427.857C86.191 432.251 85.1324 436.66 83.9631 441.04C82.7939 445.42 81.2455 449.942 79.8867 454.407C77.2006 463.252 75.3203 472.324 74.4829 481.467C74.0721 485.946 73.9457 490.426 74.0879 494.919C74.2301 499.412 82.1461 499.483 81.9881 494.919L81.9565 494.891Z" fill="#FADCDC"/>
<path d="M120.762 488.866C121.758 466.838 129.8 445.717 139.091 425.504C141.761 419.706 144.558 413.951 147.354 408.196C148.207 406.439 147.923 404.397 145.932 403.348C144.257 402.47 141.382 402.852 140.528 404.624C130.337 425.589 119.956 446.851 115.327 469.475C114.015 475.882 113.162 482.36 112.862 488.866C112.657 493.43 120.557 493.416 120.762 488.866Z" fill="#FADCDC"/>
<path d="M70.1695 238.083C74.9254 269.338 91.8318 298.567 115.169 322.154C124.807 331.907 135.899 340.964 149.456 345.656C159.284 349.058 169.933 349.98 180.44 350.377C211.14 351.539 243.752 347.825 268.101 331.014C276.254 325.386 283.19 318.483 289.953 311.523C297.821 303.415 305.579 295.123 311.568 285.81C319.594 273.336 324.239 259.359 327.747 245.298C334.178 219.485 336.88 192.397 329.975 166.683C323.07 140.97 305.579 116.731 279.382 104.597C265.051 97.9629 248.84 95.1846 232.755 94.3341C222.374 93.7813 211.82 94.0081 201.818 96.5313C192.717 98.8276 184.343 102.938 176.064 107.021C156.977 116.419 137.874 125.831 119.087 135.725C99.1473 146.229 85.401 157.668 77.2796 177.385C69.3478 196.649 67.0568 217.741 70.1537 238.068L70.1695 238.083Z" fill="white"/>
<path d="M66.3616 239.018C70.2169 263.938 81.6721 287.695 97.8201 308.164C105.973 318.511 115.201 328.576 126.024 336.797C131.38 340.865 137.179 344.522 143.546 347.201C150.514 350.136 157.877 351.851 165.477 352.786C179.808 354.544 194.661 354.587 209.055 353.368C222.833 352.205 236.484 349.654 249.267 344.82C262.681 339.745 274.105 332.105 284.122 322.665C294.14 313.224 304.9 302.21 312.974 290.658C321.048 279.105 326.23 265.837 329.928 252.555C333.625 239.273 336.516 224.574 337.559 210.356C339.471 184.487 335 157.866 320.068 135.328C313.574 125.519 305.232 116.603 295.183 109.586C283.775 101.62 270.518 96.4037 256.408 93.6396C241.477 90.7054 225.392 89.5289 210.208 91.4283C194.25 93.4128 180.456 100.855 166.583 107.687C152.158 114.803 137.748 121.947 123.496 129.361C112.388 135.13 101.359 141.14 92.29 149.404C72.7607 167.208 65.4452 193.701 64.9237 218.039C64.7815 224.744 65.2397 231.449 66.2352 238.083C66.5196 239.982 67.8468 241.626 70.1853 241.626C72.0971 241.626 74.4198 239.996 74.1354 238.083C72.1761 225.013 72.3183 211.646 74.9412 198.662C77.3112 186.982 81.2771 175.202 88.3873 165.11C94.2018 156.846 102.197 150.07 111.092 144.514C123.038 137.072 136.12 130.962 148.792 124.612C155.807 121.097 162.854 117.609 169.886 114.137C176.538 110.848 183.142 107.446 189.984 104.469C196.825 101.493 203.54 99.4514 210.84 98.4308C218.14 97.4102 225.961 97.5094 233.482 97.9346C247.608 98.7284 262.002 101.067 274.863 106.553C285.939 111.259 295.546 118.176 303.478 126.526C320.353 144.301 328.458 167.491 329.849 190.54C330.67 204.233 329.406 217.982 326.815 231.477C324.224 244.972 320.937 257.658 315.612 270.047C310.288 282.436 302.23 293.081 292.828 303.131C283.696 312.87 274.279 323.047 262.507 330.319C240.719 343.785 213.495 347.301 187.582 346.989C173.567 346.819 158.81 346.167 146.059 340.412C134.003 334.983 124.286 326.265 115.596 317.165C98.2625 299.007 84.848 277.574 77.9116 254.455C76.2052 248.756 74.8938 242.959 73.9932 237.104C73.693 235.205 70.9911 234.17 69.1266 234.624C66.8514 235.191 66.0772 237.076 66.3616 238.99V239.018Z" fill="#FADCDC"/>
<path d="M280.393 396.275C296.747 416.531 309.672 438.956 318.441 462.713C320.937 469.475 323.102 476.336 324.935 483.267C326.104 487.704 333.735 485.819 332.55 481.382C325.978 456.576 315.138 432.662 300.539 410.79C296.399 404.582 291.944 398.557 287.219 392.703C285.971 391.158 283.791 390.393 281.815 391.427C280.109 392.321 279.145 394.716 280.393 396.275Z" fill="#FADCDC"/>
<path d="M107.98 214.056C145.553 205.424 179.366 184.26 201.36 155.613C207.68 147.391 213.131 138.362 214.885 128.51C215.896 135.683 220.147 142.132 224.492 148.213C237.164 165.975 251.795 182.914 270.328 195.884C279.366 202.206 289.368 207.507 300.033 211.306C308.313 214.255 324.935 220.251 333.593 216.82C351.59 209.69 355.461 181.057 349.994 166.882C347.924 161.495 344.717 156.52 340.972 151.913C334.81 144.301 327.241 137.724 319.641 131.26C307.523 120.969 295.056 110.82 280.662 103.265C266.268 95.7094 249.646 90.8473 233.008 92.0097C223.48 92.6759 214.253 95.2841 205.231 98.1333C157.861 113.102 112.483 136.108 80.1079 170.553C77.0742 173.785 74.1037 177.173 72.4605 181.128C70.0272 186.925 70.7382 193.077 71.07 199.116C71.2596 202.659 66.5511 213.702 68.937 216.834C74.9411 224.702 99.8425 215.927 107.995 214.042L107.98 214.056Z" fill="#FADCDC"/>
<path d="M50.0082 236.382C52.4572 236.991 54.8905 237.714 57.2448 238.565C57.5292 238.664 57.8136 238.777 58.098 238.876C58.3666 238.976 58.256 238.933 57.7662 238.749C57.9242 238.805 58.0822 238.876 58.256 238.933C58.8248 239.16 59.3778 239.387 59.9308 239.613C61.1158 240.124 62.3009 240.648 63.4543 241.215C65.2713 242.094 67.8468 241.669 68.858 239.94C69.8693 238.21 69.3794 236.041 67.436 235.092C62.5853 232.724 57.4186 230.853 52.1096 229.535C50.1188 229.039 47.7171 230.145 47.2431 232.016C46.7691 233.887 47.8751 235.843 50.0082 236.382Z" fill="#FADCDC"/>
<path d="M166.172 316.031C174.705 322.721 185.639 326.676 196.999 326.832C203.272 326.917 209.529 325.783 215.533 324.252C220.921 322.877 226.309 321.332 231.46 319.348C237.037 317.193 241.872 314.16 245.554 309.794C246.833 308.263 245.822 305.825 244.132 304.946C242.109 303.883 240.023 304.691 238.728 306.222C235.473 310.077 230.227 312.345 225.297 314.004C219.151 316.059 212.768 317.859 206.321 318.979C194.029 321.105 181.262 318.497 171.75 311.041C170.138 309.78 167.737 309.624 166.157 311.041C164.719 312.331 164.545 314.783 166.157 316.059L166.172 316.031Z" fill="#FADCDC"/>
<path d="M165.983 351.582C170.233 360.767 174.594 370.023 181.894 377.65C188.514 384.553 197.694 389.287 207.664 391.002C217.65 392.718 228.015 391.725 237.227 387.799C246.438 383.872 253.185 377.324 257.514 369.556C262.523 360.569 264.103 350.235 261.37 340.454C260.137 336.032 252.522 337.903 253.754 342.34C257.736 356.656 250.294 372.929 236.01 380.357C221.727 387.785 201.692 385.559 189.857 374.956C182.099 368.011 177.738 358.641 173.599 349.711C172.777 347.939 170.976 346.677 168.732 347.23C166.868 347.684 165.145 349.81 165.967 351.596L165.983 351.582Z" fill="#FADCDC"/>
<path d="M178.054 228.358C197.505 226.048 217.176 225.467 236.753 226.629C238.886 226.757 240.703 224.914 240.703 223.085C240.703 221.058 238.886 219.669 236.753 219.542C217.176 218.379 197.505 218.96 178.054 221.271C175.937 221.526 174.104 222.717 174.104 224.815C174.104 226.53 175.921 228.614 178.054 228.358Z" fill="#FADCDC"/>
<path d="M205.373 224.092C204.109 231.704 205.168 239.217 208.644 246.262C209.418 247.835 210.35 249.323 211.33 250.798C211.867 251.606 213.621 253.675 213.147 254.738C212.278 256.652 208.96 254.129 208.186 253.377C204.741 250.004 199.164 255.036 202.592 258.395C206.037 261.769 211.33 263.598 216.165 261.485C221.411 259.189 221.869 253.959 219.641 249.678C218.677 247.807 217.318 246.106 216.291 244.263C215.264 242.42 214.443 240.421 213.842 238.38C212.657 234.369 212.31 230.088 212.989 225.977C213.305 224.092 212.468 222.164 210.224 221.611C208.36 221.158 205.673 222.178 205.357 224.092H205.373Z" fill="#FADCDC"/>
<path d="M82.3041 216.594C92.843 214.921 103.382 213.248 113.921 211.59C116.085 211.25 118.345 210.867 120.099 209.662C122.342 208.117 123.29 205.537 124.207 203.142C127.999 193.148 133.134 183.552 139.438 174.636C143.215 184.459 147.007 194.296 150.783 204.12C151.368 205.636 152.031 207.252 153.469 208.216C154.496 208.897 155.792 209.152 157.04 209.393C167.926 211.462 178.829 213.546 189.715 215.616C180.914 223.426 172.113 231.251 163.313 239.061C161.97 240.252 160.563 241.527 160.089 243.172C159.694 244.533 159.995 245.964 160.295 247.353C162.333 256.751 164.387 266.135 166.425 275.533C159.363 269.48 151.636 264.051 143.388 259.345C141.224 258.112 138.917 256.907 136.373 256.737C133.276 256.539 130.353 257.928 127.635 259.274C117.571 264.236 107.506 269.211 97.4251 274.172C99.1947 264.576 100.964 254.979 102.718 245.383C103.018 243.781 103.303 242.123 102.845 240.549C102.45 239.245 101.565 238.111 100.68 237.034C94.7232 229.762 87.7869 223.142 80.0605 217.373" fill="white"/>
<path d="M83.347 220.01L105.704 216.466C112.514 215.389 121.062 215.36 125.297 209.676C127.082 207.281 127.872 204.318 128.963 201.639C130.116 198.79 131.38 195.969 132.771 193.205C135.678 187.407 139.059 181.808 142.851 176.422L135.63 175.571C137.906 181.468 140.165 187.365 142.44 193.262C143.531 196.097 144.621 198.946 145.711 201.781C146.738 204.431 147.512 207.408 149.519 209.634C151.747 212.1 155.002 212.625 158.272 213.248C161.543 213.872 164.861 214.496 168.148 215.134C174.989 216.438 181.831 217.742 188.672 219.046L186.934 213.121C181.989 217.515 177.027 221.909 172.082 226.303C169.522 228.586 166.947 230.868 164.387 233.136C162.064 235.191 159.426 237.161 157.624 239.628C155.634 242.321 155.886 245.284 156.518 248.303C157.15 251.322 157.861 254.483 158.541 257.588C159.916 263.895 161.274 270.189 162.649 276.497L169.254 273.052C164.166 268.715 158.778 264.689 153.106 261.004C148.018 257.687 141.761 252.881 135.093 253.236C131.696 253.42 128.615 254.809 125.676 256.241C122.232 257.928 118.819 259.629 115.374 261.316C108.738 264.59 102.102 267.864 95.4658 271.139L101.265 275.136C102.355 269.197 103.445 263.258 104.551 257.318C105.104 254.341 105.641 251.379 106.194 248.402C106.747 245.425 107.585 242.491 106.684 239.628C105.831 236.92 103.698 234.709 101.818 232.526C99.9373 230.343 98.0255 228.274 95.9872 226.233C91.9266 222.164 87.5341 218.38 82.8729 214.878C81.2455 213.645 78.8912 213.447 77.2796 214.878C75.8734 216.14 75.6364 218.649 77.2796 219.896C81.5773 223.128 85.6538 226.601 89.4459 230.315C91.3419 232.172 93.159 234.085 94.9128 236.056C96.3033 237.629 98.4679 239.529 99.0525 241.513C99.6687 243.625 98.5627 246.474 98.1835 248.572C97.6779 251.308 97.1723 254.058 96.6667 256.794C95.6554 262.279 94.6442 267.765 93.633 273.237C93.08 276.213 96.2085 278.822 99.4317 277.234C105.61 274.186 111.788 271.139 117.966 268.091C120.936 266.617 123.922 265.157 126.893 263.683C129.342 262.478 131.996 260.749 134.825 260.337C137.289 259.969 139.422 261.273 141.413 262.393C144.036 263.881 146.596 265.44 149.092 267.085C154.227 270.43 159.062 274.116 163.644 278.028C166.631 280.565 170.992 277.985 170.249 274.583C169.001 268.857 167.753 263.13 166.504 257.403C165.856 254.427 165.209 251.45 164.561 248.473C164.087 246.29 163.202 244.405 165.003 242.59C169.175 238.366 174.009 234.553 178.497 230.584C182.984 226.615 187.851 222.278 192.528 218.124C194.55 216.324 193.728 212.766 190.789 212.199C184.454 210.994 178.118 209.79 171.797 208.585C168.764 208.003 165.714 207.422 162.681 206.855C161.164 206.572 159.631 206.288 158.114 205.991C157.182 205.806 156.155 205.736 155.539 205.069C154.844 204.332 154.575 203.085 154.243 202.206C153.69 200.788 153.153 199.371 152.6 197.953C151.589 195.331 150.578 192.709 149.566 190.086C147.465 184.629 145.363 179.172 143.262 173.7C142.156 170.808 137.921 170.199 136.041 172.85C132.439 177.953 129.215 183.254 126.403 188.74C124.965 191.561 123.606 194.438 122.374 197.33C121.331 199.754 120.588 202.334 119.388 204.687C118.187 207.04 116.338 207.592 113.541 208.06C109.986 208.656 106.415 209.194 102.86 209.747C95.6554 210.881 88.4663 212.029 81.2613 213.163C79.1599 213.489 77.9748 215.8 78.4962 217.529C79.1125 219.514 81.2455 220.336 83.3628 220.01H83.347Z" fill="#FADCDC"/>
<path d="M139.17 216.976C132.897 224.39 126.798 231.903 120.841 239.529C119.656 241.045 120.478 243.526 122.263 244.377C124.286 245.34 126.403 244.731 127.667 243.101C133.608 235.475 139.723 227.962 145.995 220.548C147.244 219.06 146.311 216.523 144.573 215.701C142.488 214.708 140.513 215.389 139.17 216.976Z" fill="#FADCDC"/>
<path d="M142.077 234.241C140.418 235.092 138.838 236.183 137.542 237.459C136.247 238.735 135.093 240.167 134.287 241.74C134.003 242.151 133.845 242.591 133.813 243.058C133.703 243.526 133.719 243.994 133.877 244.476C134.129 245.298 134.84 246.191 135.694 246.588C136.61 247.027 137.716 247.24 138.743 246.942C139.659 246.673 140.686 246.134 141.097 245.312C141.587 244.348 142.203 243.455 142.914 242.619L142.298 243.342C143.088 242.435 144.005 241.612 145.016 240.904L144.21 241.457C144.795 241.06 145.395 240.691 146.043 240.365C146.896 239.926 147.591 239.089 147.86 238.253C148.128 237.417 148.002 236.268 147.465 235.517C146.928 234.766 146.106 234.1 145.111 233.887C144.115 233.674 143.009 233.76 142.061 234.241H142.077Z" fill="#FADCDC"/>
<path d="M224.413 210.073L248.445 231.917C249.409 232.782 250.388 233.703 250.783 234.879C251.163 235.999 250.941 237.19 250.689 238.338C248.571 248.417 245.127 258.268 240.434 267.609C253.454 265.186 265.999 260.735 277.36 254.54C278.892 253.704 280.52 252.797 282.321 252.839C283.854 252.868 285.244 253.59 286.555 254.285C294.787 258.637 303.019 263.003 311.251 267.354C310.872 258.112 310.509 248.87 310.13 239.628C310.051 237.743 309.987 235.801 310.683 234.015C311.599 231.648 313.716 229.847 315.755 228.146C321.885 223.043 328 217.955 334.13 212.852C324.066 211.193 314.016 209.52 303.952 207.862C302.624 207.635 301.218 207.394 300.16 206.643C298.911 205.75 298.327 204.332 297.805 202.972C293.729 192.397 289.652 181.808 285.576 171.234C279.588 180.448 273.599 189.661 267.611 198.875C266.568 200.491 265.43 202.178 263.645 203.128C262.128 203.936 260.311 204.12 258.557 204.276C247.671 205.296 236.768 206.317 225.882 207.338" fill="white"/>
<path d="M221.632 212.582L235.283 224.999L241.84 230.953C242.931 231.945 244.021 232.937 245.111 233.93C245.68 234.454 246.77 235.177 247.007 235.928C247.292 236.807 246.723 238.182 246.549 239.004C246.233 240.393 245.901 241.782 245.538 243.157C244.874 245.709 244.116 248.232 243.278 250.741C241.556 255.887 239.486 260.919 237.037 265.823C235.631 268.658 237.938 271.706 241.493 271.025C253.786 268.701 265.683 264.647 276.601 259.048C278.308 258.169 281.057 255.83 283.127 256.624C286.05 257.743 288.831 259.6 291.58 261.046C297.474 264.165 303.367 267.283 309.261 270.402C311.773 271.734 315.312 270.047 315.202 267.34C314.98 262.024 314.775 256.709 314.554 251.393C314.459 248.856 314.348 246.304 314.254 243.767C314.159 241.23 313.748 238.721 314.111 236.297C314.412 234.341 315.849 232.966 317.366 231.633C319.436 229.833 321.601 228.104 323.718 226.332C328.126 222.675 332.519 219.003 336.927 215.346C338.997 213.631 338.096 209.903 335.189 209.421C328.869 208.372 322.549 207.323 316.229 206.288C313.005 205.75 309.782 205.225 306.559 204.687C304.426 204.332 302.656 204.474 301.819 202.532C299.591 197.372 297.774 192.043 295.751 186.812C293.634 181.298 291.501 175.798 289.384 170.284C288.309 167.477 283.948 166.684 282.163 169.433C278.845 174.536 275.527 179.654 272.209 184.757L267.326 192.269C265.857 194.523 264.561 197.146 262.713 199.173C261.101 200.93 258.146 200.76 255.824 200.987C252.585 201.285 249.346 201.596 246.107 201.894C239.36 202.532 232.629 203.156 225.882 203.794C223.765 203.992 221.932 205.282 221.932 207.337C221.932 209.095 223.749 211.08 225.882 210.881C233.15 210.201 240.403 209.52 247.671 208.84C251.036 208.528 254.418 208.202 257.783 207.89C261.148 207.578 264.704 207.196 267.437 204.97C269.775 203.071 271.213 200.349 272.778 197.953L278.055 189.845C281.705 184.232 285.339 178.633 288.989 173.02L281.768 172.169C284.059 178.123 286.35 184.076 288.657 190.016C289.763 192.879 290.869 195.742 291.975 198.606C293.002 201.285 293.808 204.247 295.309 206.756C296.81 209.265 299.322 210.598 302.34 211.165C305.611 211.774 308.913 212.256 312.199 212.795C319.167 213.943 326.135 215.105 333.088 216.253L331.35 210.328C326.752 214.155 322.17 217.969 317.572 221.796C313.448 225.226 307.933 228.756 306.606 233.944C305.927 236.594 306.195 239.33 306.29 242.023C306.385 244.717 306.511 247.566 306.622 250.344C306.843 256 307.08 261.67 307.301 267.326L313.242 264.264C307.017 260.961 300.792 257.673 294.566 254.37C291.58 252.782 288.562 250.812 285.276 249.749C281.989 248.686 278.639 249.678 275.669 251.28C264.372 257.347 252.3 261.713 239.407 264.151L243.863 269.353C246.581 263.895 248.982 258.31 250.894 252.584C251.874 249.664 252.743 246.701 253.485 243.724C254.181 240.946 255.287 237.799 254.813 234.936C254.323 231.917 251.874 229.946 249.598 227.877L242.22 221.172C237.211 216.622 232.202 212.072 227.209 207.522C223.638 204.276 218.045 209.279 221.616 212.54L221.632 212.582Z" fill="#FADCDC"/>
<path d="M278.276 211.873C273.141 220.151 268.448 228.642 264.198 237.317C263.345 239.075 263.629 241.116 265.62 242.165C267.295 243.044 270.155 242.661 271.024 240.889C275.274 232.214 279.967 223.723 285.102 215.445C286.145 213.773 285.56 211.576 283.68 210.597C281.8 209.619 279.319 210.186 278.276 211.873Z" fill="#FADCDC"/>
<path d="M287.409 229.266C285.797 231.988 284.185 234.695 282.574 237.417C282.084 238.253 281.894 239.231 282.179 240.152C282.432 240.975 283.143 241.868 283.996 242.264C285.829 243.129 288.357 242.746 289.4 240.989C291.011 238.267 292.623 235.56 294.234 232.838C294.724 232.002 294.914 231.024 294.629 230.102C294.377 229.28 293.666 228.387 292.812 227.99C290.98 227.126 288.452 227.508 287.409 229.266Z" fill="#FADCDC"/>
<path d="M164.008 131.544C147.512 139.567 103.65 151.431 93.6014 152.863C93.238 152.92 92.8746 153.047 92.527 152.948C91.8792 152.764 84.8796 110.409 82.2251 98.4735L66.33 26.8757C69.2214 26.1528 72.2867 27.0175 75.0992 27.9672C115.422 41.4618 146.754 70.4354 184.548 88.8912C190.995 92.0381 198.2 95.5109 198.2 95.5109C197.742 101.861 187.456 120.133 164.008 131.53V131.544Z" fill="white"/>
<path d="M162.001 128.496C153.2 132.749 143.91 135.612 134.224 138.603C123.97 141.764 113.605 144.684 103.129 147.221C101.028 147.732 98.9261 148.214 96.8089 148.667C95.4658 148.951 93.8384 149.447 92.4954 149.418L94.4862 149.9C94.9602 150.311 95.4342 150.737 95.9082 151.162C96.6193 151.998 96.2242 151.899 96.003 151.034C95.8292 150.326 95.687 149.617 95.5448 148.908C95.055 146.498 94.6126 144.074 94.1702 141.665C92.8746 134.606 91.6263 127.546 90.3623 120.473C87.2812 103.35 83.5523 86.3965 79.7761 69.3865C76.5686 54.8997 73.3453 40.4271 70.1378 25.9403L67.3728 30.3062C69.8218 29.7959 72.3973 30.8306 74.6567 31.6103C76.9162 32.3899 79.2862 33.2404 81.5615 34.1476C86.1278 35.962 90.5835 37.9606 94.9602 40.1152C103.745 44.4244 112.183 49.3006 120.43 54.4036C137.226 64.7797 153.327 76.0771 170.66 85.7445C178.955 90.3655 187.598 94.4479 196.193 98.6011L194.234 95.5394C194.202 95.8796 193.95 96.5458 194.266 95.4685C194.202 95.6953 194.187 95.9221 194.123 96.1489C193.981 96.6592 193.855 97.1695 193.681 97.6798C193.476 98.3035 193.223 98.9272 192.97 99.5367C192.859 99.806 192.733 100.075 192.607 100.33C192.97 99.5367 192.385 100.756 192.322 100.883C190.679 104.059 188.609 107.049 186.302 109.87C179.982 117.581 171.387 123.903 162.001 128.51C157.545 130.707 161.527 136.817 165.983 134.634C176.617 129.403 185.939 122.217 193.112 113.457C197.299 108.339 201.581 102.046 202.134 95.5535C202.229 94.3628 201.328 93.0446 200.175 92.4917C192.543 88.8062 184.849 85.2058 177.438 81.1801C168.432 76.2897 159.773 70.9174 151.21 65.4459C134.319 54.6304 117.729 43.3046 99.5265 34.3035C94.3914 31.7662 89.1457 29.4273 83.7577 27.3578C78.0222 25.1465 71.6547 22.1839 65.2713 23.5022C63.0909 23.9558 62.1112 26.0537 62.5062 27.8681C69.806 60.754 77.5798 93.5549 83.5049 126.668C84.5162 132.366 85.5274 138.05 86.5702 143.748C87.1548 146.952 87.534 150.326 88.4979 153.458C88.6401 153.912 88.7981 154.365 89.0667 154.777C90.4887 156.917 93.0642 156.605 95.371 156.208C97.4409 155.854 99.4791 155.414 101.517 154.961C107.774 153.543 113.968 151.913 120.13 150.198C128.489 147.887 136.8 145.407 145.016 142.685C152.126 140.332 159.299 137.866 165.983 134.648C170.454 132.479 166.473 126.37 162.001 128.524V128.496Z" fill="#FADCDC"/>
<path d="M119.846 103.463C115.453 101.138 107.727 101.096 104.061 104.526C101.849 106.581 100.822 109.615 101.391 112.422C101.77 114.335 102.845 116.121 104.409 117.468C107.885 120.487 113.699 120.997 117.823 118.729C121.947 116.461 124.112 111.699 123.053 107.46C122.832 106.596 122.5 105.745 121.916 105.036C121.378 104.384 120.636 103.86 119.862 103.449L119.846 103.463Z" fill="#FADCDC"/>
<path d="M125.645 53.3404C124.175 53.0853 122.658 53.7373 121.663 54.7437C120.667 55.7501 120.114 57.0259 119.672 58.3016C117.808 63.7165 117.729 69.8401 120.699 74.8297C123.67 79.8192 130.1 83.3346 136.31 82.3424C138.301 82.0305 140.181 81.2793 141.966 80.4146C145.379 78.7561 148.682 76.3464 149.724 72.9869C149.93 72.349 150.025 71.6545 149.819 71.0166C149.63 70.4638 149.219 70.0102 148.792 69.5707C146.517 67.2744 143.72 65.46 140.955 63.674C135.583 60.2011 130.211 56.7424 124.839 53.2695" fill="#FADCDC"/>
<path d="M68.9054 36.5997C74.4355 35.8059 80.1553 38.2723 83.7419 42.1279C87.3286 45.9835 89.0035 51.0582 89.4143 56.0619C89.6039 58.4575 89.5249 60.9239 88.5927 63.1919C87.1548 66.6931 83.8367 69.3439 80.1553 71.0732C79.539 71.3567 78.7806 71.626 78.1802 71.3142C77.7536 71.0874 77.5482 70.6338 77.3744 70.2085C73.2663 60.0026 70.8646 49.2438 70.2958 38.4141" fill="#FADCDC"/>
<path d="M61.6215 16.131C60.3258 12.9275 59.8676 9.44044 60.31 6.05262C60.626 3.61453 61.7637 0.864585 64.3707 0.113312C64.8447 -0.0284377 65.3662 -0.0851375 65.8086 0.113312C66.4564 0.382636 66.7566 1.06303 66.9778 1.67256C67.8152 3.95473 68.6526 6.22272 69.49 8.50489C72.0339 6.7472 72.8555 3.18928 75.8734 2.19703C78.1803 1.44576 80.6609 2.56558 82.794 3.64288C83.5524 4.0256 84.374 4.4792 84.69 5.20213C85.3536 6.6905 83.6788 8.07964 82.5886 9.34122C81.4983 10.6311 80.9295 12.2471 80.9927 13.863C80.9927 14.1465 81.0401 14.4442 81.2613 14.6427C81.5457 14.8978 81.9881 14.8836 82.3674 14.8695C88.6243 14.7135 94.5652 19.3913 95.1973 24.9762C87.9765 26.0677 80.4397 23.7572 73.3295 25.3306C72.8397 25.444 72.3183 25.5716 71.9233 25.8692C71.4335 26.2236 71.1649 26.7622 70.9437 27.2867C69.7429 30.2068 69.6481 33.3678 69.332 36.4579C68.7948 41.7877 67.5782 47.0608 65.7138 52.1354C65.5874 52.4615 65.4452 52.8158 65.1133 52.9859C64.5287 53.2836 63.8177 52.83 63.3437 52.3906C59.2988 48.5917 56.5653 43.6872 55.6015 38.4991C55.6015 40.1434 55.6015 41.8302 55.0327 43.4037C54.4639 44.9771 53.2947 46.4513 51.5724 47.0325C48.8232 47.968 45.6157 46.1678 44.4939 43.7297C43.372 41.2916 43.9092 38.4708 44.9363 36.0043C45.9633 33.5379 47.4643 31.2274 48.365 28.7042C44.4149 30.2918 40.3068 31.5534 36.1039 32.4464C35.4402 32.5882 34.6818 32.7157 34.113 32.3755C33.6232 32.092 33.4178 31.5676 33.2282 31.0856C32.3592 28.8176 31.5534 26.1244 33.1018 24.1682C33.797 23.2894 34.8714 22.7224 35.9301 22.2121C43.7196 18.4557 52.4256 16.2586 61.2581 15.8192" fill="#FADCDC"/>
</svg>
