<svg viewBox="0 0 71 80" fill="none" xmlns="http://www.w3.org/2000/svg" preserveAspectRatio="xMidYMid meet">
<path d="M33.0858 38.0039C26.0371 37.8426 18.687 38.8843 12.6836 42.856C9.96327 44.6571 7.67179 46.9891 5.93643 49.7646C4.20107 52.5401 3.00843 55.7256 2.11059 58.9044C1.21276 62.0831 0.415435 65.1745 0.0871233 68.3667C-0.214387 71.3237 0.187627 74.5831 2.3451 76.8075C4.27477 78.7968 7.33008 79.5562 9.99007 78.864C12.6501 78.1718 14.5596 75.9406 15.3503 73.3062C15.7925 71.8344 15.9533 70.2887 16.1409 68.7766C16.3486 67.1369 16.6769 65.5441 17.1057 63.9514C18.1242 60.1745 19.5781 56.4447 21.9902 53.3331C22.8277 52.2512 21.3202 50.7256 20.4759 51.8143C16.7841 56.5791 14.774 62.6073 14.0236 68.5481C13.7355 70.8264 13.5479 73.528 11.9063 75.2954C10.2648 77.0629 7.58469 77.4258 5.43391 76.411C-0.0736828 73.8169 2.55951 65.6382 3.68515 61.2296C5.1793 55.3896 7.45738 49.61 12.3017 45.7592C18.1443 41.1154 25.8227 39.9931 33.0657 40.1611C34.4459 40.1947 34.4459 38.0442 33.0657 38.0106L33.0858 38.0039Z" fill="#EE725E"/>
<path d="M10.2782 78.6691C15.8193 80.3223 21.5212 77.7753 24.4492 72.8963C26.017 70.2955 26.9417 67.2914 27.7122 64.3681C28.5832 61.0683 29.1326 57.6947 29.4074 54.2942C29.5213 52.9165 27.3772 52.9232 27.2633 54.2942C27.0221 57.2915 26.533 60.2552 25.8026 63.1718C25.1259 65.8734 24.3286 68.6288 23.0019 71.0885C21.816 73.2928 20.1409 75.1476 17.8227 76.1691C15.5044 77.1906 13.1325 77.2712 10.8343 76.5858C9.50766 76.1893 8.94484 78.2659 10.2648 78.6556L10.2782 78.6691Z" fill="#EE725E"/>
<path d="M14.6869 42.184C14.4926 44.1866 14.3184 46.2901 15.0219 48.2189C15.7255 50.1476 17.0789 51.4984 18.7138 52.5401C22.084 54.6839 26.3654 55.2081 30.1779 54.0858C31.4978 53.696 30.935 51.6261 29.6083 52.0159C26.3922 52.9568 22.8612 52.5603 19.9868 50.8062C18.6937 50.02 17.501 48.9044 17.0119 47.4259C16.4558 45.7458 16.6635 43.9178 16.831 42.1907C16.8913 41.6127 16.295 41.1154 15.759 41.1154C15.1291 41.1154 14.7472 41.6127 14.6869 42.1907V42.184Z" fill="#EE725E"/>
<path d="M37.3538 41.9488C34.4124 41.7001 31.9333 43.8641 30.8747 46.4649C29.7156 49.3076 29.8965 52.6342 30.3052 55.6181C31.1561 61.8344 33.8898 67.6678 37.2801 72.8895C38.8614 75.3223 40.6771 77.7013 43.5314 78.6422C44.9787 79.1193 46.5465 79.2 48.0608 79.2C49.5751 79.2 50.9955 79.1731 51.8263 77.7013C53.3071 75.0804 53.1798 71.4917 52.684 68.6288C52.101 65.2753 50.7275 62.1167 49.4611 58.9783C48.0206 55.3963 46.6872 51.7471 45.0859 48.2323C43.7123 45.2082 41.4611 42.4931 37.9836 42.1168C36.6168 41.9689 36.6235 44.1195 37.9836 44.2673C40.5297 44.5428 42.1244 46.942 43.116 49.059C44.3489 51.6799 45.3338 54.4353 46.4125 57.1234C48.5097 62.3116 51.5114 68.0239 50.7476 73.7968C50.6605 74.4285 50.5198 75.0602 50.3389 75.6718C50.2049 76.1086 50.0575 76.8344 49.575 77.0091C49.0524 77.204 48.1747 77.0562 47.6253 77.0494C46.9553 77.0427 46.2785 77.0226 45.6152 76.9285C42.9954 76.5588 41.2534 74.9258 39.7994 72.8156C36.791 68.4608 34.3052 63.6019 33.0188 58.4541C32.3085 55.5912 31.8864 52.4864 32.2683 49.5428C32.6168 46.8815 34.265 43.8372 37.3471 44.0993C38.7207 44.2135 38.714 42.0697 37.3471 41.9488H37.3538Z" fill="#EE725E"/>
<path d="M36.6101 26.6934C33.6352 31.7203 32.5297 37.6141 33.3672 43.3869C33.4476 43.9649 34.1779 44.274 34.6871 44.1396C35.3036 43.9783 35.518 43.3869 35.4376 42.8157C34.6871 37.6275 35.8061 32.2714 38.4661 27.7754C39.1696 26.5859 37.3203 25.5039 36.6168 26.6934H36.6101Z" fill="#EE725E"/>
<path d="M42.7006 46.3775C45.3673 45.0536 46.513 42.1437 46.9954 39.3614C47.5583 36.0819 47.6655 32.7418 47.3237 29.4287C47.183 28.0644 45.039 28.051 45.1797 29.4287C45.4812 32.3453 45.4611 35.3023 45.0189 38.2055C44.6504 40.6316 43.9937 43.3332 41.6152 44.516C40.3823 45.1275 41.461 46.9824 42.6939 46.3708L42.7006 46.3775Z" fill="#EE725E"/>
<path d="M43.7324 43.9918C47.7124 47.7283 50.9955 52.1437 53.4277 57.0361C54.6471 59.4958 55.6388 62.0697 56.3825 64.7175C57.1262 67.3654 58.0977 70.7995 57.2334 73.6019C56.483 76.0548 53.6622 77.3384 51.2836 76.5589C49.9704 76.1288 49.4075 78.2054 50.7141 78.6288C53.1999 79.4419 56.1078 78.6288 57.8699 76.6933C60.0877 74.2471 59.8264 70.7188 59.2837 67.6879C58.1849 61.5321 55.5249 55.5307 52.0139 50.3829C50.0508 47.5066 47.7861 44.852 45.2467 42.4663C44.2417 41.5254 42.7207 43.0375 43.7324 43.9851V43.9918Z" fill="#EE725E"/>
<path d="M11.4842 44.5227C10.0839 42.1437 8.87111 39.6639 7.89288 37.0765C6.99505 34.7042 5.92971 31.9287 6.69354 29.3816C7.37696 27.0967 9.46073 25.8333 11.7589 26.7405C14.0571 27.6478 15.5579 30.0066 16.7573 32.0026C18.2715 34.5295 19.3235 37.2781 19.9332 40.1544C20.2213 41.5053 22.285 40.934 21.9969 39.5832C21.3603 36.5792 20.2414 33.6827 18.6803 31.0416C17.2129 28.5685 15.3368 25.8937 12.5897 24.7714C9.84265 23.6491 7.08885 24.5026 5.5009 26.9085C3.78564 29.5093 4.20775 32.7687 5.10558 35.5779C6.21782 39.0725 7.77897 42.4461 9.63494 45.6047C10.3318 46.7942 12.1877 45.7122 11.4842 44.5227Z" fill="#EE725E"/>
<path d="M8.94481 24.6706L7.46406 20.6585C7.36356 20.3897 7.22285 20.168 6.97494 20.0134C6.74714 19.879 6.40543 19.8185 6.15082 19.9059C5.6349 20.0739 5.19268 20.6653 5.40039 21.2298L6.88114 25.2419C6.98165 25.5107 7.12235 25.7325 7.37026 25.887C7.59807 26.0214 7.93978 26.0819 8.19439 25.9946C8.71031 25.8265 9.15252 25.2351 8.94481 24.6706Z" fill="#EE725E"/>
<path d="M43.9468 19.5228C43.8396 21.3709 43.652 23.5416 42.3991 25.0134C41.0121 26.633 38.6469 26.6599 36.8312 25.8064C32.8847 23.9516 30.4927 19.3951 29.0589 15.4906C28.3018 13.414 27.6987 11.2769 27.1828 9.13306C26.7138 7.19758 26.2314 4.71103 27.9065 3.21238C29.1795 2.07663 31.1159 1.9019 32.677 2.45969C34.6134 3.15862 36.0606 4.82528 37.0657 6.56586C39.6453 11.0282 40.1076 16.633 44.2081 20.1612C44.6637 20.551 45.2668 20.5779 45.7224 20.1612C48.5231 17.6276 52.0206 16.2432 55.7593 15.9139C57.4813 15.7661 59.3373 15.6384 61.0458 15.9274C62.7544 16.2164 63.8465 17.0027 64.3959 18.6156C64.9454 20.2284 65.2938 22.1706 64.9521 23.8642C64.6505 25.383 63.6924 26.5456 62.3859 27.3252C59.5986 28.9986 55.9469 29.2271 52.7844 29.1868C48.5164 29.1397 44.2684 28.1989 40.3823 26.4179C39.136 25.8467 38.0506 27.7015 39.3036 28.2728C43.3572 30.1343 47.719 31.1894 52.1814 31.3238C55.9402 31.4381 60.3892 31.1491 63.6589 29.0591C65.1665 28.0913 66.3524 26.7136 66.875 24.9798C67.478 22.9905 67.1832 20.7862 66.674 18.8037C66.1648 16.8212 65.2335 15.2419 63.411 14.4086C61.5885 13.5752 59.5785 13.6088 57.6555 13.6626C52.637 13.8037 47.9737 15.2217 44.2014 18.6424H45.7157C41.5012 15.0201 41.3404 8.89112 38.2851 4.49598C36.925 2.54034 35.0355 0.813194 32.677 0.221798C30.5732 -0.309114 28.2214 0.147873 26.5463 1.55244C24.5496 3.23254 24.3821 5.90054 24.8042 8.30645C25.2532 10.84 26.0237 13.3871 26.888 15.8064C28.5363 20.4032 31.3035 25.6854 35.9869 27.7822C38.4928 28.9045 41.6218 28.8238 43.6654 26.7943C45.5616 24.9126 45.9368 22.0766 46.0842 19.5295C46.1646 18.1451 44.0205 18.1518 43.9401 19.5295L43.9468 19.5228Z" fill="#EE725E"/>
<path d="M34.667 2.63443C36.5029 2.31185 38.4728 2.05647 40.2684 2.72851C41.7358 3.27287 42.9753 4.42206 43.8665 5.69221C44.9251 7.19086 45.6286 8.90457 46.2584 10.6183C46.962 12.5269 47.6521 14.4422 48.3489 16.3575C48.8179 17.6478 50.8883 17.09 50.4126 15.7863C49.6421 13.6626 48.8916 11.5255 48.0876 9.4086C47.3305 7.42608 46.4594 5.49732 45.1328 3.83066C43.9603 2.36561 42.4192 1.16266 40.6235 0.584704C38.5063 -0.100777 36.2416 0.1882 34.1042 0.571263C32.7508 0.813198 33.3203 2.88308 34.6737 2.64115L34.667 2.63443Z" fill="#EE725E"/>
<path d="M68.061 15.4972C66.8348 16.5927 66.1313 18.3332 66.2787 19.9797C66.4462 21.8951 67.5987 23.3534 68.8918 24.684C69.8566 25.6719 71.3709 24.1531 70.4061 23.1652C69.9236 22.6679 69.4345 22.1571 69.0794 21.6128C68.9186 21.3641 68.7176 21.008 68.6372 20.7929C68.5769 20.6316 68.5233 20.4636 68.4831 20.2889C68.463 20.215 68.4496 20.1477 68.4362 20.0738C68.4027 19.8924 68.4362 20.0873 68.4228 19.973C68.3424 18.8037 68.6975 17.8023 69.5819 17.0093C70.0107 16.6263 69.9772 15.887 69.5819 15.4905C69.1531 15.0604 68.5032 15.1007 68.0677 15.4905L68.061 15.4972Z" fill="#EE725E"/>
</svg>
