<svg width="178" height="246" viewBox="0 0 178 246" fill="none" xmlns="http://www.w3.org/2000/svg">
<g clip-path="url(#clip0_2167_940)">
<path d="M4.21577 135.868C7.03336 133.466 9.80561 131.022 12.7255 128.734C15.6885 126.406 18.8517 124.35 21.9532 122.213C25.0807 120.047 28.0716 117.717 31.1933 115.537C34.2428 113.391 37.4305 111.468 40.448 109.284C41.801 108.302 43.229 107.473 44.5947 106.527C46.0892 105.494 47.5231 104.388 49.1242 103.492C50.6227 102.653 52.1612 101.88 53.6127 100.955C55.1889 99.9576 56.6114 98.737 58.1876 97.7396C61.2862 95.7764 64.565 94.129 67.5773 92.0372C70.6103 89.9384 73.6545 87.9696 76.9033 86.2271C83.1646 82.892 89.2377 79.1454 95.5645 75.946C98.7076 74.3641 101.616 72.2693 104.798 70.7996C106.203 70.1506 107.673 69.6748 109.068 68.993C110.603 68.2324 112.081 67.438 113.647 66.7627C116.832 65.3742 119.828 63.5681 123.117 62.4115C126.365 61.2628 129.608 60.366 132.776 58.9554C133.371 58.6866 133.994 58.3372 134.633 58.2207C135.267 58.1174 135.85 58.2338 136.479 58.0469C137.094 57.8561 137.64 57.5114 138.251 57.3181C139.159 57.0425 140.102 56.8608 141.011 56.6131C144.453 55.6518 147.844 54.7878 151.406 54.4513C153.153 54.2892 154.906 54.1732 156.653 54.074C158.425 53.9765 159.99 54.2245 161.742 54.4163C163.25 54.5713 164.521 55.0518 165.984 55.4472C167.178 55.7568 168.764 56.3117 169.527 57.3751C170.171 58.2717 170.146 60.1131 170.007 61.1432C169.771 62.8756 168.648 64.0855 167.58 65.3544C165.243 68.1519 162.754 70.6693 160.14 73.2222C157.608 75.7098 154.855 77.8799 152.207 80.2286C150.983 81.3156 149.792 82.362 148.488 83.3507C147.059 84.45 145.656 85.8115 144.079 86.6865C143.474 87.0169 142.838 87.2304 142.285 87.661C141.63 88.1856 141.203 88.7661 140.456 89.1849C139.095 89.9485 137.601 90.5196 136.296 91.3859C135.077 92.2052 134.062 93.0812 132.723 93.7591C131.187 94.5295 129.616 95.2495 128.12 96.1163C126.885 96.8347 125.768 97.6981 124.529 98.4298C122.936 99.3676 121.289 100.252 119.858 101.446C118.679 102.431 117.454 103.358 116.297 104.348C114.973 105.488 113.528 106.364 112.159 107.446C110.892 108.45 109.547 109.273 108.213 110.167C106.832 111.081 105.57 112.169 104.205 113.116C101.291 115.127 98.4556 117.261 95.5059 119.232C89.2759 123.374 83.0803 127.567 76.723 131.494C73.6166 133.415 70.6046 135.491 67.4816 137.39C64.3624 139.275 61.1331 140.797 57.9141 142.496C51.4556 145.886 45.4688 150.123 39.3724 154.103C36.3537 156.073 33.5226 158.264 30.3976 160.065C27.2334 161.893 24.0692 163.72 20.9119 165.569C14.6242 169.257 8.10497 172.727 2.17595 176.988C0.732358 178.024 -0.580967 179.24 -2.05056 180.237C-3.54114 181.256 -5.12521 182.142 -6.62656 183.154C-8.07407 184.134 -9.63467 184.994 -11.0014 186.073C-12.2257 187.037 -13.6102 187.726 -14.8903 188.626C-16.2541 189.6 -17.6879 190.484 -19.0293 191.495C-19.6268 191.937 -20.2071 192.507 -20.8663 192.87C-21.4888 193.209 -22.1318 193.402 -22.7332 193.788C-23.7428 194.45 -23.6501 196.075 -22.7271 196.745C-22.6674 196.797 -22.5906 196.839 -22.5308 196.891C-20.5991 198.322 -18.3223 195.366 -20.2505 193.938C-20.3102 193.886 -20.387 193.843 -20.4467 193.792C-20.4463 194.774 -20.4472 195.767 -20.4406 196.748C-19.8892 196.381 -19.201 196.246 -18.6363 195.882C-17.8954 195.417 -17.2334 194.812 -16.5376 194.29C-15.1106 193.232 -13.6161 192.268 -12.1609 191.261C-10.9472 190.427 -9.69153 189.755 -8.52051 188.86C-6.98253 187.687 -5.23887 186.678 -3.62014 185.604C-2.11298 184.606 -0.537741 183.741 0.927946 182.688C2.45134 181.591 3.8406 180.326 5.39222 179.28C8.50897 177.175 11.7397 175.213 14.9685 173.292C21.5713 169.386 28.3528 165.736 34.8804 161.693C37.9404 159.793 40.8046 157.578 43.8399 155.629C47.0946 153.54 50.2701 151.328 53.5565 149.293C56.6444 147.391 59.7905 145.705 63.0511 144.13C66.4839 142.467 69.7538 140.41 72.9582 138.355C79.3329 134.249 85.6599 130.104 91.9824 125.935C95.1828 123.825 98.4262 121.829 101.518 119.553C104.339 117.478 107.202 115.432 110.079 113.421C112.937 111.414 115.952 109.595 118.603 107.312C121.168 105.107 123.845 103.023 126.828 101.404C128.274 100.625 129.478 99.5828 130.933 98.8147C132.467 98.0165 134.054 97.3185 135.556 96.4664C136.758 95.7886 137.746 94.8576 138.92 94.1818C140.3 93.3991 141.877 92.8222 143.167 91.9084C143.837 91.4155 144.318 90.7656 145.03 90.3437C145.791 89.8876 146.555 89.566 147.269 89.0399C148.768 87.9309 150.215 86.7216 151.697 85.5905C152.944 84.6469 154.021 83.5114 155.24 82.5321C156.781 81.293 158.305 80.0571 159.752 78.7158C162.411 76.2521 165.045 73.708 167.571 71.0991C168.827 69.7958 169.882 68.3315 171.066 66.9724C172.267 65.61 173.112 64.0962 173.532 62.305C174.103 59.9432 173.791 56.5524 172.124 54.6777C171.255 53.7059 169.846 52.8486 168.663 52.355C167.921 52.0384 167.101 51.9337 166.341 51.6895C165.375 51.3886 164.466 50.9516 163.455 50.7941C156.636 49.7503 149.25 50.4334 142.611 52.2862C141.049 52.7253 139.506 53.1829 137.927 53.5623C137.149 53.7577 136.525 54.038 135.772 54.298C135.086 54.5301 134.41 54.44 133.679 54.6143C132.254 54.9467 130.861 55.6564 129.521 56.2119C127.791 56.9329 126.109 57.5918 124.3 58.1418C117.587 60.203 111.681 63.9536 105.203 66.5653C101.807 67.9357 98.8565 70.0383 95.6185 71.7191C92.5331 73.325 89.4688 74.9773 86.4136 76.6625C83.0648 78.5111 79.8062 80.4752 76.4223 82.2518C73.2464 83.9119 70.1023 85.6949 67.1491 87.732C63.9139 89.9618 60.6294 92.0248 57.2089 93.9619C55.7751 94.7764 54.4538 95.743 53.1218 96.7021C51.4462 97.9124 49.6835 98.9031 47.871 99.8966C44.81 101.567 41.8985 103.644 39.0417 105.641C35.9142 107.807 32.7325 109.883 29.5918 112.045C26.3919 114.262 23.3271 116.668 20.1272 118.886C16.8661 121.145 13.5303 123.306 10.4077 125.757C7.50248 128.039 4.7167 130.495 1.898 132.89C0.13045 134.456 2.40236 137.423 4.23649 135.861L4.21577 135.868Z" fill="#FADCDC" fill-opacity="0.6"/>
<path d="M97.9669 79.1304C102.01 77.5915 106.487 77.2135 110.735 76.5541C112.874 76.2167 115.066 76.1808 117.224 75.9311C119.397 75.6755 121.584 75.7849 123.772 75.7622C128.388 75.6822 132.968 75.5179 137.577 75.8787C139.802 76.0566 141.985 76.4774 144.196 76.7205C145.366 76.8492 146.402 77.0398 147.526 77.3495C148.046 77.4964 148.569 77.6239 149.103 77.6959C149.334 77.7228 150.325 77.7648 150.25 77.7187C150.011 77.1501 149.773 76.5814 149.531 76.0163C149.576 75.6438 149.246 76.0212 148.882 76.1569C148.612 76.2626 148.359 76.3214 148.066 76.3468C146.988 76.4462 146.201 76.5021 145.161 76.7767C143.149 77.3294 140.793 77.2414 138.704 77.4911C133.852 78.0567 129.046 78.2342 124.161 78.3255C121.739 78.3721 119.333 78.3342 116.917 78.2355C114.576 78.1417 112.278 77.7166 109.944 77.5744C107.717 77.4316 105.523 76.8495 103.317 76.7531C102.285 76.7091 101.349 76.4341 100.34 76.3045C99.2963 76.1622 98.2417 76.405 97.1964 76.2348C94.8317 75.8377 94.3867 79.5393 96.7586 79.9414C97.8133 80.1288 98.8472 79.8929 99.9018 80.0111C101.077 80.1544 102.221 80.3506 103.412 80.4723C104.626 80.5896 105.849 80.8876 107.062 81.0461C108.336 81.2153 109.624 81.2563 110.9 81.4159C116.317 82.0375 121.631 82.0249 127.077 82.0133C132.401 82.0081 137.595 81.0313 142.884 80.7784C144.101 80.7225 145.249 80.6823 146.413 80.2972C147.343 79.9892 148.271 80.1526 149.225 79.9251C151.068 79.4943 152.983 78.5134 153.249 76.4458C153.327 75.857 153.077 75.0579 152.53 74.7434C151.378 74.0746 150.537 74.1623 149.268 73.9386C148.209 73.7645 147.212 73.3407 146.139 73.1724C143.827 72.8064 141.468 72.493 139.146 72.2577C134.127 71.7737 129.118 71.9065 124.09 72.0366C121.716 72.0901 119.325 71.9615 116.952 72.2065C114.721 72.438 112.42 72.5097 110.197 72.8529C105.62 73.5661 100.858 74.0339 96.5028 75.6864C94.2443 76.5415 95.699 79.9685 97.9501 79.1241L97.9669 79.1304Z" fill="#FADCDC" fill-opacity="0.6"/>
<path d="M56.3315 107.524C62.8641 104.488 70.2125 104.028 77.1611 102.48C80.8441 101.653 84.5941 101.383 88.3329 100.983C92.0997 100.581 95.8738 100.322 99.6562 100.504C101.515 100.588 103.37 100.793 105.22 101.036C107.083 101.283 108.601 101.875 110.362 102.471C110.703 102.584 111.068 102.747 111.421 102.836C112.02 102.975 111.648 103.169 111.757 102.772C111.631 103.216 111.401 103.487 110.976 103.703C110.351 104.014 109.529 104.052 108.848 104.207C107.916 104.418 107.02 104.632 106.059 104.685C102.457 104.856 98.993 105.866 95.3478 105.815C91.3016 105.754 87.2418 105.858 83.1956 105.727C78.6468 105.578 74.1636 104.842 69.6285 104.458C67.4347 104.275 65.2108 104.219 63.0115 104.005C60.8787 103.795 58.6497 104.124 56.582 103.427C54.3182 102.654 52.8982 106.106 55.1754 106.884C57.3141 107.608 59.2999 107.478 61.5105 107.598C63.6653 107.723 65.8311 107.908 67.9804 108.072C72.7206 108.443 77.427 109.232 82.1715 109.421C86.5998 109.598 91.0473 109.502 95.4841 109.537C97.6382 109.554 99.7881 109.394 101.899 108.968C102.762 108.795 103.616 108.551 104.486 108.452C105.67 108.314 106.847 108.432 108.021 108.224C111.131 107.649 115.319 106.869 115.47 102.901C115.526 101.245 114.469 100.116 113.023 99.4729C111.381 98.7522 109.557 98.0491 107.8 97.6791C99.3043 95.9116 90.243 96.775 81.7323 97.9712C77.1531 98.619 72.6481 99.6206 68.0906 100.421C63.5757 101.215 59.0427 102.149 54.8768 104.097C52.703 105.106 54.1539 108.546 56.3387 107.529L56.3315 107.524Z" fill="#FADCDC" fill-opacity="0.6"/>
<path d="M14.5746 132.327C22.9031 129.927 31.24 128.691 39.8825 128.164C43.8938 127.915 47.9102 127.659 51.9196 127.382C56.1169 127.103 60.2606 127.853 64.4414 128.051C66.5663 128.149 68.535 128.39 70.6262 128.768C71.299 128.893 75.4123 128.996 73.9193 130.38C72.7992 131.416 70.5731 131.572 69.1641 131.989C67.3143 132.537 65.5031 132.73 63.5838 132.726C59.2534 132.706 54.9072 132.257 50.5722 132.436C48.6867 132.513 46.832 132.485 44.963 132.515C44.1325 132.541 43.4788 132.864 42.6885 133.025C42.1208 133.131 41.7127 133.046 41.1504 132.976C40.4911 132.908 39.8212 132.97 39.1802 132.899C38.4256 132.808 37.7521 132.507 36.9721 132.483C36.0261 132.461 35.1462 132.543 34.1905 132.451C31.7892 132.214 29.38 132.158 26.9717 131.9C24.5781 131.637 22.2487 131.52 19.8908 131.005C17.5222 130.483 15.0611 130.194 12.782 129.32C10.5402 128.461 9.12992 131.915 11.3753 132.777C13.6412 133.647 16.028 133.959 18.3872 134.463C20.6462 134.952 22.8273 135.238 25.1333 135.452C27.5808 135.683 29.9929 135.927 32.4397 136.052C33.4156 136.099 34.3879 136.283 35.3599 136.275C35.8287 136.28 36.2981 136.185 36.7669 136.191C37.3532 136.203 37.8592 136.447 38.4406 136.535C39.2695 136.673 40.124 136.589 40.9643 136.702C42.0971 136.853 43.0461 136.771 44.1241 136.433C45.0779 136.136 45.8961 136.335 46.8769 136.307C48.0964 136.279 49.3208 136.175 50.5419 136.121C55.3573 135.908 60.1992 136.493 65.0357 136.395C67.2138 136.355 69.1719 135.781 71.256 135.209C73.0578 134.707 75.0095 134.373 76.4672 133.07C77.7762 131.899 78.4789 129.952 77.7803 128.259C76.9272 126.166 74.6159 125.477 72.5834 125.214C70.2848 124.921 68.0595 124.445 65.7277 124.33C63.3532 124.224 60.9846 123.771 58.6169 123.77C56.2782 123.773 53.9942 123.474 51.6496 123.617C49.3715 123.763 47.0944 123.777 44.8257 123.94C39.4949 124.323 34.1099 124.546 28.8076 125.326C23.492 126.102 18.2583 127.344 13.0944 128.83C10.8153 129.538 12.2916 132.98 14.5735 132.321L14.5746 132.327Z" fill="#FADCDC" fill-opacity="0.6"/>
</g>
<defs>
<clipPath id="clip0_2167_940">
<rect width="101.835" height="227.858" fill="white" transform="translate(93.5557 0.155762) rotate(34.6513)"/>
</clipPath>
</defs>
</svg>
