<svg id="logotype" xmlns="http://www.w3.org/2000/svg" viewBox="0 0 242 89" fill="none">
  <g clip-path="url(#clip0_2165_129)">
    <path d="M27.4594 40.5103C28.597 40.2377 29.2331 41.3885 30.236 42.0471C29.6298 42.4181 29.2705 43.0313 28.3874 42.8193C27.6914 42.6528 27.2274 43.3796 27.3321 44.1139C27.407 44.6514 27.377 45.2116 27.3995 45.7567C27.4219 46.2715 27.4669 46.7788 27.4594 47.2936C27.4519 47.9976 27.3471 48.7017 27.392 49.3982C27.4669 50.6322 27.2723 51.8208 27.0852 53.0321C26.9804 53.721 27.175 54.4553 27.2798 55.167C27.377 55.7953 27.6165 56.4388 26.8681 56.6962C27.0103 57.8091 26.9055 58.9447 27.3471 59.7926C27.8186 60.6935 27.7213 61.5641 27.7887 62.4423C27.9009 63.9565 27.9458 65.4781 27.886 66.9923C27.8635 67.5676 27.5866 68.2036 27.2423 68.6729C26.464 69.7253 26.9729 70.6716 27.4145 71.5649C27.9608 72.6854 27.3845 74.0405 26.1945 73.9799C25.7979 73.9572 25.1692 73.5408 25.0869 73.2002C24.8025 72.0116 24.0765 70.8836 24.4807 69.5436C24.5855 69.2029 24.2562 68.7411 24.1888 68.5291C24.1514 67.9991 24.1439 67.666 24.1065 67.3329C24.0316 66.697 23.9268 66.0611 23.867 65.4176C23.7847 64.6075 23.7323 63.7975 23.6574 62.9874C23.6499 62.9041 23.5826 62.8133 23.5826 62.73C23.6125 61.231 23.6574 59.7245 23.6874 58.2255C23.7098 56.8931 23.4778 55.5001 23.8146 54.2585C24.1289 53.1153 23.6724 52.2447 23.5601 51.2454C23.4628 50.3445 23.6499 49.4209 23.6948 48.5049C23.7397 47.5964 23.7397 46.6803 23.7996 45.7719C23.837 45.2343 23.8969 44.6893 24.0466 44.1745C24.1813 43.6899 24.0466 43.4023 23.5975 43.478C22.7743 43.6142 21.8687 42.8269 21.0978 43.6824C21.038 43.7505 20.7985 43.7202 20.6862 43.6597C19.9153 43.2281 19.1594 43.2281 18.2763 43.3493C16.8693 43.531 15.4323 43.4325 14.0104 43.4401C13.4116 43.4401 13.0449 43.6975 12.5509 44.1139C11.9672 44.6136 12.2591 45.1965 12.0645 45.4312C11.4283 46.1731 10.6949 46.7636 11.1065 47.8916C10.3955 48.2096 10.6051 48.9591 10.3581 49.5042C10.0887 50.1022 9.75935 50.67 9.43754 51.2833C9.58722 51.306 9.82671 51.3363 10.1934 51.3892C10.0363 51.6694 9.96891 51.9116 9.81174 52.0479C9.37766 52.4264 8.90616 52.7368 9.25043 53.456C9.31779 53.5923 9.14565 53.9405 8.98849 54.0844C8.0829 54.8944 8.0829 55.9089 8.23259 56.9915C8.26252 57.2035 8.09039 57.476 7.94819 57.6804C7.65631 58.1119 7.22223 58.4829 7.04261 58.9523C6.81808 59.5504 6.72827 60.2166 6.69085 60.8601C6.67588 61.1402 6.9528 61.4279 7.18481 61.8972C7.03512 62.0108 6.80311 62.1774 6.57111 62.3439C5.96489 62.7754 5.91999 63.2372 6.08464 64.0019C6.20438 64.5545 5.69546 65.2964 5.35119 65.887C4.84227 66.7576 4.42316 67.5449 4.6851 68.6654C4.81982 69.2407 4.498 70.0962 4.10882 70.5959C3.62235 71.2167 3.54003 71.58 4.22108 72.004C3.84688 73.1245 3.51009 74.1995 2.49224 74.9414C2.13301 75.1988 1.99081 75.7893 1.78874 76.2435C1.4744 76.9552 1.09271 76.9325 0.613723 76.4101C0.479009 76.2663 0.269453 76.183 0.00750732 76.0164V72.6248C0.8607 72.4052 1.03284 71.8829 0.815796 71.1788C0.808311 71.1485 0.778375 71.1107 0.793343 71.0955C1.62408 69.801 0.740954 68.1203 1.45943 66.9771C2.1854 65.8264 2.61948 64.9179 2.49973 63.4719C2.40244 62.3061 3.18827 61.0645 3.57745 59.8532C3.61487 59.7396 3.68971 59.6336 3.68971 59.5201C3.72713 58.6343 3.73461 57.741 3.787 56.8477C3.80197 56.5903 3.91423 56.3329 4.01901 56.0906C4.43812 55.1291 4.87969 54.1752 5.2988 53.2138C5.33622 53.1229 5.2988 52.9791 5.2539 52.8731C4.8273 51.8056 5.53829 51.1167 5.97986 50.2839C6.31665 49.6404 6.63098 48.7925 6.49627 48.1187C6.28671 47.0513 6.58607 46.3018 7.22971 45.5523C7.78354 44.9088 7.7087 44.553 6.9528 44.182C6.69085 44.0533 6.3391 44.0155 6.15948 43.8111C5.89753 43.5158 5.5832 43.0919 5.61314 42.7512C5.63559 42.4862 6.12954 42.0925 6.44388 42.0547C8.12781 41.8427 9.34773 40.6087 9.43754 38.875C9.47496 38.2315 9.51238 37.641 10.186 37.2701C10.3731 37.1717 10.4703 36.7704 10.4778 36.4979C10.5153 34.9232 11.346 33.6438 11.9971 32.3189C12.5884 31.1152 13.5014 30.1159 13.3817 28.5942C13.3218 27.8522 13.7709 27.1633 14.3247 26.5122C14.9159 25.8158 15.103 24.7634 15.4698 23.8701C15.6793 23.3629 15.9113 22.8708 16.1433 22.3711C16.1882 22.2727 16.3679 22.1516 16.3454 22.1062C15.7167 20.6753 17.2884 20.0167 17.4605 18.8205C17.6402 17.5487 18.2239 16.3374 18.673 15.1109C18.875 14.5507 19.1894 14.0283 19.4139 13.4757C19.7806 12.5823 20.1249 11.6814 20.4692 10.773C20.574 10.5004 20.6338 10.2127 20.7162 9.93263C20.8958 9.2967 21.0904 8.66834 21.2625 8.03241C21.3299 7.78258 21.3673 7.52518 21.4346 7.27535C21.5095 7.02552 21.5918 6.77569 21.7115 6.541C21.9361 6.07919 22.4375 5.5871 22.3701 5.19343C22.1905 4.12598 22.9988 3.44462 23.1635 2.52858C23.2233 2.17276 23.373 1.75638 23.6275 1.52169C23.9718 1.19615 24.4507 0.825195 24.8699 0.825195C25.4985 0.825195 26.1347 1.12802 26.7633 1.30214C26.8008 -0.12113 26.9504 -0.211977 28.4398 0.355818C28.2602 0.552653 28.0955 0.719207 27.856 0.984178C28.1554 1.04474 28.3874 1.09017 28.6344 1.14316C28.6493 1.21887 28.6943 1.30214 28.6943 1.38542C28.6269 2.71028 28.5895 4.03513 28.4622 5.35999C28.3874 6.1549 28.1329 6.93467 28.0132 7.72958C27.9309 8.28224 27.9533 8.84246 27.9234 9.40269C28.0057 9.4254 28.088 9.45568 28.1704 9.47839C27.9683 9.61467 27.7662 9.75094 27.5567 9.88721C27.8036 11.2045 28.0581 12.5066 28.2976 13.8163C28.3126 13.8996 28.2976 14.0208 28.2527 14.0662C26.943 15.2775 27.9009 16.9052 27.4968 18.283C27.4594 18.4117 27.639 18.601 27.6914 18.7675C27.856 19.3429 28.0806 19.8425 27.5492 20.4633C27.2423 20.8267 27.3396 21.5989 27.3546 22.1819C27.377 22.7345 27.5791 23.2417 27.145 23.7793C26.928 24.0442 26.9954 24.5893 27.0253 24.9981C27.0852 25.8006 27.2199 26.6031 27.3172 27.398C27.3321 27.5418 27.3471 27.7084 27.3022 27.8447C26.7409 29.4118 27.2498 30.9108 27.5641 32.4249C27.5941 32.5612 27.6016 32.7353 27.5417 32.8488C26.8382 34.2116 27.0103 35.6273 27.2872 37.0505C27.3172 37.2171 27.2573 37.3988 27.2573 37.5729C27.2573 38.0498 27.2423 38.5268 27.2723 38.9962C27.3022 39.4504 27.3696 39.8971 27.4444 40.5254L27.4594 40.5103ZM23.3655 10.9244C23.2682 10.9244 23.1784 10.9395 23.0811 10.9395C23.0063 11.2726 22.9464 11.6057 22.8491 11.9313C22.46 13.2107 22.0408 14.4826 21.6816 15.7696C21.5918 16.08 21.8238 16.5115 21.6816 16.784C20.9856 18.1846 20.1997 19.5322 19.4962 20.9251C19.2942 21.334 19.0622 21.9093 19.2044 22.2727C19.5112 23.0676 19.0547 23.4537 18.7254 24.0291C18.3661 24.6574 17.9844 25.4826 18.1042 26.1337C18.3362 27.4207 17.6027 28.3065 17.0414 29.1695C16.7496 29.6162 16.4427 29.9872 16.5624 30.449C16.8543 31.5467 16.3679 32.3113 15.7691 33.129C15.4772 33.5378 15.2602 34.1661 15.3425 34.6431C15.4398 35.1957 15.3575 35.4531 14.9309 35.756C14.7288 35.9074 14.4893 36.3313 14.5642 36.4979C14.9084 37.2776 14.6989 37.7773 14.0553 38.2618C13.7484 38.4965 13.5538 38.9053 13.3517 39.2611C12.9177 40.0182 13.1871 40.5406 13.9954 40.6768C14.407 40.745 14.8561 40.533 15.2976 40.4952C16.7496 40.3816 18.2015 40.2983 19.6609 40.1999C20.9257 40.1166 22.1681 40.5633 23.4553 40.2226C24.2112 40.0258 24.4133 39.9122 24.2412 39.1249C24.0466 38.2391 23.7397 37.3458 23.7547 36.4524C23.7697 35.3396 24.0466 34.2267 24.2262 33.1138C24.2786 32.7958 24.5331 32.4097 24.4283 32.1751C23.8221 30.8275 24.3684 29.4724 24.2861 28.1248C24.2562 27.6327 23.9792 27.1557 23.9718 26.6712C23.9718 25.8612 24.1439 25.0587 24.1439 24.2486C24.1439 22.7724 24.0541 21.3037 24.0391 19.8274C24.0391 19.2142 24.1514 18.5934 24.1963 17.9726C24.2113 17.7228 24.1813 17.4578 24.1439 17.208C23.9718 15.868 23.7847 14.5204 23.6125 13.1804C23.5152 12.4234 23.4479 11.6663 23.3581 10.9092L23.3655 10.9244ZM25.9102 9.2437C26.0074 9.2437 26.1047 9.2437 26.1945 9.25128C26.2694 8.97116 26.3817 8.69862 26.4191 8.41851C26.5613 7.27535 26.711 6.13219 26.8008 4.98903C26.8606 4.16383 27.3696 3.28564 26.5164 2.28632C26.0374 3.60361 25.3788 4.73163 25.274 5.92021C25.1767 6.99524 25.6781 8.13083 25.9102 9.2437Z" fill="#FFF8E7"/>
    <path d="M156.404 32.1069C156.321 31.4861 156.239 30.9032 156.164 30.3203C156.262 30.343 156.359 30.3657 156.456 30.3884C156.613 30.1386 156.823 29.9115 156.92 29.6389C157.19 28.9121 157.511 28.1854 157.639 27.4359C157.826 26.3154 158.439 25.5584 159.165 24.7407C159.704 24.1351 159.772 23.1358 160.183 22.3863C160.67 21.4854 161.238 20.6223 161.882 19.8274C162.399 19.1839 163.11 18.6994 163.663 18.0862C164.105 17.5865 164.434 16.9884 164.831 16.4434C165.422 15.6409 166.021 14.8535 166.62 14.051C166.657 14.0056 166.687 13.9148 166.717 13.9072C167.959 13.8466 168.244 12.2644 169.464 12.1281C169.696 12.1054 169.875 11.7344 170.107 11.5527C170.309 11.3938 170.526 11.1818 170.766 11.1515C171.926 10.9925 173.086 10.7881 174.246 10.7957C175.556 10.8033 176.88 10.3793 178.16 10.8638C178.669 11.0531 179.141 11.3862 179.59 11.6966C180.398 12.2568 181.064 12.9457 181.386 13.9148C181.633 14.6491 182.022 15.1942 182.643 15.7317C183.1 16.1178 183.122 17.102 183.212 17.8288C183.324 18.7372 183.257 19.676 183.362 20.5845C183.534 22.0456 183.743 22.5225 182.217 23.1131C181.296 23.4689 180.697 23.2039 180.188 22.2954C180.061 22.0759 179.874 21.8488 179.664 21.7352C179.395 21.5914 179.028 21.4399 178.781 21.5232C178.609 21.5762 178.557 22.0229 178.422 22.356C177.981 22.4014 177.449 22.5074 176.925 22.4847C176.716 22.4771 176.424 22.2197 176.349 22.0077C176.297 21.8639 176.499 21.4929 176.671 21.4172C177.404 21.1068 177.861 20.1302 177.546 19.3807C177.479 19.2142 177.427 19.0476 177.382 18.8735C177.142 17.9726 176.88 17.1626 175.855 16.7613C175.249 16.5191 174.815 15.8528 174.291 15.3986C174.141 15.2699 173.947 15.1791 173.767 15.0882C172.577 14.4977 171.649 15.1109 170.713 15.7393C170.466 15.9058 170.16 15.9664 169.838 16.0875C169.651 17.0187 169.164 17.6319 168.206 18.2073C167.301 18.7524 166.006 19.5322 166.537 21.0917C165.519 21.2583 164.958 21.8639 164.726 22.9086C164.674 23.1433 164.591 23.378 164.591 23.6051C164.599 24.665 163.806 25.2707 163.297 26.0429C163.132 26.2927 163.005 26.6107 162.982 26.9135C162.937 27.5116 163.02 28.1324 162.279 28.3898C162.181 28.42 162.069 28.5639 162.062 28.6547C161.957 30.0629 160.887 30.9865 160.378 32.1826C160.303 32.3643 160.295 32.6672 160.393 32.8186C160.76 33.3485 160.49 33.78 160.303 34.2721C159.861 35.4986 159.472 36.7477 159.098 37.9969C159.023 38.2391 159.098 38.5268 159.128 38.7993C159.143 38.9432 159.255 39.193 159.218 39.2157C158.237 39.8289 158.552 40.8661 158.469 41.7292C158.357 42.895 158.267 44.0836 158.395 45.2344C158.484 46.0444 158.709 46.7333 157.728 47.1497C157.871 47.5661 158.05 47.9522 158.118 48.3459C158.185 48.7244 158.118 49.1332 158.148 49.5193C158.185 50.1628 158.26 50.7987 158.305 51.4422C158.327 51.6921 158.402 51.9798 158.32 52.1917C158.058 52.8882 158.23 53.5242 158.462 54.1677C158.671 54.7582 158.679 55.2805 158.282 55.8559C157.586 56.8628 158.103 57.7107 158.844 58.4223C158.088 59.7169 158.148 60.1182 159.24 61.4203C159.285 61.4809 159.278 61.5869 159.293 61.6777C159.465 62.8511 160.086 63.7823 160.797 64.6908C161.568 65.675 162.481 66.4699 163.633 66.9166C164.816 67.3784 165.976 67.9689 167.331 67.4314C167.712 67.2799 168.214 67.4919 168.663 67.4844C169.089 67.4844 169.508 67.4086 170.175 67.3405C170.826 67.4389 171.649 67.1891 172.427 66.7349C172.652 66.5986 172.839 66.3336 173.078 66.2806C174.298 66.0232 174.568 64.8801 175.166 64.0624C175.72 63.2978 176.394 62.5408 176.656 61.6701C177.06 60.315 178.564 59.838 178.856 58.3618C178.983 57.6956 179.964 57.2035 180.555 56.6357C180.592 56.5978 180.705 56.5978 180.712 56.5675C180.892 55.6969 181.723 55.7121 182.246 55.3108C183.07 54.6825 183.766 54.8112 184.559 55.0989C185.113 55.2957 185.644 55.5531 186.28 55.8181C186.033 56.3102 185.801 56.772 185.562 57.2489C186.131 57.8546 186.004 58.5056 185.195 58.9144C184.305 59.3687 183.736 60.3074 183.945 60.8752C183.362 61.2235 182.808 61.602 182.217 61.9048C181.521 62.2606 181.251 62.7527 181.483 63.2902C180.503 64.1533 179.62 64.9406 178.714 65.7128C178.302 66.0611 177.891 66.5305 177.412 66.6516C176.469 66.8787 176.132 67.6055 175.72 68.3096C175.578 68.5442 175.503 68.8471 175.316 69.0212C174.276 69.9448 173.206 70.8457 172.135 71.7542C171.724 72.1024 171.776 72.8898 171.028 72.92C170.826 72.9276 170.609 73.1093 170.437 73.0639C169.276 72.7686 168.363 73.5333 167.338 73.768C167.054 73.8361 166.754 73.9572 166.477 73.9269C165.317 73.7755 164.165 73.5938 163.012 73.3819C162.713 73.3213 162.346 73.1699 162.174 72.9352C161.86 72.4961 161.59 72.1176 160.969 72.2236C160.864 72.2387 160.692 72.1176 160.625 72.0116C159.831 70.6867 159.076 69.3392 158.267 68.0219C158.073 67.7039 157.758 67.4616 157.466 67.1512C157.511 66.9696 157.571 66.7424 157.631 66.5229L157.459 66.5759C157.055 65.675 156.628 64.7892 156.254 63.8732C155.88 62.9496 155.528 62.0184 155.236 61.0645C154.937 60.0879 154.72 59.0886 154.615 58.1044C154.637 57.6653 154.667 57.2262 154.667 56.7795C154.667 56.3859 154.615 55.9846 154.6 55.5909C154.578 55.1064 154.697 54.5613 154.51 54.1525C154.129 53.3273 153.882 52.5703 154.361 51.6996C154.929 50.6549 154.578 49.5345 154.578 48.4367C154.578 47.4374 154.435 46.3169 155.266 45.4463C155.461 45.2419 155.476 44.765 155.423 44.4319C155.319 43.7354 155.072 43.054 154.952 42.3575C154.742 41.1084 154.405 39.8289 154.48 38.5874C154.525 37.853 154.503 37.0581 154.727 36.301C154.967 35.5137 154.884 34.6204 155.169 33.8709C155.431 33.182 155.333 32.0918 156.351 32.1145L156.404 32.1069ZM160.161 67.7342C160.295 67.9386 160.415 68.143 160.55 68.3247C160.924 68.8319 161.508 69.2786 161.65 69.8464C161.935 70.9668 162.698 71.2848 163.633 71.4438C164.3 71.5573 164.988 71.5422 165.647 71.6936C166.612 71.9207 167.458 71.792 168.236 71.141C168.356 71.035 168.655 71.1864 168.857 71.141C169.419 71.0123 169.965 70.8457 170.519 70.6943C170.392 70.346 170.287 69.7177 170.137 69.7025C169.314 69.642 168.483 69.7328 167.652 69.7631C167.42 69.7707 167.188 69.7783 166.949 69.7707C165.684 69.7328 164.689 68.6124 163.342 68.8698C163.214 68.8925 163.05 68.6502 162.892 68.6199C161.964 68.4155 161.508 66.9166 160.161 67.7266V67.7342ZM181.244 20.2287C181.116 18.9265 181.042 17.6471 180.847 16.3828C180.78 15.9361 180.375 15.762 179.986 16.1784C179.41 16.7916 179.62 18.7297 180.286 19.2823C180.592 19.5322 180.854 19.8501 181.236 20.2362L181.244 20.2287ZM183.953 57.4155C183.886 57.3246 183.811 57.2413 183.743 57.1505C183.624 57.264 183.481 57.4912 183.384 57.4685C182.434 57.2792 181.895 57.8848 181.401 58.5208C181.169 58.816 181.027 59.1945 180.914 59.5579C180.892 59.6336 181.274 59.944 181.296 59.9289C181.625 59.6639 181.917 59.3535 182.224 59.0583C182.246 59.0356 182.269 59.0053 182.261 58.9826C182.164 58.1725 182.83 58.0968 183.317 57.847C183.541 57.7334 183.743 57.5669 183.96 57.423L183.953 57.4155ZM177.247 15.5197C177.329 15.0276 176.738 13.7331 176.304 13.5438C176.184 13.4908 175.93 13.5211 175.863 13.6119C175.735 13.7785 175.586 14.0738 175.653 14.2176C175.795 14.5204 176.05 14.7854 176.312 14.9974C176.566 15.2018 176.895 15.3229 177.247 15.5122V15.5197Z" fill="#FFF8E7"/>
    <path d="M133.704 28.5412C133.727 28.9727 133.764 29.3966 133.764 29.8282C133.764 30.2143 133.667 30.6004 133.704 30.9789C133.802 31.9631 133.435 32.8564 133.27 33.7876C133.038 35.1049 133.21 36.4903 133.21 37.9439C134.58 37.6789 135.471 38.2921 136.406 38.822C136.825 39.0567 137.349 39.0946 137.821 39.2309C138.127 39.3217 138.434 39.405 138.719 39.5413C140.178 40.2453 141.667 40.8813 143.06 41.6989C144.489 42.5392 145.829 43.5537 147.191 44.5076C147.348 44.6136 147.423 44.8407 147.52 45.0148C147.909 45.7037 148.313 46.3851 148.665 47.0891C148.867 47.498 149.062 47.9598 149.077 48.4064C149.129 49.9281 149.077 51.4347 148.306 52.8428C148.059 53.2895 148.141 53.9178 148.081 54.3796C147.221 55.4168 146.368 56.454 145.499 57.476C145.387 57.6123 145.163 57.635 145.02 57.7561C144.676 58.0362 144.362 58.3391 144.018 58.6192C143.419 59.1188 142.82 59.6034 142.214 60.0954C142.012 60.262 141.727 60.3831 141.615 60.5951C141.061 61.6701 140.223 62.2076 139.026 62.3591C138.442 62.4272 137.738 62.6316 137.798 63.3281C137.312 63.3281 136.803 63.2221 136.369 63.3508C135.209 63.6839 134.58 62.8436 133.832 62.2833C133.555 62.0714 133.525 61.2992 132.978 61.7913C132.754 61.9957 132.836 62.5407 132.754 63.1237C132.754 63.6385 132.761 64.3047 132.724 64.9709C132.642 66.3185 133.136 67.7115 132.447 69.0136C132.2 69.4754 132.222 69.7253 132.634 70.1492C133.068 70.5959 133.278 71.2848 132.784 71.9434C132.634 72.1403 132.597 72.428 132.552 72.6854C132.447 73.3213 132.365 73.9572 132.275 74.5931C132.155 75.4411 132.23 76.2133 133.151 76.6448C132.881 77.47 132.619 78.2497 132.38 79.0371C132.208 79.6049 132.013 80.1802 132.754 80.5663C132.889 80.6345 132.904 81.0887 132.859 81.3386C132.619 82.6256 132.559 83.8444 132.859 85.1996C133.053 86.0777 133.435 87.3345 132.619 88.3035C132.455 88.4928 132.365 88.7502 132.23 89C132.028 88.9092 131.818 88.8032 131.601 88.7275C130.254 88.2429 130.269 88.2429 130.336 86.8802C130.351 86.5926 130.284 86.2897 130.202 86.0096C129.91 85.086 129.506 84.1927 129.304 83.2539C129.117 82.3833 129.214 81.4521 129.042 80.5739C128.608 78.2876 128.885 76.0164 129.027 73.7377C129.079 72.9503 129.251 72.1706 129.341 71.3908C129.371 71.1334 129.408 70.8003 129.281 70.611C128.578 69.5435 128.832 68.3474 129.109 67.3329C129.453 66.0838 128.802 65.0088 128.922 63.858C129.027 62.8663 128.533 61.8442 129.289 60.8601C129.566 60.4967 129.311 59.7093 129.289 59.1188C129.281 58.869 129.184 58.6192 129.214 58.3769C129.468 56.2723 130.06 54.1979 129.633 52.0403C129.588 51.8283 129.573 51.5179 129.685 51.3892C130.284 50.723 130.097 49.9735 130.045 49.1938C129.985 48.2323 130.09 47.2557 130.097 46.2867C130.097 45.8324 129.97 45.3706 130.007 44.924C130.067 44.2047 130.217 43.5007 130.322 42.7815C130.426 42.1077 130.643 41.4263 130.598 40.7677C130.419 38.3905 130.262 36.0285 130.696 33.6589C130.86 32.7807 130.681 31.842 130.83 30.9562C130.965 30.1991 131.362 29.4875 131.609 28.7456C131.699 28.4806 131.661 28.1778 131.706 27.8977C131.766 27.557 131.751 27.1103 131.961 26.9059C132.245 26.6258 132.724 26.376 133.091 26.4138C133.315 26.4365 133.585 27.0043 133.644 27.3602C133.704 27.7084 133.54 28.0945 133.465 28.473C133.54 28.4957 133.615 28.526 133.689 28.5487L133.704 28.5412ZM144.414 53.3425C144.414 52.5324 144.414 51.8662 144.414 51.1924C144.407 50.4656 144.459 49.7313 144.354 49.0196C144.01 46.6425 142.887 44.7953 140.612 43.8489C139.767 43.4931 138.898 43.1903 138.015 42.9632C137.387 42.8042 136.713 42.8042 136.062 42.7436C135.56 42.6982 135.052 42.5922 134.565 42.6603C134.198 42.7133 133.607 42.948 133.562 43.1903C133.308 44.4319 133.188 45.7037 133.038 46.968C133.023 47.074 133.158 47.1876 133.158 47.2936C133.173 47.8538 133.195 48.414 133.158 48.9667C133.121 49.4663 133.001 49.9584 132.941 50.4505C132.836 51.4195 132.724 52.3961 132.664 53.3727C132.642 53.7361 132.739 54.1222 132.844 54.4781C132.993 55.0004 133.39 55.5455 132.567 55.8786C132.492 55.9089 132.462 56.1739 132.477 56.3177C132.552 57.0899 132.649 57.8697 132.746 58.6419C132.806 59.0961 132.881 59.5428 132.956 60.0424C133.607 59.8153 134.034 59.6109 134.483 59.5276C135.328 59.3687 136.309 59.4974 137.012 59.1037C138.255 58.4148 139.864 58.5208 140.829 57.2565C141.218 56.7492 141.69 56.3026 142.087 55.8029C142.723 55.008 143.329 54.1904 144.047 53.2516C143.973 53.2365 144.152 53.2743 144.414 53.3273V53.3425Z" fill="#FFF8E7"/>
    <path d="M78.9279 35.3093C79.2647 34.5749 79.5565 33.939 79.9083 33.1668C80.1702 33.1668 80.5744 33.1744 80.9785 33.1668C81.7269 33.1517 81.944 33.5756 81.9365 34.257C81.9215 36.0966 81.9365 37.9363 81.9365 39.7835C81.9365 40.2529 81.959 40.639 82.5502 40.8131C82.7672 40.8813 82.9543 41.3506 82.9843 41.661C83.134 43.0767 83.2462 44.5 83.3211 45.9233C83.3735 46.8999 83.336 47.8765 83.366 48.8531C83.3735 49.1408 83.4408 49.436 83.5231 49.7237C83.7477 50.5716 84.0845 51.3892 83.7477 52.3129C83.6204 52.6687 83.6653 53.1835 83.8225 53.5393C84.2042 54.4024 84.2865 55.2124 83.815 56.0679C83.7102 56.2571 83.7177 56.6357 83.8375 56.7947C84.5036 57.6501 84.1443 58.4753 83.9572 59.3762C83.8375 59.9516 84.062 60.5951 84.1294 61.2083C84.1892 61.7837 84.3165 62.3666 84.294 62.942C84.2566 63.964 84.8403 64.6378 85.7384 64.2441C87.0182 63.6763 88.1708 64.176 89.3608 64.3728C89.75 64.441 90.0867 64.8044 90.4759 64.8649C90.9399 64.9406 91.4414 64.7816 91.9204 64.8044C92.9157 64.8574 93.9261 64.8801 94.9065 65.0618C95.7073 65.2056 96.5007 65.4933 97.2266 65.8491C97.8777 66.1671 98.237 66.7803 98.0574 67.5601C97.8852 68.2944 97.264 68.1051 96.7551 68.1733C95.7747 68.3096 94.7494 67.6888 93.7839 68.355C93.7165 68.4004 93.4696 68.1884 93.2525 68.0673C93.1403 68.196 92.9981 68.3701 92.8783 68.514C92.7661 68.514 92.6763 68.5215 92.6613 68.4988C92.1673 67.7645 91.2767 68.1354 90.9998 68.3474C90.1391 69.0136 89.6302 68.5215 89.2635 68.2263C87.2203 68.3474 85.4017 68.4458 83.4034 68.5669C83.104 68.6502 82.625 68.7789 82.0338 68.9455C81.5324 68.9455 80.6792 68.6881 80.3424 68.9985C79.5565 69.7253 79.1449 68.9228 78.5836 68.8168C78.4713 68.7941 78.3666 68.7335 78.2618 68.6881C78.2693 68.7865 78.2842 68.8773 78.2917 68.9758C77.9175 69.0817 77.5358 69.3089 77.1766 69.2786C75.8145 69.1575 74.4074 68.6578 73.1127 68.8622C71.6533 69.0969 70.1864 68.7259 68.7719 69.165C68.5024 69.2483 68.1881 69.218 67.8962 69.2104C67.6942 69.2104 67.4846 69.1196 67.2825 69.1272C66.1375 69.1877 64.9849 69.2407 63.8398 69.3391C63.054 69.4073 61.7517 68.2944 61.7443 67.4692C61.7443 67.3329 62.0137 67.068 62.111 67.0907C62.6424 67.227 62.8145 66.9014 63.0615 66.5305C63.2037 66.3185 63.6003 66.2049 63.8922 66.1973C65.5163 66.1368 67.1478 66.1746 68.7719 66.0686C70.2388 65.9702 71.6982 65.7583 73.1501 65.5311C74.6469 65.2964 76.1213 64.9633 77.6181 64.7135C78.6584 64.5394 79.6987 64.3955 80.7465 64.3047C81.7344 64.2214 81.8841 64.0549 81.4575 63.1842C81.2554 62.7754 80.8663 62.4575 80.7091 62.0411C80.507 61.496 80.4621 60.8979 80.3499 60.315C80.3274 60.2014 80.3499 60.0652 80.2975 59.9743C79.4667 58.5435 79.6089 56.8552 79.115 55.326C78.7782 54.2964 78.9054 53.0926 78.9129 51.9646C78.9129 51.2 78.9877 51.2 78.2019 50.4884C78.9653 49.6026 78.621 48.3232 77.5358 48.0355C77.6107 49.2771 76.9371 50.2688 76.4955 51.359C76.1063 52.3053 75.9492 53.35 75.6798 54.3418C75.5974 54.637 75.5001 54.9323 75.3654 55.2048C75.081 55.7802 74.617 56.3101 75.0286 57.0294C75.096 57.1505 75.0586 57.4836 74.9912 57.5063C74.1679 57.8394 74.2203 58.6949 74.138 59.293C73.921 60.7919 73.3073 62.1092 72.5813 63.3659C72.3867 63.7066 71.7281 63.9792 71.3315 63.9186C71.0096 63.8732 70.5456 63.3205 70.5082 62.9496C70.4184 61.9351 70.4334 60.9282 71.0471 59.9592C71.4362 59.3535 71.5784 58.4829 71.5635 57.7334C71.541 56.4616 72.0425 55.3638 72.4167 54.2207C72.6861 53.3728 73.1576 52.593 73.4719 51.7526C73.5842 51.4498 73.4869 51.0713 73.5692 50.7987C73.9285 49.807 74.2877 48.8228 74.6395 47.8311C75.1259 46.4381 75.6124 45.0527 76.0914 43.6597C76.1512 43.4931 76.2411 43.3266 76.2635 43.1524C76.5629 40.957 77.2963 38.8145 77.0269 36.5357C76.967 36.0361 77.2065 35.4834 77.3861 34.9838C77.431 34.8702 77.8053 34.7869 77.9998 34.8323C78.2768 34.8929 78.5237 35.0822 78.9279 35.2941V35.3093ZM79.8185 44.0458C79.9607 44.1366 80.1029 44.235 80.2451 44.3259C80.305 44.0912 80.4397 43.8489 80.4022 43.6294C80.3723 43.4401 80.1553 43.2811 80.0206 43.107C79.8484 43.2736 79.6389 43.425 79.5266 43.6218C79.4892 43.6824 79.7137 43.8944 79.8185 44.0382V44.0458Z" fill="#FFF8E7"/>
    <path d="M224.061 37.4518C224.54 38.1407 224.405 38.6404 223.918 39.5564C223.357 40.6163 222.893 41.7519 223.02 43.0464C223.088 43.7127 222.9 44.394 222.826 45.0754C222.781 45.5296 222.564 46.2715 222.736 46.3775C223.17 46.6425 223.843 46.8317 224.293 46.6803C225.108 46.4002 225.804 46.0898 226.732 46.4305C227.196 46.6046 227.892 46.3094 228.416 46.0898C229.689 45.5523 230.976 45.5069 232.308 45.7567C232.518 45.7946 232.757 45.6432 232.982 45.628C233.588 45.5826 234.217 45.4388 234.785 45.5599C235.878 45.787 236.948 44.8255 236.918 43.7278C236.888 42.6149 237.09 41.4945 237.263 40.3892C237.472 39.0416 237.764 37.7092 238.026 36.3692C238.056 36.1951 238.063 35.9528 238.168 35.8771C239.291 35.12 239.126 33.8482 239.381 32.758C239.598 31.8041 240.136 31.5467 240.96 32.1069C242.015 32.8261 242.187 33.5453 241.82 34.7415C241.581 35.5137 241.551 36.354 241.454 37.1717C241.334 38.1104 241.491 39.0946 240.952 39.9652C240.84 40.1469 240.818 40.427 240.84 40.6466C240.922 41.4339 241.154 42.1985 240.72 42.9783C240.593 43.2054 240.937 43.6672 240.84 43.9322C240.466 44.9315 240.541 46.0217 240.144 47.0286C239.979 47.4601 240.219 48.0733 240.346 48.5881C240.481 49.1408 240.398 49.5344 239.949 49.9281C239.478 50.3445 239.283 50.8593 239.463 51.6012C239.613 52.2372 239.373 52.9639 239.306 53.6529C239.283 53.8573 239.261 54.0692 239.223 54.2661C239.036 55.2881 238.797 56.3101 238.685 57.3397C238.595 58.1574 238.67 58.9901 238.67 59.8608C237.592 59.9819 237.427 60.6102 237.757 61.4582C238.011 62.1092 237.659 62.677 237.562 63.2827C237.367 64.4788 237.263 65.6825 237.046 66.8711C236.963 67.3329 236.739 67.7948 236.477 68.196C236.185 68.6351 235.766 68.8319 235.294 68.3625C235.234 68.302 235.137 68.2868 235.055 68.2566C233.955 67.878 233.895 67.6433 234.082 66.5002C234.157 66.0384 233.917 65.4857 233.708 65.0315C233.52 64.6378 233.371 64.4031 233.393 63.858C233.438 62.7603 234.022 61.7685 233.917 60.7768C233.85 60.0954 233.678 59.4065 233.992 58.8463C234.426 58.0741 234.508 57.3095 234.359 56.4918C234.306 56.2193 234.157 55.9695 234.104 55.8256C234.314 55.0534 234.508 54.3721 234.673 53.6831C235.085 51.9646 235.504 50.2461 235.856 48.5124C235.886 48.3837 235.436 48.0506 235.167 47.99C234.77 47.8992 234.344 47.9446 233.925 47.9598C233.76 47.9598 233.506 48.0052 233.453 48.1036C233.229 48.573 232.937 48.5881 232.518 48.3762C232.398 48.3156 232.158 48.3762 232.031 48.4594C231.417 48.891 230.781 49.1711 230.01 49.0045C229.853 48.9667 229.666 49.0121 229.502 49.0424C228.82 49.1635 228.147 49.3603 227.466 49.3906C226.837 49.4133 226.313 49.4133 225.752 49.86C225.31 50.2082 224.577 50.1628 224.008 50.3748C223.462 50.5792 222.983 51.0637 222.436 51.1243C221.202 51.253 221.426 52.063 221.299 52.9034C221.104 54.1222 220.693 55.326 220.236 56.4843C219.907 57.3246 219.967 58.1119 220.034 58.9674C220.116 60.1333 219.952 61.3143 220.034 62.4802C220.109 63.6461 219.263 64.2366 218.724 65.0391C218.552 65.304 218.238 65.6598 218.305 65.8642C218.62 66.8106 217.924 67.3557 217.639 68.0521C216.352 67.8326 215.656 66.591 216.023 65.1753C216.314 64.0624 216.793 62.9874 216.389 61.7837C216.314 61.5566 216.591 61.231 216.636 60.9434C216.763 60.0122 216.823 59.0734 216.958 58.1422C217.115 57.0369 217.317 55.9392 217.519 54.8414C217.662 54.0541 217.931 53.2743 217.931 52.4946C217.931 52.1614 217.452 51.6239 217.108 51.5407C216.232 51.3287 216.142 50.6322 215.813 49.913C216.097 49.8524 216.352 49.8676 216.517 49.7464C216.838 49.5117 217.25 49.2543 217.37 48.9137C217.572 48.3307 217.789 47.9825 218.425 47.7478C219.293 47.4298 219.503 46.4608 219.69 45.6886C219.899 44.8482 219.757 43.9246 219.81 43.0389C219.825 42.7588 219.892 42.3575 220.079 42.2288C220.753 41.767 220.648 41.1614 220.595 40.4876C220.506 39.4201 220.453 38.3678 221.351 37.4972C221.688 37.1717 221.703 36.5054 221.845 35.9906C222.092 35.1125 222.234 34.1813 222.624 33.3712C222.796 33.0078 223.432 32.7883 223.896 32.6899C224.068 32.652 224.337 33.1441 224.584 33.3712C225.176 33.9163 224.929 34.4462 224.682 35.067C224.405 35.7635 224.3 36.5282 224.075 37.4518H224.061Z" fill="#FFF8E7"/>
    <path d="M105.788 65.7583C106.447 65.3646 106.866 65.0769 107.323 64.8573C107.577 64.7362 107.884 64.7211 108.161 64.6454C108.775 64.4788 109.463 64.4183 109.995 64.1003C111.447 63.2297 113.041 63.3432 114.605 63.3281C115.712 63.3205 116.828 63.5476 117.935 63.5476C119.687 63.5476 121.288 63.7596 122.388 65.3646C122.583 65.6447 123.039 65.7431 123.204 66.0308C123.429 66.4018 123.661 66.9317 123.548 67.2875C123.459 67.5752 122.89 67.8477 122.508 67.8932C120.794 68.0749 119.065 68.1506 117.352 68.2944C116.468 68.3625 115.548 68.3474 114.725 68.6124C113.018 69.165 111.274 69.2483 109.508 69.3391C108.288 69.3997 107.053 69.5133 105.848 69.7404C105.085 69.8842 104.359 70.2476 103.641 70.5656C103.087 70.8154 102.69 70.929 102.6 70.1038C102.563 69.7934 102.413 69.4224 102.196 69.2256C101.552 68.6502 101.77 68.09 101.957 67.3935C102.181 66.5532 102.204 65.6447 102.278 64.7665C102.421 63.1313 102.518 61.4884 102.66 59.8532C102.787 58.4223 102.922 56.9915 103.087 55.5606C103.184 54.6749 103.416 53.8043 103.438 52.9185C103.453 52.1766 103.199 51.4422 103.753 50.7609C103.888 50.6019 103.828 50.2309 103.775 49.9735C103.498 48.5578 103.723 47.2027 104.097 45.8249C104.262 45.2268 104.097 44.5454 104.164 43.9095C104.232 43.213 104.434 42.5316 104.494 41.8351C104.554 41.1992 104.539 40.5481 104.494 39.9046C104.411 38.5874 104.756 37.2322 104.037 35.9528C103.708 35.3699 104.284 34.3705 104.913 34.0601C105.115 33.9617 105.354 33.7952 105.429 33.5983C105.706 32.8186 106.253 32.9018 106.664 33.3106C107.323 33.9693 107.996 33.621 108.408 33.2577C109.426 32.3795 110.646 32.2432 111.843 31.9782C112.539 31.8268 113.25 31.7284 113.931 31.5391C114.148 31.4786 114.313 31.206 114.44 31.0925C115.189 31.0925 115.877 31.1682 116.543 31.0698C117.426 30.9411 118.295 30.6988 119.155 30.4565C119.672 30.3127 120.151 30.0023 120.674 29.8887C121.43 29.7298 122.216 29.6313 122.987 29.6011C123.399 29.5859 123.87 29.6465 124.222 29.8509C125.015 30.3051 124.925 30.8124 124.297 31.4634C123.75 32.0312 123.421 32.8034 123.047 33.4091C122.553 33.5453 122.074 33.6968 121.588 33.8027C120.862 33.9617 120.136 34.0829 119.402 34.2116C119.29 34.2343 119.163 34.1964 119.058 34.2343C118.085 34.5371 117.127 34.9005 116.147 35.1503C114.964 35.4531 113.759 35.7862 112.554 35.8619C111.821 35.9074 111.185 35.6121 110.571 36.4146C110.286 36.7856 109.366 36.6341 108.745 36.7553C107.921 36.9067 107.353 37.5653 107.285 38.383C107.225 39.1324 107.121 39.8819 107.068 40.6314C107.053 40.8585 107.151 41.0932 107.188 41.3203C107.233 41.5777 107.39 41.9033 107.293 42.085C106.709 43.1449 107.196 44.2577 107.076 45.3403C107.023 45.7794 106.993 46.2261 106.986 46.6728C106.971 47.339 107.031 48.0052 106.971 48.6638C106.934 49.0121 106.672 49.33 106.567 49.6783C106.507 49.8751 106.559 50.1098 106.559 50.1931C107.188 50.2764 107.704 50.3596 108.221 50.4202C108.393 50.4429 108.573 50.4278 108.745 50.4051C109.411 50.3218 110.077 50.1931 110.743 50.1401C112.681 49.9963 114.62 49.8827 116.551 49.754C116.693 49.7464 116.873 49.7389 116.977 49.6556C117.688 49.1105 118.287 49.3073 118.856 49.8978C119.013 50.0644 119.238 50.1628 119.395 50.2764C119.492 51.5634 118.497 51.8435 117.696 51.8965C116.049 52.0025 114.493 52.3961 112.951 52.9337C112.689 53.0245 112.367 52.9185 112.075 52.9337C111.738 52.9488 111.274 52.8731 111.095 53.0548C110.361 53.827 109.411 53.6226 108.543 53.8194C108.251 53.8875 107.996 54.1374 107.734 54.3266C107.51 54.4932 107.323 54.7279 107.091 54.8717C105.991 55.5379 105.774 55.9997 106.006 57.3095C106.028 57.4533 106.058 57.6123 106.028 57.7486C105.751 59.1794 105.459 60.6102 105.167 62.0411C105.167 62.0714 105.137 62.1016 105.137 62.1244C105.339 63.2524 105.542 64.3804 105.796 65.7885L105.788 65.7583Z" fill="#FFF8E7"/>
    <path d="M196.669 40.5027C197.439 40.2378 198.21 39.9804 198.974 39.7002C199.138 39.6397 199.333 39.4126 199.423 39.4504C200.785 40.0863 202.342 39.1022 203.711 40.0561C204.594 40.6768 205.627 41.1311 206.652 41.4869C207.663 41.8351 207.865 42.7739 208.441 43.4477C209.609 44.8255 209.429 46.5668 209.863 48.1415C209.938 48.414 209.646 48.7925 209.496 49.1862C210.357 49.7464 209.669 50.4959 209.609 51.2C209.564 51.7753 209.564 52.3507 209.519 52.9185C209.436 53.9254 209.354 54.9247 209.242 55.9316C209.167 56.5903 209.07 57.2489 208.958 57.9C208.875 58.3921 208.823 58.9144 208.628 59.3611C208.179 60.3983 207.648 61.3976 207.161 62.4196C206.81 63.1615 206.383 63.8883 206.143 64.6681C205.792 65.8491 205.043 66.7273 204.325 67.666C203.876 68.249 203.621 68.9833 203.404 69.3921C202.798 69.9978 202.371 70.452 201.915 70.8684C201.473 71.2697 201.002 71.633 200.553 72.0267C200.268 72.2841 200.006 72.5718 199.587 72.9806C198.734 73.2607 197.641 73.6393 196.541 73.9572C196.234 74.0481 195.8 74.0632 195.546 73.9042C194.363 73.1547 192.635 73.4273 191.886 71.8299C191.602 71.2167 191.108 70.6261 190.569 70.2325C189.117 69.1726 188.982 67.6736 188.878 66.0686C188.75 64.0927 188.466 62.1319 188.271 60.156C188.241 59.8683 188.339 59.5731 188.354 59.2778C188.399 58.6343 188.586 57.9454 188.443 57.3473C188.204 56.295 188.369 55.3411 188.631 54.3418C188.9 53.3198 189.072 52.275 189.297 51.2378C189.394 50.776 189.476 50.2991 189.671 49.8827C189.94 49.2998 190.419 48.7925 190.591 48.1945C190.756 47.6191 191.198 47.4752 191.512 47.1346C191.856 46.7636 191.931 46.1201 192.073 45.575C192.223 45.0224 192.305 44.4546 193.016 44.341C193.121 44.3259 193.263 44.1366 193.286 44.0079C193.548 42.4484 194.895 41.9411 195.935 41.1311C196.212 40.9115 196.422 40.6011 196.654 40.3362C196.654 40.3892 196.654 40.4346 196.654 40.4876L196.669 40.5027ZM203.487 62.465C203.524 62.4953 203.569 62.5332 203.606 62.5635C203.891 62.1925 204.28 61.8594 204.445 61.4354C205.096 59.7926 205.717 58.1271 206.263 56.4464C206.42 55.9619 206.271 55.379 206.286 54.8414C206.301 54.1374 206.263 53.4182 206.39 52.7292C206.555 51.8132 206.353 51.1773 205.575 50.6549C205.283 50.4581 204.991 50.2537 204.744 50.0114C204.594 49.8676 204.385 49.542 204.43 49.4815C204.579 49.2922 204.819 49.1105 205.051 49.0726C205.492 48.9969 205.956 49.0197 206.413 48.9969C206.286 48.5276 206.046 48.0506 206.054 47.5812C206.076 46.3472 205.133 45.6129 204.489 44.9012C203.412 43.7127 201.825 43.16 200.261 42.7285C200.074 42.6755 199.857 42.7285 199.662 42.7588C198.599 42.9329 197.627 43.2433 196.721 43.9171C196.07 44.4016 195.224 45.6053 195.456 46.4078C195.718 47.3163 195.718 48.0658 195.119 48.3459C194.85 49.2771 194.76 49.966 194.461 50.5338C194.184 51.0486 193.682 51.4347 193.248 51.904C193.6 52.2069 193.84 52.4113 194.199 52.7065C193.518 53.3273 193.158 54.0238 193.443 54.9777C193.518 55.22 193.166 55.7802 192.882 55.9089C192.335 56.1587 192.425 56.507 192.485 56.9309C192.597 57.7183 192.702 58.5056 192.769 59.0204C192.41 59.4444 192.021 59.7093 192.043 59.9289C192.088 60.3226 192.395 60.6859 192.56 61.0796C192.657 61.3295 192.807 61.7837 192.732 61.8367C192.178 62.2001 192.313 62.6997 192.275 63.2297C192.141 64.9103 193.435 66.6819 195.119 66.9544C196.07 67.1058 197.028 67.2194 197.986 67.3254C198.248 67.3556 198.555 67.3708 198.772 67.2572C199.647 66.7954 200.59 66.3942 201.324 65.7507C202.117 65.0542 202.723 64.1306 203.359 63.2751C203.509 63.0783 203.457 62.73 203.494 62.4499L203.487 62.465ZM192.171 67.7569C192.208 68.0446 192.141 68.5291 192.313 68.6502C193.271 69.2862 194.169 70.1871 195.486 69.8464C195.741 69.7782 195.973 69.5965 196.212 69.4678C196.01 69.2483 195.845 68.9228 195.591 68.8319C194.513 68.4458 193.405 68.1354 192.163 67.7493L192.171 67.7569ZM206.914 44.8558C207.333 44.5908 207.326 44.182 206.727 43.7127C206.458 43.5007 206.271 43.1827 206.001 42.9707C205.792 42.8118 205.515 42.7058 205.253 42.6528C205.171 42.6376 204.924 42.9556 204.953 43.0162C205.073 43.2584 205.245 43.4855 205.447 43.6672C205.882 44.0533 206.353 44.4016 206.907 44.8483L206.914 44.8558Z" fill="#FFF8E7"/>
    <path d="M40.5117 49.0726C41.567 48.9061 42.3902 48.7698 43.221 48.6411C43.3033 48.626 43.4081 48.6865 43.4829 48.6487C45.2417 47.8008 47.1127 48.6184 48.9389 48.2323C50.3309 47.9446 51.8352 48.2323 53.2872 48.2096C53.5042 48.2096 53.841 47.9598 53.9009 47.7554C54.0505 47.2557 54.088 46.7182 54.1329 46.1958C54.2526 44.8407 54.3574 43.4855 54.4547 42.1228C54.4771 41.7519 54.4547 41.3809 54.4472 41.0099C54.4472 40.692 54.3798 40.3589 54.4547 40.0636C54.6044 39.5185 54.8513 39.0189 54.4397 38.4662C54.3349 38.33 54.4173 37.8606 54.552 37.7697C55.2405 37.3306 55.0759 36.7704 54.8289 36.2026C54.5669 35.597 54.3125 34.9459 54.9486 34.5068C55.5848 34.0677 56.1386 34.4462 56.7748 34.8248C57.9872 35.5288 57.9348 36.4979 57.8525 37.6637C57.6729 40.162 57.6504 42.6679 57.4858 45.1662C57.381 46.7333 57.1041 48.2929 56.9469 49.86C56.887 50.4656 56.9843 51.0864 56.9469 51.6996C56.7972 53.7891 56.5877 55.871 56.4604 57.9605C56.3856 59.1188 56.655 60.3604 56.3407 61.4354C56.0039 62.5862 57.0367 63.7748 56.0713 64.8573C55.944 65.0012 56.2584 65.5766 56.3931 65.9399C56.7299 66.8938 56.8421 67.8629 56.6176 68.8471C56.5053 69.3467 56.8646 69.9751 55.9365 70.2098C54.9636 70.4596 53.8859 70.0205 53.6988 68.9909C53.4219 67.4465 53.2198 65.9172 53.4443 64.3198C53.6015 63.1842 53.4219 62.0032 53.3994 60.8449C53.377 59.7926 53.1375 58.657 53.4219 57.6956C53.8185 56.348 53.3096 55.061 53.5416 53.774C53.6239 53.3273 53.856 52.9034 54.088 52.2977C54.0655 52.1463 54.0056 51.7451 53.9532 51.3514C53.8934 50.882 53.7212 50.5792 53.1674 50.6019C51.3039 50.6625 49.4403 50.7003 47.5768 50.7457C47.4645 50.7457 47.3373 50.7987 47.2474 50.8669C46.5589 51.3741 45.8928 51.7072 44.9498 51.6012C44.3436 51.5331 43.7 52.1312 43.0414 52.2977C42.48 52.434 41.8589 52.3129 41.2901 52.4188C40.9308 52.487 40.5192 52.6838 40.2947 52.9564C39.9205 53.4106 39.6585 53.9708 39.3816 54.5008C39.3068 54.6446 39.3217 54.8566 39.3442 55.0231C39.5163 56.2269 39.7558 57.4306 39.8606 58.6419C39.913 59.2627 39.6959 59.9062 39.6361 60.5345C39.5388 61.5414 39.3891 62.5559 39.3966 63.5628C39.4115 64.7514 38.7305 65.9399 39.4939 67.174C39.6436 67.4086 39.0972 68.355 38.6556 68.6199C38.1991 68.9001 37.4133 68.9758 37.069 68.1884C36.9418 67.8932 36.8894 67.5601 36.7622 67.2648C36.4179 66.485 36.0287 65.728 35.6844 64.9482C35.5946 64.7438 35.4973 64.4485 35.5797 64.2896C35.9988 63.4946 35.9164 62.7754 35.5422 61.9805C35.3701 61.6171 35.3477 61.0191 35.5422 60.6859C36.3356 59.2702 35.8117 57.7107 36.1185 56.2496C36.3281 55.22 36.2832 54.1374 36.343 53.0699C36.3805 52.4718 35.9913 52.3356 35.5348 52.4416C35.198 52.5173 34.8986 52.8201 34.5618 52.8579C34.0753 52.9109 33.5365 52.9109 33.0949 52.7368C32.8255 52.6308 32.601 52.169 32.5411 51.8359C32.5186 51.7072 32.9677 51.4195 33.2446 51.3135C34.3373 50.9047 35.4524 50.5565 36.5526 50.1628C37.2486 49.913 37.3908 49.3906 37.0016 48.7395C36.8669 48.52 36.7247 48.2247 36.7547 47.9976C37.0016 46.3397 37.301 44.6893 37.563 43.0313C37.6004 42.8118 37.5106 42.5771 37.4956 42.3499C37.4582 41.9411 37.301 41.4869 37.4208 41.1235C38.3039 38.4132 38.0045 35.5591 38.4461 32.8034C38.506 32.4476 38.8502 31.8117 38.9251 31.8344C39.3966 31.9555 39.9354 32.1296 40.2498 32.4779C40.7063 32.9851 40.841 33.6362 40.5491 34.363C40.4294 34.6658 40.5791 35.12 40.7063 35.4607C41.073 36.4524 41.3649 37.4063 40.8859 38.4738C40.7213 38.8372 40.9308 39.352 40.8784 39.7835C40.7737 40.6163 40.5641 41.4339 40.4668 42.2667C40.362 43.1373 40.362 44.023 40.2872 44.8937C40.2348 45.5145 40.0103 46.1428 40.0627 46.756C40.1375 47.5964 40.392 48.4216 40.5267 49.0272L40.5117 49.0726Z" fill="#FFF8E7"/>
  </g>
</svg>
