<svg id="star-icon" xmlns="http://www.w3.org/2000/svg" viewBox="0 0 56 69" fill="none">
  <path d="M18.3944 27.1531C16.5945 25.8209 14.9917 24.2829 13.948 22.3532C13.4635 21.4471 13.0694 20.5655 12.3346 19.8014C11.5412 18.9835 11.2057 18.3615 10.7957 17.3281C9.92772 17.9403 9.05443 18.5623 8.18647 19.1696C9.20353 19.7378 10.2472 19.8455 11.3282 20.2276C12.276 20.5655 13.1067 21.1973 14.0545 21.5696C16.1792 22.3973 17.766 24.2438 20.0078 24.7874C20.8758 24.9931 22.026 24.5278 22.2017 23.6413C22.5318 21.9859 22.4253 20.35 22.3455 18.6799C22.2603 16.8138 22.3242 14.9281 22.3242 13.0621C22.3242 11.0882 22.42 9.32014 22.9312 7.3904C23.4158 5.56842 24.2465 3.86888 24.7683 2.05669C24.1985 2.45831 23.6288 2.85503 23.0483 3.25665C22.42 2.86482 22.2549 2.85503 22.5372 3.22236C22.5957 3.35461 22.6437 3.48195 22.6916 3.62398C22.8194 3.99622 22.9046 4.39784 22.9738 4.77987C23.1389 5.64188 23.272 6.51369 23.4104 7.3855C23.8258 9.81971 23.4584 12.2833 23.9429 14.7371C24.2039 16.0448 24.6086 17.333 24.6299 18.6652C24.6511 19.8112 24.4648 20.9426 24.534 22.0887C24.6299 23.6805 25.7428 25.0764 27.6651 24.6601C29.1134 24.3417 30.2956 23.2299 31.3393 22.3385C32.7397 21.1386 34.4437 20.5949 36.0359 19.6545C38.2191 18.3762 40.5993 17.3966 42.9583 16.4024C44.1564 15.9028 45.4131 15.4963 46.6218 15.0261C47.6868 14.6098 48.7305 14.1004 49.87 13.8604C49.2044 13.0621 48.5281 12.2588 47.8679 11.4605C46.4354 14.1004 44.2149 16.3142 41.6217 18.048C38.8368 19.9141 35.8708 21.0798 32.7983 22.4561C31.1848 23.176 31.9942 25.5417 33.6982 25.5074C35.3436 25.4633 36.9571 25.0911 38.6184 25.047C40.4662 24.9931 42.3299 25.047 44.1777 25.0372C45.9083 25.0372 47.6389 25.0274 49.3695 25.0274C50.1735 25.0274 50.935 24.9735 51.7178 24.8315C52.394 24.7091 53.081 24.4593 53.7785 24.6111C53.5176 23.6952 53.2567 22.7891 52.9958 21.8732C51.7178 22.985 49.9233 23.4895 48.2992 24.0332C47.2342 24.3907 46.2011 24.6895 45.0723 24.8511C44.1617 24.9833 43.2352 25.2674 42.3086 25.3213C41.2916 25.385 40.3757 25.287 39.3906 25.6249C38.9539 25.7768 38.5013 26.0511 38.0487 26.1588C37.5481 26.2764 37.005 26.2029 36.4938 26.2372C35.072 26.3351 33.006 26.9131 31.8451 27.7212C30.5405 28.6371 30.7162 30.4934 30.7642 31.8207C30.8334 33.7749 30.8121 35.734 30.8121 37.6883C30.8121 39.4857 30.5618 41.3175 30.7056 43.1199C30.7748 44.0162 31.073 44.8537 31.2061 45.7354C31.3712 46.8374 31.2754 47.9834 31.3233 49.0855C32.4255 48.8112 33.5278 48.5418 34.6407 48.2577C32.9793 44.844 32.6119 40.9845 31.3446 37.4385C30.86 36.0622 30.5405 34.7349 30.2423 33.3292C29.9708 32.0754 29.4809 30.8754 28.2508 30.1652C27.3402 29.6314 25.8546 30.1113 25.6416 31.1448C25.3114 32.6925 25.7374 34.2745 25.3327 35.7928C24.9174 37.3405 24.2518 38.9127 23.7086 40.4261C23.1761 41.9102 22.3934 43.306 21.6905 44.7215C20.945 46.2349 20.5403 47.763 20.0557 49.3695C19.1079 52.5188 17.2814 55.4232 16.1526 58.5186C15.5934 60.0468 15.1089 61.6141 14.6563 63.1765C14.4805 63.7985 14.4805 65.5764 13.8735 65.9339C14.7415 66.2621 15.6147 66.5902 16.4827 66.9135C16.1739 65.7576 16.4454 64.5038 16.4614 63.3136C16.4721 61.8638 16.3922 60.3896 16.52 58.9398C16.6478 57.5244 17.0418 56.1481 17.3507 54.762C17.6808 53.2878 17.8512 51.8086 18.1228 50.3246C18.3731 48.9728 18.7511 47.621 18.8949 46.2447C19.0493 44.8684 19.0706 43.595 19.454 42.253C19.8214 40.9453 19.9546 39.569 20.1995 38.2417C20.3167 37.6001 20.2847 36.3022 20.732 35.7879C21.9035 34.4704 20.3646 32.0705 18.5754 33.2165C16.8075 34.3626 15.7638 35.9299 14.3687 37.3944C12.8884 38.9323 11.1312 40.338 9.53367 41.7877C7.81372 43.3354 5.88077 44.6774 3.97445 46.0194C2.31307 47.1753 0.939237 48.1549 0.119197 49.9671C-0.652917 51.6568 2.54737 52.9204 3.3674 51.2307C3.84132 50.2609 4.71994 49.6585 5.42815 48.8553C6.07779 48.1157 6.58899 47.3271 7.03096 46.4651C8.02672 44.5256 8.91598 42.5371 10.2685 40.7837C11.7009 38.9176 12.8671 36.9242 14.2409 35.0238C14.8799 34.152 15.4763 33.2557 16.1153 32.3839C16.4241 31.9676 16.7064 31.5317 17.111 31.2182C17.5264 30.8999 17.979 30.704 18.3571 30.3464C19.9439 28.833 17.4305 26.5065 15.8437 28.0347C15.4976 28.3628 15.0397 28.5245 14.6456 28.8183C14.1823 29.1661 13.9214 29.5726 13.5806 30.0183C12.9416 30.8705 12.3452 31.7521 11.7329 32.6141C10.2845 34.6418 9.01716 36.792 7.47825 38.7658C6.05649 40.5976 5.06073 42.5959 4.05432 44.6236C3.5804 45.559 3.06921 46.4112 2.29709 47.1753C1.52498 47.9394 0.742214 48.6153 0.278945 49.585C1.35991 50.0111 2.44619 50.4226 3.52715 50.8487C4.11822 49.5507 6.04052 48.6544 7.1907 47.8267C8.97988 46.5288 10.785 45.275 12.4091 43.7811C13.8309 42.4734 15.3751 41.2392 16.7223 39.8776C17.9577 38.6433 18.8576 37.0417 20.3646 36.0622C19.6404 35.2002 18.9322 34.3479 18.208 33.4908C16.6212 35.2687 16.6691 38.0605 16.275 40.2302C16.0035 41.724 15.5029 43.1101 15.4337 44.6382C15.3485 46.2839 14.9971 47.8463 14.6882 49.4675C14.1184 52.5188 13.3144 55.6289 12.9949 58.7048C12.8192 60.321 12.947 61.9422 12.9097 63.5585C12.8884 64.9886 12.686 66.3698 13.0535 67.7902C13.3144 68.7698 14.7255 69.3477 15.6627 68.7698C16.8981 68.0057 17.4412 66.9037 17.7394 65.596C18.0376 64.2883 18.4157 63.0246 18.8204 61.7365C19.9013 58.2591 21.5574 55.0412 22.9685 51.6715C23.666 50.016 23.879 48.2381 24.6511 46.6023C25.3753 45.0546 26.2273 43.5705 26.8663 41.9885C27.5053 40.4065 28.0644 38.7511 28.5969 37.1348C28.8472 36.3952 29.0229 35.6312 29.0602 34.8426C29.0975 33.9071 28.8578 32.957 29.0602 32.0313C28.1922 32.3594 27.3189 32.6876 26.451 33.0108C26.2486 32.8933 26.5096 33.1284 26.5575 33.3047C26.6427 33.5545 26.7013 33.8043 26.7598 34.0688C26.877 34.5928 26.9355 35.1169 27.058 35.641C27.3882 37.1789 28.0538 38.6286 28.517 40.1323C29.5501 43.4236 30.0134 46.7835 31.5523 49.9377C32.2871 51.4413 34.9176 50.6576 34.8697 49.1099C34.8005 47.19 34.6301 45.4219 34.2999 43.5362C34.0284 41.964 34.3479 40.2988 34.3585 38.7168C34.3691 36.7332 34.4064 34.7251 34.3479 32.7415C34.3265 31.9578 34.433 31.0419 34.2999 30.2779C34.2999 30.1456 34.3212 30.0036 34.3479 29.8762C33.6024 30.3905 33.4213 30.5717 33.826 30.4199C34.0656 30.4738 34.6567 30.1015 34.8803 30.0183C35.7803 29.6803 36.5044 29.5481 37.4789 29.504C38.5599 29.4599 39.3054 29.1465 40.2905 28.8036C41.2756 28.4657 42.2447 28.6616 43.2671 28.5196C44.1351 28.402 44.9604 28.162 45.8284 28.0494C47.6282 27.8094 49.3482 27.1971 51.0309 26.5898C52.655 26.0021 54.1939 25.3262 55.4878 24.2144C56.4463 23.3866 55.9884 21.7704 54.7051 21.4765C53.1502 21.1288 51.8722 21.6087 50.3546 21.7606C48.5388 21.9565 46.5845 21.7704 44.7474 21.7802H39.1509C37.3032 21.79 35.5087 22.1965 33.6716 22.2406C33.9698 23.2544 34.2627 24.2683 34.5715 25.2919C36.3127 24.518 38.1392 23.9303 39.8219 23.0438C41.3288 22.2602 42.7879 21.3443 44.151 20.3696C46.9147 18.4154 49.3429 16.0203 50.919 13.1306C51.6166 11.8425 50.4664 10.4026 48.9169 10.7307C46.7496 11.1911 44.6037 12.2784 42.5376 13.0523C40.1999 13.9241 37.6759 14.8938 35.5193 16.084C34.3798 16.706 33.3255 17.3721 32.1274 17.906C31.2381 18.3076 30.4074 18.7337 29.6513 19.3362C29.1401 19.728 28.6768 20.1737 28.1816 20.59C27.9313 20.7859 26.8663 21.3541 26.7811 21.5255C27.1698 21.2316 27.6118 21.4471 28.0857 22.1818C28.0751 21.9957 28.0751 21.8242 28.0751 21.6381C28.2402 21.07 28.1337 20.2618 28.1603 19.6741C28.1976 18.4546 28.0911 17.284 27.8408 16.0987C27.5799 14.8645 27.2337 13.6351 27.1432 12.3715C27.058 11.1519 27.1645 9.93726 27.1219 8.71771C27.0527 6.9398 26.6959 4.95619 26.222 3.22236C25.796 1.62078 24.9493 0.195518 23.0217 0.00450329C22.2603 -0.0591682 21.4935 0.562854 21.3018 1.20447C20.8012 2.9285 20.0078 4.55457 19.5339 6.28839C19.0121 8.22793 18.7139 10.0597 18.7298 12.0678C18.7405 13.9339 18.7085 15.795 18.7298 17.6611C18.7511 19.3509 19.0759 21.119 18.7405 22.7989C19.4753 22.4169 20.1995 22.0349 20.9343 21.6528C19.9279 21.4128 19.1665 20.639 18.3358 20.1051C17.3986 19.5076 16.4401 19.0129 15.3964 18.6015C14.5072 18.2439 13.751 17.6856 12.8618 17.3281C11.9033 16.9362 10.8809 16.8824 9.97032 16.3681C8.70298 15.6677 6.82861 16.8481 7.3611 18.2097C7.7871 19.3117 8.10659 20.4333 8.96391 21.3394C9.80524 22.221 10.3164 22.9654 10.8862 24.0234C12.047 26.1735 13.8735 27.9808 15.8916 29.4746C17.6595 30.7725 20.1835 28.4706 18.405 27.1531H18.3944Z" fill="#FFF8E7"/>
</svg>
