<svg id="telephone-icon" viewBox="0 0 22 22" fill="none" xmlns="http://www.w3.org/2000/svg">
<circle cx="11" cy="11" r="10" stroke="white" stroke-width="1.5"/>
<g clip-path="url(#clip0_2087_1463)">
<path d="M12.236 8.60042L12.11 8.48042C11.798 8.15642 11.852 8.00642 12.158 7.70042L13.79 6.05042C14.276 5.55842 14.366 5.32442 14.828 5.76242L14.954 5.88242L12.236 8.60042ZM12.554 8.87042L15.194 6.23042C15.614 6.79442 16.598 8.31242 16.112 9.43442C15.674 10.4364 15.458 10.4844 14.912 11.2344C13.802 12.5004 12.404 13.8564 11.312 14.8764C10.556 15.4224 10.526 15.6744 9.512 16.0764C8.432 16.5024 6.872 15.5424 6.284 15.1404L8.924 12.5004L9.632 13.4724C9.836 13.7484 10.352 13.4364 10.712 13.0764C11.336 12.4464 12.62 11.1684 13.112 10.6344C13.466 10.2804 13.784 9.76442 13.508 9.55442L12.554 8.87042ZM5.942 14.9004L5.816 14.7744C5.408 14.3304 5.642 14.2344 6.128 13.7544L7.772 12.1224C8.078 11.8284 8.222 11.7624 8.534 12.0564L8.654 12.1824L5.942 14.9004Z" fill="white"/>
</g>
</svg>
