<svg id="lead-icon" viewBox="0 0 86 75" fill="none" xmlns="http://www.w3.org/2000/svg" preserveAspectRatio="xMidYMid meet">
<path d="M33.2117 56.7175C34.1301 58.9265 35.0968 61.2079 36.861 62.8224C39.4567 65.1957 43.6377 65.6162 46.6491 63.8036C49.6604 61.991 51.2555 58.1048 50.3758 54.6971" fill="white"/>
<path d="M32.4673 56.9253C33.3084 58.9458 34.1687 60.9952 35.6237 62.6628C36.9336 64.1564 38.7413 65.1763 40.6989 65.534C44.648 66.2494 48.6067 64.4271 50.4 60.7874C51.357 58.8346 51.647 56.6208 51.125 54.4989C50.8882 53.5322 49.3994 53.943 49.6363 54.9097C50.3951 57.9936 49.0031 61.4979 46.2624 63.1414C43.5218 64.7848 39.5389 64.3788 37.1946 62.0731C35.643 60.5505 34.7778 58.4866 33.9561 56.5145C33.7966 56.1278 33.4437 55.8571 33.0038 55.9731C32.6365 56.0698 32.303 56.5387 32.4625 56.9253H32.4673Z" fill="#EE725E"/>
<path d="M13.8966 25.9468C12.3305 24.9994 10.1844 25.2556 8.75849 26.4108C7.33257 27.5612 6.63654 29.485 6.78638 31.3072C6.93622 33.1295 7.87877 34.8406 9.19834 36.1118C10.5179 37.3831 12.2 38.2338 13.9546 38.7607" fill="white"/>
<path d="M14.2833 25.2797C11.5088 23.6895 7.98028 25.0574 6.65587 27.8802C5.21546 30.9496 6.33202 34.4781 8.72465 36.7257C10.1409 38.0598 11.9003 38.9347 13.7468 39.505C14.699 39.7999 15.105 38.3111 14.1576 38.0163C10.9964 37.0351 7.67576 34.6569 7.54525 31.0317C7.49208 29.5188 8.07211 27.8947 9.30468 26.9522C10.5373 26.0096 12.1903 25.8549 13.5051 26.609C14.3703 27.102 15.1485 25.7679 14.2833 25.2749V25.2797Z" fill="#EE725E"/>
<path d="M66.7569 23.24C68.0571 22.3845 69.8939 22.5585 71.1265 23.5059C72.359 24.4532 72.9971 26.0628 72.9391 27.6193C72.8811 29.1757 72.185 30.6644 71.1748 31.8535C70.3966 32.767 69.4299 33.5211 68.352 34.0528C66.5925 34.9228 64.6059 35.1838 62.658 35.4352" fill="white"/>
<path d="M67.1484 23.907C68.5405 23.0466 70.3676 23.5058 71.3295 24.7916C72.2914 26.0773 72.3735 27.8899 71.7838 29.398C71.1506 31.0269 69.8359 32.361 68.323 33.1972C66.5974 34.1494 64.5866 34.4104 62.6628 34.6618C62.2471 34.715 61.8943 34.9808 61.8894 35.4352C61.8894 35.8122 62.2471 36.2617 62.6628 36.2085C64.5624 35.962 66.4765 35.7155 68.2505 34.947C69.86 34.2509 71.2425 33.1295 72.2623 31.7036C74.1765 29.0403 74.365 24.9511 71.518 22.8388C70.0389 21.7416 67.9411 21.5966 66.3654 22.5729C65.5195 23.095 66.2977 24.4339 67.1436 23.907H67.1484Z" fill="#EE725E"/>
<path d="M25.2556 70.996C21.5047 73.2436 16.1056 74.858 11.7263 74.7952C9.64786 74.7662 7.49691 73.8333 6.41901 72.0545C5.34112 70.2758 5.67464 67.6463 7.40507 66.4959C4.60158 66.3895 1.91893 64.6881 0.623524 62.1988C0.106329 61.2031 -0.198188 60.0188 0.140164 58.9458C0.48335 57.8534 1.45007 57.0413 2.50863 56.6063C3.56719 56.1713 4.72725 56.0505 5.86798 55.9345C4.76592 55.0161 3.63969 54.0638 2.95332 52.8023C2.26695 51.5407 2.11227 49.8828 2.95815 48.7227C3.41735 48.0944 4.11338 47.6787 4.81426 47.3403C6.62202 46.4606 8.59413 45.9627 10.3826 45.0443C12.171 44.126 13.8434 42.6662 14.2785 40.7038C14.5926 39.302 14.2398 37.8374 14.3413 36.4019C14.3558 36.2182 14.38 36.0152 14.5056 35.8798C14.6893 35.672 15.0132 35.6768 15.2887 35.701C20.1416 36.1312 24.8495 38.0743 28.5859 41.2016C29.6106 42.0572 30.5725 43.0094 31.3314 44.1115C32.9072 46.3929 33.5355 49.2061 33.7337 51.9757C33.9947 55.6203 33.5597 59.347 32.1676 62.7257C30.7755 66.1044 28.3926 69.1157 25.2604 70.9911L25.2556 70.996Z" fill="#F3BFB6"/>
<path d="M70.4836 42.5985C72.0545 43.6184 73.8864 44.2565 75.2689 45.5277C76.6513 46.7941 77.4295 49.0514 76.2936 50.5402C79.5659 50.8495 82.5144 53.363 83.3361 56.5435C83.6117 57.6021 83.6503 58.7766 83.1331 59.7385C82.6159 60.7004 81.4124 61.3384 80.3876 60.9614C82.1422 61.2369 83.5681 62.629 84.2932 64.2531C85.0134 65.8772 85.1246 67.6994 85.0762 69.4734C85.0617 70.0099 85.0279 70.5561 84.8539 71.0685C84.2255 72.9052 82.0601 73.6448 80.1508 74.0025C75.6894 74.8435 71.1361 75.0755 66.9744 72.9681C64.4803 71.7065 62.3196 69.8456 60.4829 67.7333C56.935 63.6537 54.581 58.5591 53.7158 53.2228C53.508 51.9516 53.4886 50.7238 53.45 49.4526C53.4065 47.988 52.9763 46.5041 52.7926 45.0395C52.4011 41.8832 52.3769 38.6737 52.7878 35.5125C53.0294 33.6274 53.4451 31.7133 54.4505 30.1037C55.4559 28.4941 57.1525 27.2084 59.0521 27.1214C60.6182 27.0489 62.9867 28.0059 64.0066 29.224C65.911 31.4958 64.9298 33.7434 65.7902 36.397C66.6022 38.9057 68.2601 41.1581 70.4788 42.5985H70.4836Z" fill="#F3BFB6"/>
<path d="M13.7274 32.1773C14.6603 38.9926 17.9665 45.3633 22.5294 50.5063C24.4145 52.6331 26.5848 54.61 29.2336 55.6299C31.1526 56.3694 33.2358 56.5724 35.2949 56.6595C41.2983 56.9156 47.6786 56.1036 52.4397 52.4397C54.0348 51.212 55.3931 49.7087 56.7126 48.191C58.2546 46.4219 59.7675 44.6141 60.942 42.584C62.513 39.8627 63.4217 36.8175 64.1032 33.753C65.36 28.1267 65.8868 22.22 64.5382 16.6131C63.1897 11.0061 59.7675 5.72295 54.6439 3.07897C51.8404 1.63373 48.6695 1.02953 45.5229 0.841015C43.4927 0.720175 41.4288 0.768511 39.4712 1.31954C37.6924 1.8174 36.0538 2.71645 34.4346 3.60584C30.6982 5.65528 26.9667 7.70473 23.2931 9.86535C19.3924 12.1565 16.7049 14.6506 15.1147 18.9477C13.5244 23.2448 13.1135 27.7448 13.7226 32.1773H13.7274Z" fill="white"/>
<path d="M12.983 32.3851C13.7612 37.9341 16.0669 43.2075 19.3344 47.7366C20.9246 49.9456 22.7179 52.1014 24.8205 53.8415C27.0585 55.6927 29.5671 56.8093 32.448 57.196C35.3288 57.5827 38.1951 57.5778 41.0276 57.2975C43.7006 57.0365 46.3397 56.4758 48.8145 55.4221C51.2893 54.3683 53.5998 52.6814 55.5332 50.6561C57.5972 48.4955 59.6321 46.1657 61.2224 43.6281C62.8126 41.0904 63.8325 38.1613 64.5576 35.2321C65.2826 32.3029 65.8336 29.1611 66.0318 26.0773C66.3992 20.4316 65.5146 14.6216 62.5806 9.71068C61.2852 7.55006 59.6273 5.60212 57.631 4.0602C55.4511 2.3781 52.9038 1.28088 50.2211 0.68151C47.3258 0.0386409 44.1936 -0.227207 41.2499 0.169148C38.0791 0.594505 35.3626 2.20893 32.6075 3.72185C29.8523 5.23476 26.9425 6.84435 24.1438 8.46844C21.988 9.71551 19.8516 11.0158 18.0873 12.7994C14.2494 16.6759 12.8139 22.4569 12.7075 27.769C12.6785 29.2384 12.7704 30.703 12.9637 32.1628C13.0169 32.5784 13.2779 32.9313 13.7371 32.9361C14.1141 32.9361 14.5636 32.5784 14.5105 32.1628C14.1334 29.3206 14.1528 26.4204 14.6651 23.5976C15.1243 21.0648 15.8929 18.503 17.2656 16.3085C18.4063 14.4863 19.9724 12.9927 21.7319 11.7746C24.0472 10.165 26.5848 8.84546 29.0403 7.46789C31.7036 5.97914 34.3572 4.40822 37.1027 3.06931C39.8482 1.7304 42.6469 1.42105 45.6485 1.60956C48.4278 1.78357 51.2603 2.29593 53.7931 3.4995C55.9489 4.52422 57.8195 6.02747 59.3663 7.84007C62.687 11.736 64.2724 16.8209 64.5334 21.8769C64.6881 24.8447 64.4367 27.8222 63.934 30.7465C63.4313 33.6708 62.7885 36.426 61.7541 39.1183C60.71 41.8203 59.1149 44.1839 57.2588 46.3881C55.4027 48.5922 53.6046 50.7576 51.2748 52.3382C47.0213 55.2335 41.7285 55.9876 36.687 55.9199C33.9415 55.8812 31.051 55.7362 28.5569 54.4747C26.2368 53.3049 24.3662 51.444 22.6889 49.4961C19.2619 45.5132 16.6082 40.8052 15.2452 35.7203C14.9116 34.4829 14.6603 33.231 14.4863 31.9646C14.4283 31.5489 13.9014 31.3265 13.5341 31.4232C13.0894 31.5392 12.9347 31.9646 12.9927 32.3754L12.983 32.3851Z" fill="#EE725E"/>
<path d="M21.118 26.9377C28.4651 25.0574 35.0823 20.4413 39.3842 14.1963C40.6168 12.403 41.685 10.4358 42.0282 8.28482C42.2263 9.85091 43.0577 11.2527 43.9084 12.5819C46.3881 16.4536 49.2496 20.1465 52.8748 22.9741C54.6439 24.3517 56.5966 25.5069 58.6848 26.3335C60.304 26.9764 63.557 28.2814 65.2488 27.5371C68.7725 25.9855 69.5265 19.7405 68.4583 16.6518C68.0523 15.4772 67.8297 13.5824 67.0999 12.5819C65.8963 10.924 65.2888 9.69623 63.8001 8.28482C61.4316 6.04203 58.9132 3.84826 56.1001 2.2C53.2821 0.551744 48.8339 0.0725295 45.5809 0.32871C43.7151 0.473718 41.1485 -0.289985 39.3842 0.328716C30.0364 1.96593 21.7321 7.88858 15.4001 15.4C14.8055 16.1057 13.8095 18.9396 13.4857 19.8C13.012 21.0616 13.142 21.7804 13.2 23.1C13.2387 23.8734 13.0169 26.8652 13.4858 27.5467C14.6603 29.2627 19.5326 27.3485 21.1277 26.9377H21.118Z" fill="#F3BFB6"/>
<path d="M9.78322 31.8099C10.2617 31.9404 10.7354 32.0999 11.1995 32.2836C11.2575 32.3078 11.3106 32.3271 11.3686 32.3513C11.4218 32.3755 11.4025 32.3658 11.301 32.3223C11.3348 32.3368 11.3638 32.3513 11.3976 32.361C11.5088 32.4093 11.6152 32.4576 11.7263 32.5108C11.9583 32.622 12.1904 32.738 12.4175 32.8588C12.7704 33.0522 13.2779 32.9603 13.4761 32.5833C13.6743 32.2063 13.5776 31.7326 13.2006 31.5247C12.2532 31.0076 11.243 30.6015 10.2037 30.3115C9.81222 30.2052 9.34819 30.442 9.25152 30.8529C9.15485 31.2637 9.37236 31.6891 9.79289 31.8051L9.78322 31.8099Z" fill="#EE725E"/>
<path d="M65.534 32.9604C65.6258 32.4287 65.8192 31.7423 65.998 31.3508C66.1188 31.0849 66.2542 30.8239 66.3992 30.5726C66.4765 30.442 66.5587 30.3115 66.6457 30.1859C66.6844 30.1279 66.7231 30.0699 66.7666 30.0119C66.7666 30.0167 66.9019 29.8282 66.8487 29.9007C67.5883 28.934 68.4535 28.2669 69.5555 27.7787C69.9374 27.6096 70.0292 27.0537 69.8311 26.7202C69.599 26.3287 69.1544 26.2706 68.7725 26.4447C66.3315 27.5322 64.4851 29.9152 64.0404 32.5495C63.9727 32.9604 64.1467 33.3809 64.5818 33.5017C64.954 33.6032 65.4615 33.376 65.534 32.9604Z" fill="#EE725E"/>
<path d="M32.5011 49.1771C34.7294 51.1057 37.5764 51.8452 40.4717 51.3619C41.9363 51.1153 43.4154 50.6513 44.793 50.1003C46.069 49.5879 47.1808 48.9209 48.0267 47.8188C48.2828 47.4853 48.075 46.9584 47.7511 46.7603C47.3548 46.5234 46.9488 46.7071 46.6926 47.0358C46.04 47.8865 45.0105 48.3795 44.0293 48.742C42.816 49.1916 41.5545 49.5879 40.2832 49.8296C37.8954 50.2791 35.44 49.6846 33.5935 48.0847C32.8443 47.437 31.7471 48.5245 32.5011 49.1771Z" fill="#EE725E"/>
<path d="M34.8261 30.0602C38.635 29.5575 42.4777 29.4318 46.3107 29.6832C47.3016 29.7508 47.3016 28.2041 46.3107 28.1364C42.4777 27.8851 38.635 28.0107 34.8261 28.5134C34.4104 28.5666 34.0576 28.8276 34.0527 29.2868C34.0527 29.6638 34.4104 30.1134 34.8261 30.0602Z" fill="#EE725E"/>
<path d="M40.1672 29.1321C39.9207 30.7949 40.1286 32.4286 40.8053 33.9657C40.9551 34.3089 41.1388 34.6328 41.3321 34.9518C41.4385 35.1258 41.7817 35.5802 41.6898 35.8122C41.5206 36.2327 40.8681 35.6817 40.7183 35.5173C40.0464 34.7826 38.954 35.8798 39.6259 36.6097C40.2977 37.3396 41.3321 37.7456 42.2795 37.2816C43.3042 36.7837 43.3961 35.6382 42.9611 34.7053C42.7725 34.2944 42.5067 33.9271 42.3037 33.5259C42.1007 33.1247 41.9412 32.6897 41.8252 32.245C41.5931 31.3701 41.5255 30.4372 41.656 29.543C41.7188 29.1321 41.5545 28.7116 41.1146 28.5908C40.7521 28.4893 40.2252 28.7164 40.1624 29.1321H40.1672Z" fill="#EE725E"/>
<path d="M16.0959 27.4935C18.1598 27.131 20.219 26.7636 22.2829 26.4011C22.7083 26.3286 23.1481 26.2416 23.4913 25.9806C23.9312 25.6422 24.1148 25.0815 24.2937 24.5595C25.0381 22.3796 26.0386 20.2866 27.276 18.3435C28.0156 20.4848 28.7551 22.6309 29.4946 24.7722C29.6106 25.1057 29.7363 25.4586 30.0215 25.6664C30.2245 25.8163 30.4759 25.8694 30.7224 25.9226C32.854 26.377 34.9856 26.8265 37.1124 27.2808C35.3916 28.9871 33.6709 30.6885 31.9501 32.3948C31.6891 32.6558 31.4136 32.9313 31.3217 33.2938C31.2444 33.5887 31.3024 33.9029 31.3604 34.2026C31.7616 36.252 32.1579 38.2966 32.5591 40.3461C31.1767 39.0265 29.6638 37.8423 28.0542 36.8175C27.6337 36.5469 27.1793 36.2858 26.6815 36.252C26.0773 36.2085 25.5069 36.513 24.9752 36.803C23.0079 37.8858 21.0358 38.9685 19.0686 40.0512C19.4117 37.9583 19.7598 35.8653 20.1029 33.7772C20.1609 33.4292 20.219 33.0667 20.1271 32.7235C20.0498 32.4383 19.8758 32.1918 19.7018 31.9549C18.5369 30.3695 17.1786 28.9291 15.6705 27.6675" fill="white"/>
<path d="M16.3037 28.2379C17.8118 27.9721 19.3151 27.7062 20.8232 27.4404C22.0847 27.218 23.6653 27.2035 24.4677 26.0434C24.8157 25.5408 24.9752 24.9269 25.1782 24.3565C25.4102 23.7088 25.6664 23.0659 25.9468 22.4376C26.522 21.1567 27.189 19.9193 27.9382 18.735L26.5268 18.5514C26.9715 19.8468 27.421 21.1373 27.8657 22.4327C28.0977 23.0998 28.3249 23.762 28.5569 24.429C28.7454 24.9752 28.8953 25.5891 29.2916 26.0338C29.688 26.4785 30.1955 26.6041 30.7417 26.7201C31.4281 26.8652 32.1096 27.0102 32.796 27.1552C34.1639 27.4452 35.5366 27.7352 36.9045 28.0252L36.5614 26.7347C35.5898 27.6965 34.6183 28.6584 33.6467 29.6203C33.1488 30.1133 32.6461 30.6112 32.1483 31.1042C31.7036 31.5441 31.1912 31.9646 30.848 32.4915C30.1327 33.579 30.7562 35.1355 30.9834 36.2955C31.2589 37.7118 31.5344 39.1328 31.8148 40.5491L33.1053 39.795C32.0951 38.838 31.0269 37.9486 29.9007 37.1366C28.9291 36.4309 27.7497 35.4303 26.4785 35.4738C25.2072 35.5173 23.8925 36.513 22.7856 37.1172C21.4129 37.8713 20.0449 38.6253 18.6722 39.3794L19.8081 40.2542C20.0256 38.9347 20.2431 37.6199 20.4606 36.3004C20.5718 35.643 20.6781 34.9808 20.7893 34.3234C20.9005 33.666 21.0358 33.0522 20.8425 32.4286C20.5235 31.4087 19.5519 30.4662 18.8607 29.6831C18.0438 28.7599 17.1593 27.9092 16.2167 27.1165C15.4579 26.4833 14.3606 27.5709 15.1243 28.2089C15.9316 28.8856 16.7001 29.6106 17.4155 30.384C17.7973 30.7949 18.1647 31.2202 18.5175 31.6601C18.7979 32.0129 19.2039 32.419 19.3586 32.854C19.5277 33.3374 19.2909 34.0092 19.2087 34.4974C19.1121 35.0775 19.0154 35.6575 18.9187 36.2423C18.7205 37.4411 18.5224 38.6446 18.3242 39.8434C18.2178 40.4911 18.8269 41.0614 19.4601 40.7183C20.6201 40.0802 21.7802 39.4422 22.9403 38.8042C23.501 38.4948 24.0665 38.1855 24.6272 37.8761C25.1492 37.5909 25.7099 37.1801 26.2948 37.0544C26.8168 36.9432 27.2422 37.2187 27.6675 37.4846C28.1654 37.7988 28.6488 38.1323 29.1273 38.4755C30.1472 39.215 31.1042 40.0271 32.0178 40.8923C32.6026 41.4433 33.4534 40.8826 33.3083 40.1382C33.0618 38.8767 32.8153 37.6151 32.5688 36.3584C32.448 35.73 32.3223 35.0968 32.2015 34.4684C32.1435 34.1784 31.9984 33.7917 32.0709 33.4969C32.1193 33.2987 32.2981 33.144 32.4335 33.0087C34.1494 31.2541 35.9185 29.5575 37.6634 27.8319C38.0598 27.4404 37.9003 26.6621 37.3202 26.5413C36.1022 26.2851 34.8841 26.0241 33.666 25.7679C33.057 25.6374 32.448 25.5117 31.8389 25.3812C31.4184 25.2942 30.6934 25.2797 30.3985 24.9511C30.1037 24.6224 30.0022 23.8925 29.8572 23.472C29.6541 22.8823 29.4511 22.2877 29.2433 21.698C28.8373 20.5138 28.4264 19.3344 28.0204 18.1502C27.8029 17.5218 26.9763 17.3865 26.609 17.9665C25.9371 19.0347 25.3281 20.1368 24.7964 21.2775C24.2647 22.4182 23.8828 23.6315 23.3995 24.7964C23.1675 25.3522 22.8388 25.5166 22.2636 25.6326C21.5724 25.7728 20.8715 25.8791 20.1803 25.9999C18.7544 26.2513 17.3236 26.5026 15.8977 26.754C14.9213 26.928 15.3322 28.4167 16.3086 28.2427L16.3037 28.2379Z" fill="#EE725E"/>
<path d="M27.2228 27.5757C25.9951 29.1901 24.8012 30.8287 23.6411 32.4915C23.4091 32.825 23.5686 33.3664 23.9166 33.5501C24.313 33.7579 24.7239 33.6274 24.9752 33.2745C26.1401 31.6118 27.334 29.9732 28.5569 28.3588C28.8034 28.0349 28.6197 27.4791 28.2814 27.3002C27.8754 27.0827 27.4838 27.2325 27.2228 27.5757Z" fill="#EE725E"/>
<path d="M27.7884 31.3411C27.4645 31.5248 27.1552 31.7665 26.9038 32.042C26.6525 32.3175 26.4253 32.6317 26.2658 32.9749C26.2078 33.0619 26.1788 33.1585 26.1739 33.26C26.1498 33.3616 26.1546 33.4631 26.1884 33.5694C26.2368 33.7482 26.377 33.9416 26.5413 34.0334C26.7201 34.1301 26.9377 34.1736 27.1358 34.1108C27.3147 34.0528 27.5177 33.9368 27.5999 33.7579C27.6965 33.5501 27.8125 33.3519 27.9527 33.1682L27.8319 33.3229C27.9866 33.1247 28.1654 32.9459 28.3636 32.7912L28.2089 32.912C28.3249 32.825 28.4409 32.7429 28.5666 32.6752C28.7358 32.5785 28.8711 32.3997 28.9194 32.2112C28.9678 32.0226 28.9484 31.781 28.8421 31.6166C28.7358 31.4523 28.5762 31.3073 28.3781 31.2638C28.1799 31.2203 27.9672 31.2348 27.7835 31.3411H27.7884Z" fill="#EE725E"/>
<path d="M43.894 26.0725C45.46 27.6627 47.0261 29.2482 48.5922 30.8384C48.7807 31.0269 48.9741 31.2299 49.0514 31.4861C49.1239 31.7278 49.0804 31.9888 49.0321 32.2402C48.6212 34.4346 47.9445 36.5856 47.0261 38.6205C49.5734 38.0936 52.0241 37.1221 54.2475 35.7687C54.5472 35.585 54.8662 35.3917 55.2142 35.4013C55.5139 35.411 55.7846 35.5657 56.0408 35.7155C57.6504 36.6629 59.26 37.6151 60.8696 38.5625C60.7971 36.5469 60.7246 34.5313 60.6521 32.5157C60.6375 32.1048 60.623 31.6795 60.7584 31.2928C60.9372 30.7756 61.3529 30.384 61.7493 30.0167C62.948 28.905 64.1467 27.7932 65.3455 26.6815C63.3782 26.319 61.4109 25.9565 59.4436 25.5939C59.1826 25.5456 58.912 25.4924 58.6993 25.3281C58.4528 25.1348 58.3416 24.8206 58.2401 24.5257C57.4425 22.2201 56.645 19.9145 55.8474 17.604C54.6777 19.6148 53.5031 21.6207 52.3334 23.6315C52.1256 23.9844 51.9081 24.3517 51.5552 24.5596C51.2604 24.7336 50.9027 24.7722 50.5595 24.8109C48.4279 25.0333 46.2963 25.2556 44.1695 25.4779" fill="white"/>
<path d="M43.3477 26.6187L45.866 29.1708L47.2098 30.5339C47.5143 30.8432 48.2393 31.3411 48.3119 31.7761C48.3844 32.2111 48.1185 32.9023 48.0122 33.347C47.8817 33.8884 47.7367 34.4298 47.5771 34.9663C47.2436 36.078 46.8376 37.1704 46.3639 38.2338C46.0884 38.8525 46.5379 39.5195 47.2388 39.3697C49.6024 38.867 51.8887 38.0115 53.9913 36.8224C54.4022 36.5904 54.9484 36.0732 55.4269 36.252C55.9973 36.4695 56.5435 36.9046 57.0703 37.2139C58.2111 37.8858 59.3518 38.5577 60.4925 39.2344C60.9856 39.5244 61.6768 39.157 61.6574 38.5673C61.6139 37.4024 61.5753 36.2424 61.5318 35.0775C61.5124 34.5361 61.4931 33.9899 61.4738 33.4485C61.4544 32.9072 61.3722 32.332 61.4496 31.7954C61.5801 30.9109 62.7257 30.1762 63.3395 29.6058C64.1951 28.8131 65.0506 28.0204 65.9062 27.2229C66.3074 26.8507 66.1382 26.0386 65.563 25.9323C64.3836 25.7148 63.1993 25.4973 62.0199 25.2797C61.3916 25.1637 60.7584 25.0477 60.13 24.9317C59.8932 24.8882 59.4726 24.8882 59.2648 24.7577C59.057 24.6272 59.0279 24.4194 58.9554 24.2067C58.1627 21.9397 57.3845 19.6679 56.6015 17.3961C56.3888 16.7823 55.5381 16.6131 55.1901 17.2125C54.5424 18.3194 53.8995 19.4311 53.2518 20.538L52.2802 22.2007C51.9999 22.6793 51.7534 23.2641 51.3909 23.6895C51.0283 24.1149 50.3661 24.0568 49.8586 24.11C49.2254 24.1777 48.597 24.2405 47.9638 24.3082C46.7023 24.4387 45.4407 24.574 44.1743 24.7046C43.1931 24.8061 43.1834 26.3528 44.1743 26.2513C45.5954 26.1015 47.0164 25.9516 48.4375 25.8066C49.1481 25.7341 49.8586 25.6616 50.5691 25.5843C51.183 25.5166 51.7679 25.4199 52.2512 25.0091C52.6621 24.661 52.9183 24.168 53.189 23.7137L54.2814 21.8431C55.0306 20.5622 55.7749 19.2813 56.5241 18.0003L55.1127 17.8167C55.5478 19.0831 55.9876 20.3446 56.4226 21.611C56.6402 22.2442 56.8577 22.8774 57.08 23.5107C57.3024 24.1439 57.4522 24.7916 57.7615 25.3619C58.3706 26.4785 59.9077 26.4688 61.0194 26.6718C62.397 26.928 63.7745 27.1794 65.1521 27.4355L64.8089 26.145C63.8954 26.9908 62.9818 27.8367 62.0731 28.6826C61.2949 29.4076 60.304 30.123 59.9995 31.1961C59.695 32.2691 59.9318 33.6177 59.9705 34.7343C60.0188 36.0152 60.0623 37.2913 60.1107 38.5722L61.2756 37.9051C60.0672 37.1946 58.8588 36.4792 57.6552 35.7687C56.5145 35.0968 55.4801 34.2509 54.146 34.9518C52.9859 35.5608 51.8887 36.2375 50.6658 36.7306C49.4429 37.2236 48.1427 37.6103 46.8328 37.8858L47.7077 39.0217C48.2345 37.8375 48.7034 36.629 49.0756 35.3868C49.2689 34.7439 49.4381 34.0962 49.5879 33.4437C49.7233 32.854 49.9263 32.1918 49.8586 31.5828C49.7909 30.9737 49.3946 30.5532 48.9837 30.1375C48.481 29.6252 47.9783 29.1176 47.4708 28.6053C46.4654 27.5854 45.4552 26.5655 44.4498 25.5408C43.7489 24.8302 42.6565 25.9226 43.3574 26.6332L43.3477 26.6187Z" fill="#EE725E"/>
<path d="M54.4312 26.464C53.4258 28.2669 52.5074 30.1182 51.6809 32.0129C51.5117 32.3948 51.5697 32.8443 51.9564 33.0715C52.2851 33.2648 52.8458 33.1778 53.0149 32.796C53.8463 30.906 54.7647 29.0548 55.7653 27.247C55.9683 26.8845 55.8523 26.406 55.4898 26.1885C55.1272 25.9709 54.6342 26.1014 54.4312 26.464Z" fill="#EE725E"/>
<path d="M56.2148 30.2583C55.9006 30.848 55.5816 31.4426 55.2674 32.0323C55.1707 32.2159 55.1321 32.4286 55.1901 32.6268C55.2384 32.8056 55.3786 32.999 55.5429 33.0908C55.9006 33.2793 56.3985 33.1923 56.6015 32.8153C56.9157 32.2256 57.2347 31.6311 57.5489 31.0414C57.6455 30.8577 57.6842 30.645 57.6262 30.4468C57.5779 30.268 57.4377 30.0747 57.2733 29.9828C56.9157 29.7943 56.4178 29.8813 56.2148 30.2583Z" fill="#EE725E"/>
</svg>
