<svg xmlns="http://www.w3.org/2000/svg" viewBox="0 0 15 16" fill="none">
  <path d="M13.7169 6.23664C13.6777 6.12089 13.6054 6.01917 13.509 5.94408C13.4125 5.86899 13.2962 5.82381 13.1744 5.81414L9.61125 5.53101L8.06938 2.11789C8.02027 2.00796 7.9404 1.91459 7.83941 1.84905C7.73841 1.78351 7.6206 1.7486 7.5002 1.74854C7.37981 1.74847 7.26196 1.78325 7.16089 1.84868C7.05982 1.91411 6.97985 2.00739 6.93063 2.11726L5.38875 5.53101L1.82563 5.81414C1.70591 5.82362 1.59146 5.8674 1.49597 5.94022C1.40048 6.01305 1.328 6.11184 1.28718 6.22478C1.24637 6.33773 1.23896 6.46004 1.26584 6.57708C1.29272 6.69412 1.35275 6.80094 1.43875 6.88476L4.07188 9.45164L3.14063 13.4841C3.11235 13.6062 3.12141 13.7339 3.16664 13.8508C3.21186 13.9676 3.29117 14.0682 3.39425 14.1394C3.49734 14.2106 3.61945 14.2492 3.74474 14.2502C3.87003 14.2511 3.99272 14.2144 4.09688 14.1448L7.5 11.876L10.9031 14.1448C11.0096 14.2154 11.1351 14.2518 11.2629 14.249C11.3907 14.2462 11.5145 14.2044 11.6177 14.1291C11.721 14.0538 11.7987 13.9487 11.8405 13.8279C11.8822 13.7072 11.886 13.5765 11.8513 13.4535L10.7081 9.45352L13.5431 6.90227C13.7288 6.73477 13.7969 6.47351 13.7169 6.23664Z" fill="#FEF098"/>
</svg>
