<svg width="138" height="70" viewBox="0 0 138 70" fill="none" xmlns="http://www.w3.org/2000/svg">
<path d="M137.944 40.0652L109.477 16L25.8535 23.6304L0.944443 47.1087L81.0094 70L137.944 40.0652Z" fill="#FEF098"/>
<path d="M71.4373 8.8125C72.8631 8.8125 74.699 9.59375 76.9451 11.1562C80.0701 13.1875 81.6326 14.6719 81.6326 15.6094C82.5701 16.9961 83.0388 18.2852 83.0388 19.4766C83.117 19.7695 83.1951 20.9023 83.2732 22.875C83.2732 24.2031 82.6482 26.1562 81.3982 28.7344C81.281 28.7344 80.3045 29.7109 78.4685 31.6641C79.699 31.8789 81.0662 32.9336 82.5701 34.8281C83.6638 37.25 84.2107 39.4375 84.2107 41.3906V43.3828C83.6638 45.8047 82.9217 47.0156 81.9842 47.0156C81.5545 47.5625 80.3045 47.8359 78.2342 47.8359C77.4138 47.9141 75.7732 47.9531 73.3123 47.9531H64.7576C64.1326 47.9531 63.8201 47.6406 63.8201 47.0156C63.8201 46.5273 64.1326 46.2539 64.7576 46.1953H73.3123C74.9138 46.1953 77.1013 46.1562 79.8748 46.0781C81.1053 45.6094 81.7303 45.2578 81.7498 45.0234C82.2185 44.0078 82.4529 43.3828 82.4529 43.1484V41.0391C82.4529 39.5352 81.906 37.6602 80.8123 35.4141C79.8553 34.3008 78.4099 33.4023 76.4763 32.7188C75.1678 33.4219 74.074 33.7734 73.1951 33.7734H72.0232C71.0076 33.5781 70.4998 33.1484 70.4998 32.4844C70.4998 31.6836 71.3982 31.1758 73.1951 30.9609C73.1951 30.8828 73.3513 30.8438 73.6638 30.8438H74.367C74.7576 30.8438 75.3435 30.8828 76.1248 30.9609C76.8865 30.5117 77.7849 29.7695 78.8201 28.7344C79.9334 27.7578 80.6365 26.5469 80.9295 25.1016C81.3201 24.418 81.5154 23.7148 81.5154 22.9922C81.4178 19.7109 81.2224 18.0703 80.9295 18.0703C80.0506 15.9609 79.1912 14.75 78.3513 14.4375C75.1482 11.8594 72.8435 10.5703 71.4373 10.5703C70.7537 10.5703 68.5662 11.0781 64.8748 12.0938H64.6404C64.0154 12.0938 63.7029 11.7812 63.7029 11.1562C63.7029 10.5898 64.5232 10.1992 66.1638 9.98438C66.9646 9.61328 68.7224 9.22266 71.4373 8.8125Z" fill="#BABD71"/>
<path d="M71.4373 8.8125V8.3125H71.3997L71.3626 8.31811L71.4373 8.8125ZM76.9451 11.1562L76.6596 11.5667L76.666 11.5712L76.6726 11.5755L76.9451 11.1562ZM81.6326 15.6094H81.1326V15.7625L81.2184 15.8894L81.6326 15.6094ZM83.0388 19.4766H82.5388V19.5421L82.5557 19.6054L83.0388 19.4766ZM83.2732 22.875H83.7732V22.8651L83.7728 22.8552L83.2732 22.875ZM81.3982 28.7344V29.2344H81.7115L81.8481 28.9525L81.3982 28.7344ZM78.4685 31.6641L78.1042 31.3216L77.4692 31.9971L78.3825 32.1566L78.4685 31.6641ZM82.5701 34.8281L83.0258 34.6223L83.0003 34.5658L82.9617 34.5173L82.5701 34.8281ZM84.2107 43.3828L84.6984 43.4929L84.7107 43.4386V43.3828H84.2107ZM81.9842 47.0156V46.5156H81.7411L81.591 46.7067L81.9842 47.0156ZM78.2342 47.8359V47.3359H78.2104L78.1868 47.3382L78.2342 47.8359ZM64.7576 46.1953V45.6953H64.7342L64.7109 45.6975L64.7576 46.1953ZM79.8748 46.0781L79.8889 46.5779L79.9736 46.5755L80.0528 46.5454L79.8748 46.0781ZM81.7498 45.0234L81.2958 44.8139L81.2588 44.894L81.2515 44.9819L81.7498 45.0234ZM80.8123 35.4141L81.2618 35.1952L81.2335 35.1371L81.1914 35.0881L80.8123 35.4141ZM76.4763 32.7188L76.643 32.2473L76.4345 32.1736L76.2397 32.2783L76.4763 32.7188ZM72.0232 33.7734L71.9288 34.2644L71.9756 34.2734H72.0232V33.7734ZM73.1951 30.9609L73.2545 31.4574L73.6951 31.4047V30.9609H73.1951ZM76.1248 30.9609L76.075 31.4585L76.2378 31.4747L76.3788 31.3916L76.1248 30.9609ZM78.8201 28.7344L78.4904 28.3585L78.4781 28.3693L78.4665 28.3808L78.8201 28.7344ZM80.9295 25.1016L80.4954 24.8535L80.4554 24.9234L80.4394 25.0022L80.9295 25.1016ZM81.5154 22.9922H82.0154V22.9847L82.0152 22.9773L81.5154 22.9922ZM80.9295 18.0703L80.4679 18.2626L80.5961 18.5703H80.9295V18.0703ZM78.3513 14.4375L78.0378 14.827L78.101 14.8778L78.177 14.9061L78.3513 14.4375ZM64.8748 12.0938V12.5938H64.9423L65.0074 12.5758L64.8748 12.0938ZM66.1638 9.98438L66.2288 10.4801L66.3046 10.4702L66.3741 10.438L66.1638 9.98438ZM71.4373 8.8125V9.3125C72.7031 9.3125 74.4321 10.0171 76.6596 11.5667L76.9451 11.1562L77.2306 10.7458C74.9659 9.17036 73.023 8.3125 71.4373 8.3125V8.8125ZM76.9451 11.1562L76.6726 11.5755C78.2251 12.5846 79.3676 13.4442 80.1163 14.1555C80.4909 14.5113 80.7535 14.8175 80.9195 15.0748C81.0886 15.3369 81.1326 15.5098 81.1326 15.6094H81.6326H82.1326C82.1326 15.2402 81.9813 14.876 81.7598 14.5326C81.5351 14.1845 81.2118 13.8169 80.8051 13.4305C79.9913 12.6574 78.7901 11.7592 77.2176 10.737L76.9451 11.1562ZM81.6326 15.6094L81.2184 15.8894C82.1218 17.2257 82.5388 18.4179 82.5388 19.4766H83.0388H83.5388C83.5388 18.1524 83.0184 16.7665 82.0468 15.3293L81.6326 15.6094ZM83.0388 19.4766L82.5557 19.6054C82.5797 19.6954 82.6171 19.998 82.6572 20.5803C82.6958 21.1396 82.7346 21.9103 82.7736 22.8948L83.2732 22.875L83.7728 22.8552C83.7337 21.867 83.6944 21.085 83.6549 20.5115C83.6169 19.961 83.5761 19.5507 83.522 19.3477L83.0388 19.4766ZM83.2732 22.875H82.7732C82.7732 24.0807 82.195 25.945 80.9483 28.5162L81.3982 28.7344L81.8481 28.9525C83.1015 26.3675 83.7732 24.3256 83.7732 22.875H83.2732ZM81.3982 28.7344V28.2344C81.2548 28.2344 81.1474 28.2956 81.1274 28.3065C81.0851 28.3295 81.0472 28.3557 81.0178 28.3773C80.9574 28.4217 80.8888 28.4797 80.8162 28.5445C80.6688 28.6761 80.4705 28.8672 80.2244 29.1132C79.7305 29.6071 79.0231 30.3441 78.1042 31.3216L78.4685 31.6641L78.8329 32.0065C79.7499 31.0309 80.4488 30.303 80.9315 29.8204C81.1737 29.5782 81.3562 29.403 81.4822 29.2904C81.5463 29.2332 81.5876 29.1996 81.6102 29.183C81.6223 29.1741 81.6191 29.1774 81.6049 29.1851C81.5977 29.1891 81.5794 29.1986 81.5529 29.2081C81.5305 29.2161 81.4744 29.2344 81.3982 29.2344V28.7344ZM78.4685 31.6641L78.3825 32.1566C79.4211 32.338 80.6889 33.2625 82.1785 35.139L82.5701 34.8281L82.9617 34.5173C81.4435 32.6047 79.9769 31.4199 78.5545 31.1715L78.4685 31.6641ZM82.5701 34.8281L82.1144 35.0339C83.1889 37.4131 83.7107 39.5292 83.7107 41.3906H84.2107H84.7107C84.7107 39.3458 84.1388 37.0869 83.0258 34.6223L82.5701 34.8281ZM84.2107 41.3906H83.7107V43.3828H84.2107H84.7107V41.3906H84.2107ZM84.2107 43.3828L83.723 43.2727C83.454 44.4639 83.1464 45.3097 82.8176 45.8461C82.4873 46.3851 82.2008 46.5156 81.9842 46.5156V47.0156V47.5156C82.705 47.5156 83.2584 47.0407 83.6702 46.3687C84.0837 45.6942 84.4206 44.7236 84.6984 43.4929L84.2107 43.3828ZM81.9842 47.0156L81.591 46.7067C81.4873 46.8387 81.213 47.0122 80.6175 47.1424C80.0424 47.2682 79.2525 47.3359 78.2342 47.3359V47.8359V48.3359C79.2861 48.3359 80.1564 48.2669 80.8312 48.1193C81.4858 47.9761 82.0514 47.7394 82.3773 47.3245L81.9842 47.0156ZM78.2342 47.8359L78.1868 47.3382C77.394 47.4137 75.7771 47.4531 73.3123 47.4531V47.9531V48.4531C75.7693 48.4531 77.4337 48.4144 78.2816 48.3337L78.2342 47.8359ZM73.3123 47.9531V47.4531H64.7576V47.9531V48.4531H73.3123V47.9531ZM64.7576 47.9531V47.4531C64.5222 47.4531 64.4374 47.3946 64.408 47.3652C64.3786 47.3358 64.3201 47.2511 64.3201 47.0156H63.8201H63.3201C63.3201 47.4052 63.4178 47.7892 63.7009 48.0723C63.984 48.3554 64.368 48.4531 64.7576 48.4531V47.9531ZM63.8201 47.0156H64.3201C64.3201 46.8877 64.3554 46.8454 64.3837 46.8206C64.4298 46.7803 64.5459 46.7174 64.8043 46.6931L64.7576 46.1953L64.7109 45.6975C64.3443 45.7319 63.9917 45.8349 63.7252 46.068C63.4411 46.3167 63.3201 46.6552 63.3201 47.0156H63.8201ZM64.7576 46.1953V46.6953H73.3123V46.1953V45.6953H64.7576V46.1953ZM73.3123 46.1953V46.6953C74.9207 46.6953 77.1136 46.6561 79.8889 46.5779L79.8748 46.0781L79.8607 45.5783C77.0891 45.6564 74.907 45.6953 73.3123 45.6953V46.1953ZM79.8748 46.0781L80.0528 46.5454C80.6754 46.3082 81.1666 46.0927 81.5115 45.8987C81.6824 45.8026 81.8375 45.7007 81.958 45.5912C82.061 45.4975 82.2268 45.3205 82.2481 45.065L81.7498 45.0234L81.2515 44.9819C81.263 44.8435 81.3434 44.7984 81.2853 44.8512C81.2446 44.8882 81.1629 44.9474 81.0213 45.0271C80.7412 45.1846 80.3046 45.3793 79.6968 45.6109L79.8748 46.0781ZM81.7498 45.0234L82.2038 45.233C82.4404 44.7204 82.6219 44.2976 82.7453 43.9685C82.8069 43.8042 82.8565 43.6567 82.8913 43.529C82.9238 43.4099 82.9529 43.2751 82.9529 43.1484H82.4529H81.9529C81.9529 43.139 81.9527 43.1702 81.9266 43.2659C81.9028 43.3531 81.8645 43.4692 81.809 43.6174C81.698 43.9133 81.528 44.3109 81.2958 44.8139L81.7498 45.0234ZM82.4529 43.1484H82.9529V41.0391H82.4529H81.9529V43.1484H82.4529ZM82.4529 41.0391H82.9529C82.9529 39.425 82.3695 37.4699 81.2618 35.1952L80.8123 35.4141L80.3628 35.633C81.4425 37.8504 81.9529 39.6453 81.9529 41.0391H82.4529ZM80.8123 35.4141L81.1914 35.0881C80.1593 33.8875 78.6279 32.9491 76.643 32.2473L76.4763 32.7188L76.3097 33.1902C78.192 33.8556 79.5512 34.7141 80.4331 35.74L80.8123 35.4141ZM76.4763 32.7188L76.2397 32.2783C74.9598 32.966 73.9528 33.2734 73.1951 33.2734V33.7734V34.2734C74.1952 34.2734 75.3757 33.8778 76.713 33.1592L76.4763 32.7188ZM73.1951 33.7734V33.2734H72.0232V33.7734V34.2734H73.1951V33.7734ZM72.0232 33.7734L72.1176 33.2824C71.6515 33.1928 71.3654 33.0599 71.2036 32.923C71.0618 32.803 70.9998 32.669 70.9998 32.4844H70.4998H69.9998C69.9998 32.9638 70.1917 33.3767 70.5577 33.6864C70.9037 33.9792 71.3793 34.1588 71.9288 34.2644L72.0232 33.7734ZM70.4998 32.4844H70.9998C70.9998 32.3173 71.0749 32.1331 71.4196 31.9382C71.7833 31.7327 72.3797 31.562 73.2545 31.4574L73.1951 30.9609L73.1357 30.4645C72.2137 30.5747 71.4623 30.7654 70.9276 31.0676C70.3739 31.3806 69.9998 31.8506 69.9998 32.4844H70.4998ZM73.1951 30.9609H73.6951C73.6951 31.0389 73.6745 31.1152 73.6365 31.1815C73.6005 31.2447 73.5565 31.2856 73.5244 31.3097C73.467 31.3527 73.4225 31.3609 73.4336 31.3581C73.4505 31.3539 73.5178 31.3438 73.6638 31.3438V30.8438V30.3438C73.4974 30.3438 73.3303 30.3531 73.191 30.388C73.1239 30.4048 73.0208 30.4373 72.9244 30.5097C72.8139 30.5926 72.6951 30.745 72.6951 30.9609H73.1951ZM73.6638 30.8438V31.3438H74.367V30.8438V30.3438H73.6638V30.8438ZM74.367 30.8438V31.3438C74.7317 31.3438 75.2973 31.3807 76.075 31.4585L76.1248 30.9609L76.1745 30.4634C75.3897 30.3849 74.7835 30.3438 74.367 30.3438V30.8438ZM76.1248 30.9609L76.3788 31.3916C77.1927 30.9116 78.1254 30.1362 79.1737 29.0879L78.8201 28.7344L78.4665 28.3808C77.4445 29.4029 76.5803 30.1118 75.8708 30.5303L76.1248 30.9609ZM78.8201 28.7344L79.1498 29.1103C80.345 28.0619 81.1047 26.7539 81.4195 25.2009L80.9295 25.1016L80.4394 25.0022C80.1683 26.3398 79.5218 27.4538 78.4904 28.3585L78.8201 28.7344ZM80.9295 25.1016L81.3636 25.3496C81.7934 24.5974 82.0154 23.8095 82.0154 22.9922H81.5154H81.0154C81.0154 23.6202 80.8468 24.2385 80.4954 24.8535L80.9295 25.1016ZM81.5154 22.9922L82.0152 22.9773C81.9663 21.3333 81.8926 20.0848 81.7922 19.2417C81.7425 18.8242 81.6836 18.4823 81.6101 18.2353C81.5744 18.1154 81.5259 17.9845 81.4531 17.8733C81.3901 17.7772 81.2242 17.5703 80.9295 17.5703V18.0703V18.5703C80.8231 18.5703 80.74 18.531 80.6883 18.4933C80.6418 18.4593 80.6202 18.4268 80.6165 18.4211C80.6108 18.4125 80.6263 18.4354 80.6517 18.5206C80.7002 18.6837 80.7512 18.9571 80.7992 19.3599C80.8941 20.1574 80.9669 21.3698 81.0156 23.0071L81.5154 22.9922ZM80.9295 18.0703L81.391 17.878C80.944 16.8053 80.4929 15.938 80.0335 15.2907C79.5802 14.652 79.0832 14.1763 78.5257 13.9689L78.3513 14.4375L78.177 14.9061C78.4594 15.0112 78.8119 15.2973 79.218 15.8695C79.618 16.4331 80.036 17.226 80.4679 18.2626L80.9295 18.0703ZM78.3513 14.4375L78.6649 14.048C77.0521 12.7499 75.6508 11.7642 74.4646 11.1007C73.2926 10.4452 72.2722 10.0703 71.4373 10.0703V10.5703V11.0703C72.0087 11.0703 72.8437 11.34 73.9764 11.9735C75.0948 12.599 76.4475 13.547 78.0378 14.827L78.3513 14.4375ZM71.4373 10.5703V10.0703C71.0274 10.0703 70.2513 10.2133 69.1709 10.4641C68.0676 10.7202 66.5905 11.1031 64.7421 11.6117L64.8748 12.0938L65.0074 12.5758C66.8505 12.0688 68.3128 11.6899 69.397 11.4382C70.5042 11.1812 71.1636 11.0703 71.4373 11.0703V10.5703ZM64.8748 12.0938V11.5938H64.6404V12.0938V12.5938H64.8748V12.0938ZM64.6404 12.0938V11.5938C64.405 11.5938 64.3202 11.5352 64.2908 11.5058C64.2614 11.4764 64.2029 11.3917 64.2029 11.1562H63.7029H63.2029C63.2029 11.5458 63.3006 11.9298 63.5837 12.2129C63.8668 12.496 64.2508 12.5938 64.6404 12.5938V12.0938ZM63.7029 11.1562H64.2029C64.2029 11.1477 64.2021 11.1297 64.2363 11.0898C64.278 11.0413 64.3654 10.9698 64.5331 10.8899C64.8719 10.7286 65.4252 10.5854 66.2288 10.4801L66.1638 9.98438L66.0989 9.48861C65.2619 9.59822 64.5847 9.75775 64.1032 9.98705C63.634 10.2105 63.2029 10.5791 63.2029 11.1562H63.7029ZM66.1638 9.98438L66.3741 10.438C66.7232 10.2762 67.3191 10.095 68.1913 9.90118C69.0548 9.70928 70.1607 9.51104 71.512 9.30689L71.4373 8.8125L71.3626 8.31811C69.9991 8.52411 68.8686 8.72627 67.9743 8.92499C67.0887 9.1218 66.4052 9.32144 65.9536 9.53072L66.1638 9.98438Z" fill="#BABD71"/>
</svg>
