<svg width="136" height="59" viewBox="0 0 136 59" fill="none" xmlns="http://www.w3.org/2000/svg">
<path d="M136 24.0652L107.74 0L24.7273 7.63043L0 31.1087L79.4805 54L136 24.0652Z" fill="#FEF098"/>
<path d="M62.7272 6.88281C67.1413 7.58594 71.2038 8.44531 74.9147 9.46094C75.6764 10.1055 76.1452 11.043 76.3209 12.2734C76.5553 13.543 76.6725 14.3633 76.6725 14.7344V18.25C76.3014 26.6094 75.9498 30.7891 75.6178 30.7891C74.8366 33.582 73.8209 35.6914 72.5709 37.1172C70.1686 40.3594 68.1373 43.7578 66.4772 47.3125C66.4186 47.332 66.1842 47.7227 65.7741 48.4844C68.9186 49.8125 71.1842 50.4766 72.5709 50.4766C73.6647 50.6914 74.3288 50.8867 74.5631 51.0625C75.7741 50.6133 76.7116 49.832 77.3756 48.7188C78.2155 47.8008 78.8405 46.707 79.2506 45.4375C79.5045 45.2812 79.7389 45.2031 79.9538 45.2031C80.5788 45.2031 80.8913 45.5156 80.8913 46.1406C80.5592 47.5859 79.3092 49.4609 77.1413 51.7656C75.9694 52.3906 75.2663 52.7031 75.0319 52.7031C74.6413 52.6445 74.4459 52.5273 74.4459 52.3516L73.6256 52.4688H73.5084C70.403 52.0781 67.8248 51.375 65.7741 50.3594C65.5397 50.2812 65.2272 50.2422 64.8366 50.2422C64.0748 51.5898 63.0202 53.3086 61.6725 55.3984C61.5553 55.7109 61.2819 55.8672 60.8522 55.8672C60.2272 55.8672 59.9147 55.5547 59.9147 54.9297C59.9147 52.332 60.2663 50.8477 60.9694 50.4766C61.8678 49.3047 62.8834 48.4844 64.0163 48.0156C66.653 43.0742 68.2936 40.1055 68.9381 39.1094C71.7506 35.3398 73.1569 33.1523 73.1569 32.5469C74.0944 30.3008 74.5631 27.4492 74.5631 23.9922C74.7975 22.3906 74.9147 20.4766 74.9147 18.25V14.8516C74.6217 12.2734 74.2311 10.9844 73.7428 10.9844C70.11 10.0469 66.5553 9.26562 63.0788 8.64062L62.9616 10.0469V12.2734C62.9616 16.4922 62.7272 18.6016 62.2584 18.6016C62.1217 18.6797 61.9655 18.7188 61.7897 18.7188C61.2428 18.6016 60.9694 18.3281 60.9694 17.8984C61.1256 15.2227 61.2038 13.3477 61.2038 12.2734V10.2812C61.2038 8.28906 61.4772 7.15625 62.0241 6.88281H62.7272Z" fill="#BABD71"/>
<path d="M62.7272 6.88281L62.8058 6.38904L62.7668 6.38281H62.7272V6.88281ZM74.9147 9.46094L75.2377 9.07924L75.1533 9.00785L75.0467 8.97867L74.9147 9.46094ZM76.3209 12.2734L75.826 12.3441L75.8274 12.3542L75.8292 12.3642L76.3209 12.2734ZM76.6725 18.25L77.172 18.2722L77.1725 18.2611V18.25H76.6725ZM75.6178 30.7891V30.2891H75.2385L75.1363 30.6544L75.6178 30.7891ZM72.5709 37.1172L72.195 36.7876L72.1814 36.803L72.1692 36.8195L72.5709 37.1172ZM66.4772 47.3125L66.6353 47.7868L66.8392 47.7189L66.9302 47.5241L66.4772 47.3125ZM65.7741 48.4844L65.3338 48.2473L65.0733 48.7312L65.5795 48.945L65.7741 48.4844ZM72.5709 50.4766L72.6673 49.9859L72.6196 49.9766H72.5709V50.4766ZM74.5631 51.0625L74.2631 51.4625L74.4813 51.6261L74.737 51.5313L74.5631 51.0625ZM77.3756 48.7188L77.0067 48.3812L76.9723 48.4188L76.9462 48.4626L77.3756 48.7188ZM79.2506 45.4375L78.9886 45.0117L78.8315 45.1083L78.7748 45.2838L79.2506 45.4375ZM80.8913 46.1406L81.3786 46.2526L81.3913 46.1973V46.1406H80.8913ZM77.1413 51.7656L77.3765 52.2068L77.4491 52.1681L77.5054 52.1082L77.1413 51.7656ZM75.0319 52.7031L74.9577 53.1976L74.9946 53.2031H75.0319V52.7031ZM74.4459 52.3516H74.9459V51.7751L74.3752 51.8566L74.4459 52.3516ZM73.6256 52.4688V52.9688H73.6612L73.6963 52.9637L73.6256 52.4688ZM73.5084 52.4688L73.446 52.9648L73.4771 52.9688H73.5084V52.4688ZM65.7741 50.3594L65.996 49.9113L65.965 49.896L65.9322 49.885L65.7741 50.3594ZM64.8366 50.2422V49.7422H64.5448L64.4013 49.9962L64.8366 50.2422ZM61.6725 55.3984L61.2523 55.1275L61.2232 55.1726L61.2043 55.2229L61.6725 55.3984ZM60.9694 50.4766L61.2028 50.9188L61.2996 50.8677L61.3662 50.7808L60.9694 50.4766ZM64.0163 48.0156L64.2074 48.4776L64.373 48.4091L64.4574 48.251L64.0163 48.0156ZM68.9381 39.1094L68.5374 38.8104L68.5274 38.8237L68.5183 38.8377L68.9381 39.1094ZM73.1569 32.5469L72.6955 32.3543L72.6569 32.4467V32.5469H73.1569ZM74.5631 23.9922L74.0684 23.9198L74.0631 23.9558V23.9922H74.5631ZM74.9147 14.8516H75.4147V14.8232L75.4115 14.7951L74.9147 14.8516ZM73.7428 10.9844L73.6179 11.4685L73.6793 11.4844H73.7428V10.9844ZM63.0788 8.64062L63.1672 8.14851L62.6261 8.05124L62.5805 8.5991L63.0788 8.64062ZM62.9616 10.0469L62.4633 10.0054L62.4616 10.0261V10.0469H62.9616ZM62.2584 18.6016V18.1016H62.1257L62.0104 18.1674L62.2584 18.6016ZM61.7897 18.7188L61.6849 19.2077L61.7367 19.2188H61.7897V18.7188ZM60.9694 17.8984L60.4702 17.8693L60.4694 17.8839V17.8984H60.9694ZM62.0241 6.88281V6.38281H61.906L61.8005 6.4356L62.0241 6.88281ZM62.7272 6.88281L62.6485 7.37659C67.0474 8.07729 71.0919 8.93308 74.7827 9.9432L74.9147 9.46094L75.0467 8.97867C71.3157 7.95755 67.2351 7.09458 62.8058 6.38904L62.7272 6.88281ZM74.9147 9.46094L74.5917 9.84263C75.2386 10.39 75.6631 11.204 75.826 12.3441L76.3209 12.2734L76.8159 12.2027C76.6272 10.882 76.1143 9.82098 75.2377 9.07924L74.9147 9.46094ZM76.3209 12.2734L75.8292 12.3642C76.0659 13.6463 76.1725 14.4182 76.1725 14.7344H76.6725H77.1725C77.1725 14.3083 77.0447 13.4396 76.8126 12.1827L76.3209 12.2734ZM76.6725 14.7344H76.1725V18.25H76.6725H77.1725V14.7344H76.6725ZM76.6725 18.25L76.173 18.2278C75.9875 22.406 75.8072 25.5328 75.6323 27.6124C75.5446 28.6543 75.4592 29.4222 75.3771 29.9247C75.3354 30.1794 75.2977 30.3456 75.2674 30.4397C75.251 30.4903 75.2457 30.4916 75.2592 30.4705C75.2663 30.4594 75.2913 30.4219 75.3405 30.3833C75.3936 30.3417 75.4887 30.2891 75.6178 30.2891V30.7891V31.2891C75.9146 31.2891 76.0656 31.0656 76.1014 31.0097C76.1567 30.9233 76.1933 30.8266 76.2191 30.7466C76.273 30.5795 76.3202 30.3538 76.3639 30.0861C76.4527 29.5437 76.5406 28.7442 76.6287 27.6962C76.8054 25.5962 76.9864 22.4533 77.172 18.2722L76.6725 18.25ZM75.6178 30.7891L75.1363 30.6544C74.3655 33.4099 73.3765 35.4399 72.195 36.7876L72.5709 37.1172L72.9469 37.4468C74.2654 35.9429 75.3076 33.7542 76.0993 30.9238L75.6178 30.7891ZM72.5709 37.1172L72.1692 36.8195C69.7475 40.0878 67.6989 43.515 66.0242 47.1009L66.4772 47.3125L66.9302 47.5241C68.5758 44.0006 70.5897 40.6309 72.9727 37.4149L72.5709 37.1172ZM66.4772 47.3125L66.3191 46.8382C66.2314 46.8674 66.1719 46.9136 66.1475 46.9335C66.1174 46.9582 66.0937 46.9825 66.0777 47.0001C66.0456 47.0353 66.0169 47.0733 65.9934 47.1061C65.9452 47.1735 65.8896 47.2613 65.8287 47.3629C65.7055 47.5683 65.5399 47.8645 65.3338 48.2473L65.7741 48.4844L66.2143 48.7214C66.4183 48.3425 66.5751 48.0626 66.6862 47.8774C66.7425 47.7836 66.7821 47.7225 66.8071 47.6873C66.8203 47.6689 66.8227 47.6672 66.8162 47.6744C66.813 47.6779 66.8008 47.6911 66.7808 47.7075C66.7665 47.7192 66.7157 47.7601 66.6353 47.7868L66.4772 47.3125ZM65.7741 48.4844L65.5795 48.945C68.721 50.2718 71.0717 50.9766 72.5709 50.9766V50.4766V49.9766C71.2968 49.9766 69.1162 49.3532 65.9686 48.0238L65.7741 48.4844ZM72.5709 50.4766L72.4746 50.9672C73.0143 51.0732 73.437 51.1723 73.7482 51.2639C74.08 51.3614 74.2253 51.4341 74.2631 51.4625L74.5631 51.0625L74.8631 50.6625C74.6666 50.5151 74.3627 50.4022 74.0304 50.3045C73.6775 50.2007 73.2214 50.0948 72.6673 49.9859L72.5709 50.4766ZM74.5631 51.0625L74.737 51.5313C76.0553 51.0422 77.0828 50.1857 77.805 48.9749L77.3756 48.7188L76.9462 48.4626C76.3403 49.4783 75.4928 50.1843 74.3892 50.5937L74.5631 51.0625ZM77.3756 48.7188L77.7445 49.0563C78.6362 48.0816 79.2958 46.924 79.7264 45.5912L79.2506 45.4375L78.7748 45.2838C78.3851 46.4901 77.7947 47.5199 77.0067 48.3812L77.3756 48.7188ZM79.2506 45.4375L79.5127 45.8633C79.7171 45.7376 79.8607 45.7031 79.9538 45.7031V45.2031V44.7031C79.6171 44.7031 79.292 44.8249 78.9886 45.0117L79.2506 45.4375ZM79.9538 45.2031V45.7031C80.1892 45.7031 80.2739 45.7616 80.3033 45.7911C80.3327 45.8205 80.3913 45.9052 80.3913 46.1406H80.8913H81.3913C81.3913 45.7511 81.2935 45.367 81.0104 45.0839C80.7273 44.8009 80.3433 44.7031 79.9538 44.7031V45.2031ZM80.8913 46.1406L80.4039 46.0287C80.1041 47.3338 78.9387 49.125 76.7771 51.423L77.1413 51.7656L77.5054 52.1082C79.6797 49.7968 81.0143 47.8381 81.3786 46.2526L80.8913 46.1406ZM77.1413 51.7656L76.906 51.3244C76.3242 51.6347 75.8675 51.8627 75.5319 52.0118C75.3637 52.0866 75.2334 52.1382 75.1374 52.1702C75.0276 52.2068 75.0047 52.2031 75.0319 52.2031V52.7031V53.2031C75.1763 53.2031 75.3291 53.1604 75.4537 53.1189C75.592 53.0727 75.7547 53.0071 75.9381 52.9257C76.3056 52.7623 76.7864 52.5215 77.3765 52.2068L77.1413 51.7656ZM75.0319 52.7031L75.106 52.2087C75.0255 52.1966 74.9642 52.1828 74.9192 52.1693C74.8731 52.1555 74.8531 52.1446 74.8497 52.1425C74.8464 52.1406 74.8717 52.1548 74.8986 52.1951C74.9288 52.2404 74.9459 52.2966 74.9459 52.3516H74.4459H73.9459C73.9459 52.6672 74.1378 52.8816 74.3352 53C74.5158 53.1084 74.7382 53.1647 74.9577 53.1976L75.0319 52.7031ZM74.4459 52.3516L74.3752 51.8566L73.5549 51.9738L73.6256 52.4688L73.6963 52.9637L74.5166 52.8465L74.4459 52.3516ZM73.6256 52.4688V51.9688H73.5084V52.4688V52.9688H73.6256V52.4688ZM73.5084 52.4688L73.5708 51.9727C70.5019 51.5866 67.982 50.8949 65.996 49.9113L65.7741 50.3594L65.5522 50.8074C67.6677 51.8551 70.3041 52.5696 73.446 52.9648L73.5084 52.4688ZM65.7741 50.3594L65.9322 49.885C65.6261 49.783 65.2535 49.7422 64.8366 49.7422V50.2422V50.7422C65.2009 50.7422 65.4533 50.7795 65.6159 50.8337L65.7741 50.3594ZM64.8366 50.2422L64.4013 49.9962C63.6463 51.3319 62.5974 53.0415 61.2523 55.1275L61.6725 55.3984L62.0927 55.6694C63.4429 53.5756 64.5034 51.8478 65.2718 50.4882L64.8366 50.2422ZM61.6725 55.3984L61.2043 55.2229C61.1841 55.277 61.1606 55.2993 61.1315 55.3159C61.0929 55.3379 61.0104 55.3672 60.8522 55.3672V55.8672V56.3672C61.1237 56.3672 61.3927 56.3183 61.6276 56.1841C61.872 56.0445 62.0438 55.8324 62.1407 55.574L61.6725 55.3984ZM60.8522 55.8672V55.3672C60.6168 55.3672 60.532 55.3087 60.5026 55.2793C60.4732 55.2498 60.4147 55.1651 60.4147 54.9297H59.9147H59.4147C59.4147 55.3193 59.5124 55.7033 59.7955 55.9864C60.0786 56.2695 60.4626 56.3672 60.8522 56.3672V55.8672ZM59.9147 54.9297H60.4147C60.4147 53.6466 60.5021 52.6706 60.6649 51.9834C60.835 51.265 61.0561 50.9962 61.2028 50.9188L60.9694 50.4766L60.736 50.0344C60.1795 50.3281 59.8732 50.9869 59.6918 51.7529C59.503 52.5501 59.4147 53.6151 59.4147 54.9297H59.9147ZM60.9694 50.4766L61.3662 50.7808C62.2221 49.6644 63.171 48.9065 64.2074 48.4776L64.0163 48.0156L63.8251 47.5536C62.5959 48.0622 61.5136 48.945 60.5726 50.1723L60.9694 50.4766ZM64.0163 48.0156L64.4574 48.251C67.0989 43.3006 68.7277 40.355 69.3579 39.381L68.9381 39.1094L68.5183 38.8377C67.8595 39.856 66.2071 42.8478 63.5751 47.7802L64.0163 48.0156ZM68.9381 39.1094L69.3389 39.4084C70.7475 37.5204 71.8103 36.0203 72.5228 34.912C72.8785 34.3587 73.1527 33.894 73.3398 33.5225C73.4333 33.3368 73.5092 33.1662 73.5627 33.0138C73.6135 32.8692 73.6569 32.7062 73.6569 32.5469H73.1569H72.6569C72.6569 32.5389 72.6563 32.5768 72.6192 32.6824C72.5848 32.7802 72.5289 32.9093 72.4466 33.0728C72.2821 33.3994 72.029 33.8308 71.6816 34.3712C70.9879 35.4504 69.9413 36.9288 68.5374 38.8104L68.9381 39.1094ZM73.1569 32.5469L73.6183 32.7395C74.5896 30.4124 75.0631 27.4896 75.0631 23.9922H74.5631H74.0631C74.0631 27.4088 73.5992 30.1891 72.6955 32.3543L73.1569 32.5469ZM74.5631 23.9922L75.0579 24.0646C75.2968 22.432 75.4147 20.4925 75.4147 18.25H74.9147H74.4147C74.4147 20.4606 74.2982 22.3492 74.0684 23.9198L74.5631 23.9922ZM74.9147 18.25H75.4147V14.8516H74.9147H74.4147V18.25H74.9147ZM74.9147 14.8516L75.4115 14.7951C75.2641 13.4982 75.0893 12.4951 74.8805 11.8062C74.7772 11.4651 74.6557 11.1672 74.5038 10.9444C74.358 10.7305 74.1108 10.4844 73.7428 10.4844V10.9844V11.4844C73.619 11.4844 73.6037 11.3994 73.6776 11.5077C73.7454 11.6072 73.8315 11.7927 73.9235 12.0962C74.1053 12.6963 74.2723 13.6268 74.4179 14.908L74.9147 14.8516ZM73.7428 10.9844L73.8678 10.5002C70.2236 9.55982 66.6568 8.77585 63.1672 8.14851L63.0788 8.64062L62.9903 9.13274C66.4539 9.7554 69.9964 10.5339 73.6179 11.4685L73.7428 10.9844ZM63.0788 8.64062L62.5805 8.5991L62.4633 10.0054L62.9616 10.0469L63.4598 10.0884L63.577 8.68215L63.0788 8.64062ZM62.9616 10.0469H62.4616V12.2734H62.9616H63.4616V10.0469H62.9616ZM62.9616 12.2734H62.4616C62.4616 14.3786 62.4029 15.9381 62.2888 16.9643C62.2313 17.4821 62.1625 17.8354 62.0917 18.0479C62.0748 18.0988 62.0595 18.136 62.0469 18.1622C62.034 18.189 62.0269 18.1978 62.0286 18.1957C62.0297 18.1943 62.1049 18.1016 62.2584 18.1016V18.6016V19.1016C62.5292 19.1016 62.7142 18.9429 62.8179 18.8097C62.9195 18.6791 62.9888 18.519 63.0404 18.3642C63.1453 18.0493 63.2231 17.6116 63.2827 17.0747C63.4031 15.9916 63.4616 14.387 63.4616 12.2734H62.9616ZM62.2584 18.6016L62.0104 18.1674C61.9577 18.1975 61.8888 18.2188 61.7897 18.2188V18.7188V19.2188C62.0421 19.2188 62.2857 19.1618 62.5065 19.0357L62.2584 18.6016ZM61.7897 18.7188L61.8945 18.2298C61.6754 18.1829 61.5725 18.1168 61.528 18.0722C61.4959 18.0401 61.4694 17.9968 61.4694 17.8984H60.9694H60.4694C60.4694 18.2297 60.5796 18.538 60.8209 18.7793C61.0498 19.0082 61.3571 19.1374 61.6849 19.2077L61.7897 18.7188ZM60.9694 17.8984L61.4685 17.9276C61.6248 15.2522 61.7038 13.3639 61.7038 12.2734H61.2038H60.7038C60.7038 13.3314 60.6265 15.1931 60.4702 17.8693L60.9694 17.8984ZM61.2038 12.2734H61.7038V10.2812H61.2038H60.7038V12.2734H61.2038ZM61.2038 10.2812H61.7038C61.7038 9.30103 61.7717 8.56515 61.8949 8.05482C62.0256 7.51329 62.1857 7.36099 62.2477 7.33003L62.0241 6.88281L61.8005 6.4356C61.3155 6.67807 61.0655 7.2289 60.9228 7.82018C60.7725 8.44267 60.7038 9.26928 60.7038 10.2812H61.2038ZM62.0241 6.88281V7.38281H62.7272V6.88281V6.38281H62.0241V6.88281Z" fill="#BABD71"/>
</svg>
