<svg width="138" height="59" viewBox="0 0 138 59" fill="none" xmlns="http://www.w3.org/2000/svg">
<path d="M137.944 24.0652L109.477 0L25.8535 7.63043L0.944443 31.1087L81.0094 54L137.944 24.0652Z" fill="#FEF098"/>
<path d="M76.242 6.53125C76.7303 6.53125 77.0037 6.84375 77.0623 7.46875C74.1717 24.0898 72.7263 32.7227 72.7263 33.3672C72.5701 35.2031 72.492 36.8828 72.492 38.4062V40.75C71.9451 43.3672 71.6717 45.2812 71.6717 46.4922V48.9531C71.6717 49.5781 71.3592 49.8906 70.7342 49.8906C70.2459 49.8906 69.9724 49.5781 69.9138 48.9531V46.8438C69.9138 45.125 70.1873 43.0547 70.7342 40.6328V38.4062C70.7342 34.3633 71.3982 29.0898 72.7263 22.5859C73.742 16.668 74.2498 13.582 74.2498 13.3281C73.6248 14.168 72.9217 15.457 72.1404 17.1953C71.1638 18.543 69.3279 21.5898 66.6326 26.3359C63.5271 32.8008 61.8474 36.082 61.5935 36.1797C61.0076 36.9609 60.4998 37.3516 60.0701 37.3516H59.9529C59.3279 37.3516 59.0154 37.0391 59.0154 36.4141C59.0154 36.2578 59.5623 35.5938 60.656 34.4219C63.9959 27.4883 66.7693 22.293 68.9763 18.8359C70.2849 16.8047 71.4568 14.6953 72.492 12.5078C73.7224 10.7695 74.7381 8.85547 75.5388 6.76562C75.7928 6.60938 76.0271 6.53125 76.242 6.53125Z" fill="#BABD71"/>
<path d="M77.0623 7.46875L77.5549 7.55442L77.5663 7.4886L77.5601 7.42208L77.0623 7.46875ZM72.7263 33.3672L73.2245 33.4096L73.2263 33.3884V33.3672H72.7263ZM72.492 40.75L72.9814 40.8523L72.992 40.8017V40.75H72.492ZM69.9138 48.9531H69.4138V48.9765L69.416 48.9998L69.9138 48.9531ZM70.7342 40.6328L71.2219 40.7429L71.2342 40.6886V40.6328H70.7342ZM72.7263 22.5859L73.2162 22.686L73.2178 22.6783L73.2191 22.6705L72.7263 22.5859ZM74.2498 13.3281H74.7498V11.8187L73.8487 13.0296L74.2498 13.3281ZM72.1404 17.1953L72.5453 17.4887L72.5754 17.4471L72.5965 17.4003L72.1404 17.1953ZM66.6326 26.3359L66.1978 26.089L66.1893 26.104L66.1819 26.1194L66.6326 26.3359ZM61.5935 36.1797L61.414 35.713L61.2798 35.7646L61.1935 35.8797L61.5935 36.1797ZM60.656 34.4219L61.0216 34.763L61.0735 34.7074L61.1065 34.6389L60.656 34.4219ZM68.9763 18.8359L68.556 18.5651L68.5549 18.5669L68.9763 18.8359ZM72.492 12.5078L72.0839 12.2189L72.0587 12.2545L72.04 12.2939L72.492 12.5078ZM75.5388 6.76562L75.2768 6.3398L75.1326 6.42856L75.072 6.58672L75.5388 6.76562ZM76.242 6.53125V7.03125C76.3699 7.03125 76.4122 7.06652 76.437 7.09488C76.4773 7.14092 76.5402 7.25703 76.5645 7.51542L77.0623 7.46875L77.5601 7.42208C77.5257 7.05547 77.4227 6.70283 77.1896 6.43637C76.9409 6.15223 76.6024 6.03125 76.242 6.03125V6.53125ZM77.0623 7.46875L76.5697 7.38308C75.1243 15.6939 74.0401 22.0086 73.3172 26.3266C72.9558 28.4854 72.6844 30.1465 72.5033 31.309C72.4128 31.89 72.3445 32.3485 72.2987 32.6833C72.2554 33 72.2263 33.2447 72.2263 33.3672H72.7263H73.2263C73.2263 33.368 73.2263 33.3649 73.2268 33.3563C73.2272 33.3482 73.2279 33.3371 73.229 33.3227C73.2313 33.2938 73.235 33.2556 73.2403 33.2074C73.2509 33.1109 73.2672 32.9818 73.2895 32.8188C73.334 32.4931 73.4012 32.0416 73.4914 31.463C73.6716 30.3061 73.9422 28.6494 74.3035 26.4917C75.0259 22.1769 76.1096 15.8647 77.5549 7.55442L77.0623 7.46875ZM72.7263 33.3672L72.2281 33.3248C72.0709 35.172 71.992 36.8661 71.992 38.4062H72.492H72.992C72.992 36.8995 73.0693 35.2342 73.2245 33.4096L72.7263 33.3672ZM72.492 38.4062H71.992V40.75H72.492H72.992V38.4062H72.492ZM72.492 40.75L72.0025 40.6477C71.455 43.2682 71.1717 45.2257 71.1717 46.4922H71.6717H72.1717C72.1717 45.3368 72.4352 43.4661 72.9814 40.8523L72.492 40.75ZM71.6717 46.4922H71.1717V48.9531H71.6717H72.1717V46.4922H71.6717ZM71.6717 48.9531H71.1717C71.1717 49.1886 71.1131 49.2733 71.0837 49.3027C71.0543 49.3321 70.9696 49.3906 70.7342 49.3906V49.8906V50.3906C71.1237 50.3906 71.5078 50.2929 71.7908 50.0098C72.0739 49.7267 72.1717 49.3427 72.1717 48.9531H71.6717ZM70.7342 49.8906V49.3906C70.6063 49.3906 70.564 49.3554 70.5392 49.327C70.4989 49.281 70.4359 49.1648 70.4117 48.9065L69.9138 48.9531L69.416 48.9998C69.4504 49.3664 69.5534 49.719 69.7866 49.9855C70.0352 50.2696 70.3738 50.3906 70.7342 50.3906V49.8906ZM69.9138 48.9531H70.4138V46.8438H69.9138H69.4138V48.9531H69.9138ZM69.9138 46.8438H70.4138C70.4138 45.1744 70.6799 43.1431 71.2219 40.7429L70.7342 40.6328L70.2464 40.5227C69.6947 42.9662 69.4138 45.0756 69.4138 46.8438H69.9138ZM70.7342 40.6328H71.2342V38.4062H70.7342H70.2342V40.6328H70.7342ZM70.7342 38.4062H71.2342C71.2342 34.4113 71.8911 29.175 73.2162 22.686L72.7263 22.5859L72.2365 22.4859C70.9053 29.0047 70.2342 34.3152 70.2342 38.4062H70.7342ZM72.7263 22.5859L73.2191 22.6705C73.727 19.7112 74.1081 17.4589 74.3623 15.9142C74.4893 15.1421 74.585 14.5452 74.6489 14.1247C74.6808 13.9147 74.7052 13.7465 74.7217 13.6215C74.7361 13.5125 74.7498 13.3999 74.7498 13.3281H74.2498H73.7498C73.7498 13.3198 73.7476 13.3592 73.7303 13.4907C73.715 13.6061 73.6918 13.7669 73.6603 13.9744C73.5972 14.3888 73.5024 14.981 73.3756 15.7518C73.1219 17.2931 72.7413 19.5427 72.2336 22.5014L72.7263 22.5859ZM74.2498 13.3281L73.8487 13.0296C73.1912 13.9131 72.4705 15.2412 71.6844 16.9903L72.1404 17.1953L72.5965 17.4003C73.3728 15.6729 74.0584 14.4228 74.6509 13.6266L74.2498 13.3281ZM72.1404 17.1953L71.7355 16.9019C70.7397 18.2762 68.8899 21.3486 66.1978 26.089L66.6326 26.3359L67.0674 26.5828C69.7659 21.8311 71.588 18.8097 72.5453 17.4887L72.1404 17.1953ZM66.6326 26.3359L66.1819 26.1194C64.6296 29.3509 63.4355 31.7828 62.5987 33.4177C62.1798 34.236 61.8532 34.8491 61.6173 35.2612C61.4988 35.4684 61.4079 35.6164 61.3427 35.7118C61.3096 35.7603 61.2895 35.7857 61.281 35.7955C61.2767 35.8004 61.2815 35.7942 61.2945 35.783C61.3023 35.7762 61.3439 35.74 61.414 35.713L61.5935 36.1797L61.773 36.6464C61.859 36.6133 61.9193 36.5647 61.9486 36.5394C61.983 36.5097 62.012 36.4787 62.0347 36.4527C62.0802 36.4005 62.1253 36.339 62.1685 36.2759C62.2559 36.1479 62.3621 35.973 62.4853 35.7579C62.7328 35.3252 63.0679 34.6956 63.4888 33.8733C64.3316 32.2269 65.5301 29.7858 67.0833 26.5524L66.6326 26.3359ZM61.5935 36.1797L61.1935 35.8797C60.9151 36.2509 60.6728 36.505 60.4684 36.6623C60.2609 36.8219 60.1322 36.8516 60.0701 36.8516V37.3516V37.8516C60.4377 37.8516 60.7778 37.6859 61.0781 37.4549C61.3815 37.2215 61.686 36.8897 61.9935 36.4797L61.5935 36.1797ZM60.0701 37.3516V36.8516H59.9529V37.3516V37.8516H60.0701V37.3516ZM59.9529 37.3516V36.8516C59.7175 36.8516 59.6327 36.793 59.6033 36.7636C59.5739 36.7342 59.5154 36.6495 59.5154 36.4141H59.0154H58.5154C58.5154 36.8036 58.6131 37.1877 58.8962 37.4707C59.1793 37.7538 59.5633 37.8516 59.9529 37.8516V37.3516ZM59.0154 36.4141H59.5154C59.5154 36.5134 59.4803 36.5718 59.4913 36.549C59.4944 36.5426 59.5063 36.5205 59.534 36.479C59.5886 36.397 59.6789 36.2777 59.8115 36.1167C60.075 35.7967 60.4768 35.3467 61.0216 34.763L60.656 34.4219L60.2905 34.0807C59.7415 34.669 59.323 35.1369 59.0396 35.481C58.8988 35.652 58.784 35.8012 58.7019 35.9243C58.6613 35.9853 58.6218 36.0499 58.5908 36.1143C58.5676 36.1623 58.5154 36.2756 58.5154 36.4141H59.0154ZM60.656 34.4219L61.1065 34.6389C64.4438 27.7106 67.207 22.5366 69.3978 19.105L68.9763 18.8359L68.5549 18.5669C66.3316 22.0494 63.548 27.266 60.2056 34.2049L60.656 34.4219ZM68.9763 18.8359L69.3967 19.1067C70.7171 17.0572 71.8995 14.9288 72.9439 12.7217L72.492 12.5078L72.04 12.2939C71.0141 14.4618 69.8528 16.5522 68.556 18.5652L68.9763 18.8359ZM72.492 12.5078L72.9001 12.7967C74.1558 11.0227 75.1908 9.07136 76.0057 6.94453L75.5388 6.76562L75.072 6.58672C74.2853 8.63958 73.289 10.5164 72.0839 12.2189L72.492 12.5078ZM75.5388 6.76562L75.8009 7.19145C76.0053 7.06568 76.1489 7.03125 76.242 7.03125V6.53125V6.03125C75.9054 6.03125 75.5802 6.15307 75.2768 6.3398L75.5388 6.76562Z" fill="#BABD71"/>
</svg>
