<svg width="136" height="70" viewBox="0 0 136 70" fill="none" xmlns="http://www.w3.org/2000/svg">
<path d="M136 40.0652L107.74 16L24.7273 23.6304L0 47.1087L79.4805 70L136 40.0652Z" fill="#FEF098"/>
<path d="M68.1178 7.75781C68.6061 7.75781 68.8795 8.07031 68.9381 8.69531C67.7858 12.6797 66.028 17.1328 63.6647 22.0547C61.8092 26.1758 60.4811 29.6523 59.6803 32.4844C59.4459 32.875 59.0163 34.2812 58.3913 36.7031C58.235 36.7227 58.1178 36.957 58.0397 37.4062H58.1569C58.9967 37.4062 62.6686 37.1328 69.1725 36.5859C69.8952 36.5078 71.4967 36.4688 73.9772 36.4688H75.0319C76.6725 32.0352 77.5709 29.7305 77.7272 29.5547C77.9811 29.3984 78.2155 29.3203 78.4303 29.3203C78.9186 29.3203 79.192 29.6328 79.2506 30.2578C79.2506 30.4141 78.4694 32.4844 76.9069 36.4688H77.7272C78.1764 36.4688 78.8014 36.4297 79.6022 36.3516C80.0709 36.5078 80.3053 36.8203 80.3053 37.2891C80.3053 37.9141 79.7194 38.2266 78.5475 38.2266H76.3209C76.1256 38.2266 74.7975 41.4688 72.3366 47.9531C70.8522 51.3125 70.11 53.2266 70.11 53.6953C69.817 53.9297 69.5436 54.0469 69.2897 54.0469C68.7428 53.9297 68.4694 53.6562 68.4694 53.2266C68.4694 52.4844 68.9381 51.1562 69.8756 49.2422L74.2116 38.2266H73.9772C70.4811 38.2266 65.9498 38.5 60.3834 39.0469C59.3873 39.125 58.0983 39.1641 56.5163 39.1641C56.0475 39.0078 55.8131 38.6953 55.8131 38.2266C56.6725 36.0781 57.4147 33.8125 58.0397 31.4297C58.4303 30.8438 58.86 29.5547 59.3288 27.5625C63.1959 18.8516 65.6569 13.0703 66.7116 10.2188C66.985 8.57812 67.4538 7.75781 68.1178 7.75781Z" fill="#BABD71"/>
<path d="M68.9381 8.69531L69.4184 8.83423L69.4448 8.7431L69.4359 8.64864L68.9381 8.69531ZM63.6647 22.0547L63.2138 21.8382L63.2088 21.8494L63.6647 22.0547ZM59.6803 32.4844L60.1091 32.7416L60.1433 32.6845L60.1614 32.6204L59.6803 32.4844ZM58.3913 36.7031L58.4533 37.1993L58.7905 37.1571L58.8754 36.8281L58.3913 36.7031ZM58.0397 37.4062L57.5471 37.3206L57.4452 37.9062H58.0397V37.4062ZM69.1725 36.5859L69.2144 37.0843L69.2262 37.083L69.1725 36.5859ZM75.0319 36.4688V36.9688H75.38L75.5008 36.6423L75.0319 36.4688ZM77.7272 29.5547L77.4651 29.1289L77.4024 29.1675L77.3535 29.2225L77.7272 29.5547ZM79.2506 30.2578H79.7506V30.2344L79.7484 30.2111L79.2506 30.2578ZM76.9069 36.4688L76.4414 36.2862L76.1737 36.9688H76.9069V36.4688ZM79.6022 36.3516L79.7603 35.8772L79.6594 35.8436L79.5536 35.8539L79.6022 36.3516ZM72.3366 47.9531L72.7939 48.1552L72.7993 48.143L72.804 48.1305L72.3366 47.9531ZM70.11 53.6953L70.4223 54.0857L70.61 53.9356V53.6953H70.11ZM69.2897 54.0469L69.1849 54.5358L69.2367 54.5469H69.2897V54.0469ZM69.8756 49.2422L70.3247 49.4621L70.3335 49.444L70.3409 49.4253L69.8756 49.2422ZM74.2116 38.2266L74.6768 38.4097L74.9457 37.7266H74.2116V38.2266ZM60.3834 39.0469L60.4225 39.5454L60.4323 39.5445L60.3834 39.0469ZM56.5163 39.1641L56.3581 39.6384L56.4351 39.6641H56.5163V39.1641ZM55.8131 38.2266L55.3489 38.0409L55.3131 38.1303V38.2266H55.8131ZM58.0397 31.4297L57.6237 31.1523L57.5773 31.2219L57.556 31.3028L58.0397 31.4297ZM59.3288 27.5625L58.8718 27.3596L58.8528 27.4024L58.842 27.448L59.3288 27.5625ZM66.7116 10.2188L67.1805 10.3922L67.197 10.3477L67.2048 10.3009L66.7116 10.2188ZM68.1178 7.75781V8.25781C68.2457 8.25781 68.288 8.29308 68.3128 8.32144C68.3531 8.36748 68.4161 8.48359 68.4403 8.74198L68.9381 8.69531L69.4359 8.64864C69.4016 8.28203 69.2985 7.9294 69.0654 7.66294C68.8168 7.3788 68.4782 7.25781 68.1178 7.25781V7.75781ZM68.9381 8.69531L68.4578 8.5564C67.3151 12.5074 65.5688 16.934 63.214 21.8383L63.6647 22.0547L64.1154 22.2711C66.4872 17.3316 68.2564 12.852 69.4184 8.83423L68.9381 8.69531ZM63.6647 22.0547L63.2088 21.8494C61.3479 25.9824 60.0092 29.4837 59.1992 32.3483L59.6803 32.4844L60.1614 32.6204C60.953 29.821 62.2705 26.3691 64.1206 22.26L63.6647 22.0547ZM59.6803 32.4844L59.2516 32.2271C59.097 32.4847 58.9149 32.9962 58.7041 33.6859C58.4861 34.3992 58.2204 35.3643 57.9071 36.5782L58.3913 36.7031L58.8754 36.8281C59.1871 35.6201 59.4487 34.6711 59.6604 33.9781C59.8794 33.2617 60.0292 32.8747 60.1091 32.7416L59.6803 32.4844ZM58.3913 36.7031L58.3292 36.207C57.9983 36.2484 57.8221 36.5038 57.739 36.6699C57.6483 36.8513 57.5893 37.0779 57.5471 37.3206L58.0397 37.4062L58.5323 37.4919C58.5682 37.2854 58.6069 37.1702 58.6334 37.1172C58.6459 37.0922 58.6452 37.1025 58.6216 37.1245C58.5935 37.1505 58.5364 37.1889 58.4533 37.1993L58.3913 36.7031ZM58.0397 37.4062V37.9062H58.1569V37.4062V36.9062H58.0397V37.4062ZM58.1569 37.4062V37.9062C59.024 37.9062 62.7264 37.6297 69.2144 37.0842L69.1725 36.5859L69.1306 36.0877C62.6108 36.6359 58.9695 36.9062 58.1569 36.9062V37.4062ZM69.1725 36.5859L69.2262 37.083C69.9168 37.0084 71.4896 36.9688 73.9772 36.9688V36.4688V35.9688C71.5038 35.9688 69.8735 36.0072 69.1188 36.0888L69.1725 36.5859ZM73.9772 36.4688V36.9688H75.0319V36.4688V35.9688H73.9772V36.4688ZM75.0319 36.4688L75.5008 36.6423C76.3208 34.4262 76.9544 32.7449 77.402 31.5966C77.626 31.022 77.8021 30.5844 77.931 30.2813C77.9956 30.1293 78.0464 30.0158 78.0841 29.9378C78.103 29.8985 78.1164 29.8729 78.1248 29.8581C78.1381 29.8344 78.1291 29.8552 78.1009 29.8869L77.7272 29.5547L77.3535 29.2225C77.3058 29.2762 77.2714 29.3356 77.2536 29.3671C77.2308 29.4075 77.2073 29.4538 77.1835 29.503C77.1358 29.602 77.0779 29.7321 77.0107 29.89C76.8759 30.2071 76.6955 30.6557 76.4703 31.2334C76.0195 32.3899 75.3835 34.0777 74.563 36.2952L75.0319 36.4688ZM77.7272 29.5547L77.9892 29.9805C78.1936 29.8547 78.3372 29.8203 78.4303 29.8203V29.3203V28.8203C78.0937 28.8203 77.7686 28.9421 77.4651 29.1289L77.7272 29.5547ZM78.4303 29.3203V29.8203C78.5582 29.8203 78.6005 29.8556 78.6253 29.8839C78.6656 29.93 78.7286 30.0461 78.7528 30.3045L79.2506 30.2578L79.7484 30.2111C79.7141 29.8445 79.611 29.4919 79.3779 29.2254C79.1293 28.9413 78.7907 28.8203 78.4303 28.8203V29.3203ZM79.2506 30.2578H78.7506C78.7506 30.1989 78.7631 30.161 78.7561 30.1897C78.7532 30.2014 78.747 30.2236 78.7361 30.2591C78.7145 30.3292 78.6804 30.4314 78.6323 30.5683C78.5366 30.8411 78.3918 31.2347 78.1969 31.7512C77.8074 32.7833 77.2224 34.2945 76.4414 36.2862L76.9069 36.4688L77.3724 36.6513C78.1538 34.6586 78.7407 33.1425 79.1325 32.1043C79.3282 31.5856 79.4763 31.1833 79.5759 30.8994C79.6255 30.7581 79.6646 30.6417 79.6919 30.5532C79.7054 30.5093 79.7176 30.4671 79.7269 30.4294C79.732 30.4086 79.7506 30.3362 79.7506 30.2578H79.2506ZM76.9069 36.4688V36.9688H77.7272V36.4688V35.9688H76.9069V36.4688ZM77.7272 36.4688V36.9688C78.2005 36.9688 78.8443 36.9279 79.6507 36.8492L79.6022 36.3516L79.5536 35.8539C78.7585 35.9315 78.1523 35.9688 77.7272 35.9688V36.4688ZM79.6022 36.3516L79.4441 36.8259C79.6076 36.8804 79.6878 36.9474 79.7295 37.0031C79.7696 37.0566 79.8053 37.1406 79.8053 37.2891H80.3053H80.8053C80.8053 36.9688 80.7238 36.6622 80.5295 36.4031C80.3369 36.1463 80.0656 35.979 79.7603 35.8772L79.6022 36.3516ZM80.3053 37.2891H79.8053C79.8053 37.3642 79.7888 37.4065 79.7715 37.4342C79.7531 37.4635 79.7154 37.5058 79.6306 37.551C79.4461 37.6494 79.1053 37.7266 78.5475 37.7266V38.2266V38.7266C79.1616 38.7266 79.6997 38.6475 80.1012 38.4334C80.3093 38.3223 80.4913 38.1693 80.6194 37.9642C80.7486 37.7575 80.8053 37.5265 80.8053 37.2891H80.3053ZM78.5475 38.2266V37.7266H76.3209V38.2266V38.7266H78.5475V38.2266ZM76.3209 38.2266V37.7266C76.1514 37.7266 76.0359 37.8082 75.9964 37.8383C75.946 37.8767 75.9091 37.9178 75.8866 37.9449C75.8401 38.0008 75.7987 38.0656 75.764 38.1244C75.6921 38.2463 75.6066 38.4152 75.5095 38.6218C75.3136 39.0389 75.0485 39.6562 74.7157 40.4687C74.0491 42.096 73.0999 44.5326 71.8691 47.7757L72.3366 47.9531L72.804 48.1305C74.0341 44.8893 74.9795 42.4626 75.641 40.8477C75.9723 40.0391 76.2297 39.4406 76.4146 39.0471C76.5079 38.8484 76.5775 38.7134 76.6252 38.6327C76.6503 38.5902 76.6599 38.579 76.6555 38.5842C76.654 38.586 76.636 38.6081 76.6022 38.6339C76.5794 38.6513 76.4782 38.7266 76.3209 38.7266V38.2266ZM72.3366 47.9531L71.8792 47.751C71.1359 49.4332 70.5757 50.7598 70.2005 51.7274C70.0131 52.2107 69.8694 52.6108 69.7718 52.9241C69.681 53.2157 69.61 53.4918 69.61 53.6953H70.11H70.61C70.61 53.6969 70.61 53.6868 70.6137 53.6612C70.6172 53.6366 70.6232 53.6035 70.6327 53.5609C70.6519 53.475 70.6825 53.3627 70.7265 53.2214C70.8145 52.939 70.9491 52.5627 71.1328 52.089C71.4998 51.1426 72.0528 49.8324 72.7939 48.1552L72.3366 47.9531ZM70.11 53.6953L69.7977 53.3049C69.5525 53.501 69.387 53.5469 69.2897 53.5469V54.0469V54.5469C69.7002 54.5469 70.0815 54.3584 70.4223 54.0857L70.11 53.6953ZM69.2897 54.0469L69.3945 53.558C69.1754 53.511 69.0725 53.4449 69.028 53.4004C68.9959 53.3682 68.9694 53.3249 68.9694 53.2266H68.4694H67.9694C67.9694 53.5579 68.0796 53.8661 68.3209 54.1075C68.5498 54.3364 68.8571 54.4655 69.1849 54.5358L69.2897 54.0469ZM68.4694 53.2266H68.9694C68.9694 52.9424 69.0631 52.4899 69.2924 51.8402C69.518 51.2011 69.8606 50.4096 70.3247 49.4621L69.8756 49.2422L69.4266 49.0223C68.9532 49.9888 68.5926 50.8184 68.3494 51.5074C68.11 52.1859 67.9694 52.7685 67.9694 53.2266H68.4694ZM69.8756 49.2422L70.3409 49.4253L74.6768 38.4097L74.2116 38.2266L73.7463 38.0434L69.4104 49.0591L69.8756 49.2422ZM74.2116 38.2266V37.7266H73.9772V38.2266V38.7266H74.2116V38.2266ZM73.9772 38.2266V37.7266C70.4581 37.7266 65.9088 38.0016 60.3346 38.5493L60.3834 39.0469L60.4323 39.5445C65.9909 38.9984 70.5041 38.7266 73.9772 38.7266V38.2266ZM60.3834 39.0469L60.3443 38.5484C59.3665 38.6251 58.0918 38.6641 56.5163 38.6641V39.1641V39.6641C58.1048 39.6641 59.4082 39.6249 60.4225 39.5453L60.3834 39.0469ZM56.5163 39.1641L56.6744 38.6897C56.5109 38.6352 56.4307 38.5682 56.3889 38.5125C56.3488 38.4591 56.3131 38.375 56.3131 38.2266H55.8131H55.3131C55.3131 38.5469 55.3946 38.8534 55.5889 39.1125C55.7815 39.3693 56.0529 39.5367 56.3581 39.6384L56.5163 39.1641ZM55.8131 38.2266L56.2774 38.4123C57.1449 36.2434 57.8934 33.9581 58.5233 31.5565L58.0397 31.4297L57.556 31.3028C56.936 33.6669 56.2001 35.9128 55.3489 38.0409L55.8131 38.2266ZM58.0397 31.4297L58.4557 31.707C58.689 31.3571 58.9108 30.8369 59.1293 30.1816C59.3506 29.5175 59.5792 28.6813 59.8155 27.677L59.3288 27.5625L58.842 27.448C58.6096 28.4359 58.3889 29.2403 58.1806 29.8653C57.9693 30.4991 57.781 30.9163 57.6237 31.1523L58.0397 31.4297ZM59.3288 27.5625L59.7857 27.7654C63.6516 19.0573 66.1193 13.2613 67.1805 10.3922L66.7116 10.2188L66.2426 10.0453C65.1944 12.8793 62.7402 18.6458 58.8718 27.3596L59.3288 27.5625ZM66.7116 10.2188L67.2048 10.3009C67.338 9.50158 67.5116 8.95496 67.7023 8.62112C67.8896 8.29346 68.0361 8.25781 68.1178 8.25781V7.75781V7.25781C67.5355 7.25781 67.1156 7.63232 66.8341 8.12498C66.5561 8.61145 66.3586 9.29529 66.2184 10.1366L66.7116 10.2188Z" fill="#BABD71"/>
</svg>
